<svg viewBox="0 0 29 29" version="1.1" xmlns="http://www.w3.org/2000/svg" xmlns:xlink="http://www.w3.org/1999/xlink">
    <g stroke="none" stroke-width="1" fill="none" fill-rule="evenodd">
        <g transform="translate(-977.000000, -616.000000)" fill="currentColor">
            <g transform="translate(977.416667, 616.859355)">
                <path d="M13.831709,0.0890143633 C18.3559035,0.0890143633 22.019709,3.83742045 22.019709,8.45101436 C22.019709,12.9244769 18.5748932,16.5831434 14.2405789,16.8007729 L13.831709,16.8110144 C8.7656618,16.8110144 4.653709,21.0148479 4.6536576,26.2012263 C4.66594101,27.1316944 3.92109415,27.8955425 2.97588692,27.9109856 C2.04208458,27.9017705 1.29455132,27.1390662 1.303491,26.2110144 C1.303491,21.4071926 3.91678342,17.101624 7.93776503,14.9119308 L8.37765115,14.6826144 L8.06757834,14.3853529 C6.74041666,13.0425228 5.90108137,11.2870667 5.69393275,9.40265387 L5.6553997,8.92902823 L5.643709,8.45101436 C5.643709,3.83810361 9.3088485,0.0890143633 13.831709,0.0890143633 Z M25.196509,24.5196144 C26.024509,24.5196144 26.696509,25.1896144 26.696509,26.0196144 C26.696509,26.8476144 26.024509,27.5196144 25.196509,27.5196144 L17.826509,27.5196144 C16.998509,27.5196144 16.326509,26.8476144 16.326509,26.0196144 C16.326509,25.1896144 16.998509,24.5196144 17.826509,24.5196144 L25.196509,24.5196144 Z M25.196509,18.1992144 C26.024509,18.1992144 26.696509,18.8712144 26.696509,19.6992144 C26.696509,20.5292144 26.024509,21.1992144 25.196509,21.1992144 L17.826509,21.1992144 C16.998509,21.1992144 16.326509,20.5292144 16.326509,19.6992144 C16.326509,18.8712144 16.998509,18.1992144 17.826509,18.1992144 L25.196509,18.1992144 Z M13.813709,3.08701436 C10.9518347,3.08701436 8.631709,5.40658475 8.631709,8.26701436 C8.631709,11.1291664 10.951557,13.4490144 13.813709,13.4490144 C16.675861,13.4490144 18.995709,11.1291664 18.995709,8.26701436 C18.995709,5.40658475 16.6755833,3.08701436 13.813709,3.08701436 Z"></path>
            </g>
        </g>
    </g>
</svg>