<svg viewBox="0 0 29 29" version="1.1" xmlns="http://www.w3.org/2000/svg" xmlns:xlink="http://www.w3.org/1999/xlink">
    <g stroke="none" stroke-width="1" fill="none" fill-rule="evenodd">
        <g transform="translate(-327.000000, -719.000000)" fill="currentColor" fill-rule="nonzero">
            <g transform="translate(327.333333, 719.756682)">
                <path d="M14,0 C21.7319865,0 28,6.2680135 28,14 C28,21.7319865 21.7319865,28 14,28 C6.2680135,28 0,21.7319865 0,14 C0,6.2680135 6.2680135,0 14,0 Z M14,3 C7.92486775,3 3,7.92486775 3,14 C3,20.0751322 7.92486775,25 14,25 C20.0751322,25 25,20.0751322 25,14 C25,7.92486775 20.0751322,3 14,3 Z M14,7 C14.8284271,7 15.5,7.67157288 15.5,8.5 L15.5,12.5 L19.5,12.5 C20.3284271,12.5 21,13.1715729 21,14 C21,14.8284271 20.3284271,15.5 19.5,15.5 L15.498,15.5 L15.5,19.5 C15.5,20.3284271 14.8284271,21 14,21 C13.1715729,21 12.5,20.3284271 12.5,19.5 L12.498,15.498 L8.5,15.5 C7.67157288,15.5 7,14.8284271 7,14 C7,13.1715729 7.67157288,12.5 8.5,12.5 L12.5,12.498 L12.5,8.5 C12.5,7.67157288 13.1715729,7 14,7 Z"></path>
            </g>
        </g>
    </g>
</svg>