<svg viewBox="0 0 29 29" version="1.1" xmlns="http://www.w3.org/2000/svg" xmlns:xlink="http://www.w3.org/1999/xlink">
    <defs>
        <linearGradient x1="50%" y1="0%" x2="50%" y2="100%" id="linearGradient-1">
            <stop stop-color="#ADE4FF" offset="0%"></stop>
            <stop stop-color="#79BADA" offset="100%"></stop>
        </linearGradient>
    </defs>
    <g stroke="none" stroke-width="1" fill="none" fill-rule="evenodd">
        <g transform="translate(-869.000000, -1465.000000)" fill="url(#linearGradient-1)" fill-rule="nonzero">
            <g transform="translate(869.633333, 1465.482073)">
                <path d="M14.0093121,0 L14.0088047,0.00311111111 L25.8962063,3.74421175 C26.557242,3.95229346 27.0009221,4.57255862 26.9842767,5.26537112 C26.838904,11.3160602 25.5552384,16.1235765 23.1332798,19.6879201 C20.7005359,23.2681363 17.8517249,25.9379623 14.5868468,27.6973981 L14.0032361,28 C10.494186,26.2489137 7.45188085,23.4787402 4.87603225,19.6879201 C2.45407367,16.1235765 1.17040805,11.3160602 1.02503539,5.26537112 C1.00990323,4.63554158 1.3752053,4.06566851 1.93839483,3.81092556 L2.11310577,3.74421175 L13.9994714,0.00311111111 L14,0 L14.0093121,0 Z M14.01447,2.65510625 C10.5232631,4.21963266 3.36267731,5.97945064 3.48138366,5.97028965 C3.48138366,13.8361501 5.72423333,20.3796337 14.0144841,25.3448938 C22.3044395,20.3796337 24.5423117,13.8361501 24.5423117,5.97028965 C24.7147607,5.97639698 21.5304094,5.19540078 18.353566,4.21108843 L17.8247384,4.04525392 C16.4177937,3.59854227 15.0492517,3.11807586 14.01447,2.65510625 Z M19.578125,19.0648913 C19.9427083,18.1898913 20.234375,17.606558 20.453125,17.3148913 C18.046875,17.1325996 16.3880208,16.5857246 15.4765625,15.6742663 L15.4765625,15.6742663 L20.2890625,15.6742663 L20.2890625,14.1430163 L14.9296875,14.1430163 C15.0026042,13.9242663 15.0572917,13.7237455 15.09375,13.5414538 C17.71875,12.5570788 19.4140625,11.0258288 20.1796875,8.94770379 L20.1796875,8.94770379 L20.1796875,7.63520379 L15.96875,7.63520379 C16.1510417,7.30707879 16.3515625,6.94249546 16.5703125,6.54145379 L16.5703125,6.54145379 L14.875,6.21332879 C14.2916667,7.52582879 13.4895833,8.69249546 12.46875,9.71332879 C12.7239583,9.93207879 13.0338542,10.2055163 13.3984375,10.5336413 C13.5078125,10.6794746 13.5807292,10.7706205 13.6171875,10.8070788 C14.1640625,10.2602038 14.6380208,9.67687046 15.0390625,9.05707879 L15.0390625,9.05707879 L18.4296875,9.05707879 C18.1015625,9.60395379 17.6458333,10.1143705 17.0625,10.5883288 C16.4791667,10.0414538 15.96875,9.60395379 15.53125,9.27582879 L15.53125,9.27582879 L14.4921875,10.3148913 C14.9296875,10.606558 15.3671875,10.9711413 15.8046875,11.4086413 C15.2213542,11.700308 14.546875,11.9555163 13.78125,12.1742663 C13.9635417,12.3930163 14.1276042,12.6117663 14.2734375,12.8305163 L14.2734375,12.8305163 L13.34375,12.8305163 C13.2708333,13.2680163 13.1796875,13.7055163 13.0703125,14.1430163 L13.0703125,14.1430163 L7.765625,14.1430163 L7.765625,15.6742663 L12.140625,15.6742663 C11.3385417,16.512808 9.80729167,17.0961413 7.546875,17.4242663 C7.765625,17.8982246 7.984375,18.4450996 8.203125,19.0648913 C10.828125,18.6273913 12.7239583,17.6977038 13.890625,16.2758288 C15.0208333,17.9164538 16.9166667,18.8461413 19.578125,19.0648913 Z M12.359375,13.7055163 L12.359375,6.26801629 L10.6640625,6.26801629 L10.6640625,8.61957879 C10.3359375,8.32791213 9.91666667,7.94509963 9.40625,7.47114129 C9.11458333,7.21593296 8.9140625,7.03364129 8.8046875,6.92426629 L8.8046875,6.92426629 L7.765625,7.90864129 C8.27604167,8.34614129 8.87760417,8.94770379 9.5703125,9.71332879 L9.5703125,9.71332879 L10.6640625,8.67426629 L10.6640625,10.0414538 C10.4088542,10.1508288 10.0078125,10.2966621 9.4609375,10.4789538 C8.65885417,10.8070788 8.0390625,11.044058 7.6015625,11.1898913 L7.6015625,11.1898913 L8.1484375,12.8852038 C8.95052083,12.4841621 9.7890625,12.1195788 10.6640625,11.7914538 L10.6640625,11.7914538 L10.6640625,13.7055163 L12.359375,13.7055163 Z"></path>
            </g>
        </g>
    </g>
</svg>