<svg viewBox="0 0 29 29" version="1.1" xmlns="http://www.w3.org/2000/svg" xmlns:xlink="http://www.w3.org/1999/xlink">
    <defs>
        <linearGradient x1="50%" y1="0%" x2="50%" y2="100%" id="linearGradient-1">
            <stop stop-color="#ADE4FF" offset="0%"></stop>
            <stop stop-color="#79BADA" offset="100%"></stop>
        </linearGradient>
    </defs>
    <g stroke="none" stroke-width="1" fill="none" fill-rule="evenodd">
        <g transform="translate(-1086.000000, -1465.000000)" fill="url(#linearGradient-1)" fill-rule="nonzero">
            <g transform="translate(1086.666667, 1465.482073)">
                <path d="M14.0093121,0 L14.0088047,0.00311111111 L25.8962063,3.74421175 C26.557242,3.95229346 27.0009221,4.57255862 26.9842767,5.26537112 C26.838904,11.3160602 25.5552384,16.1235765 23.1332798,19.6879201 C20.7005359,23.2681363 17.8517249,25.9379623 14.5868468,27.6973981 L14.0032361,28 C10.494186,26.2489137 7.45188085,23.4787402 4.87603225,19.6879201 C2.45407367,16.1235765 1.17040805,11.3160602 1.02503539,5.26537112 C1.00990323,4.63554158 1.3752053,4.06566851 1.93839483,3.81092556 L2.11310577,3.74421175 L13.9994714,0.00311111111 L14,0 L14.0093121,0 Z M14.01447,2.65510625 C10.5232631,4.21963266 3.36267731,5.97945064 3.48138366,5.97028965 C3.48138366,13.8361501 5.72423333,20.3796337 14.0144841,25.3448938 C22.3044395,20.3796337 24.5423117,13.8361501 24.5423117,5.97028965 C24.7007783,5.97590179 22.0247226,5.31687428 19.1246664,4.44619469 L18.6110979,4.29044048 C18.5252927,4.26414599 18.4394266,4.23769147 18.353566,4.21108843 L17.8247384,4.04525392 C16.4177937,3.59854227 15.0492517,3.11807586 14.01447,2.65510625 Z M19.5667479,6.66472231 L19.5667479,16.8008985 L19.560897,17.0000812 C19.5335928,17.4513065 19.410724,17.807791 19.1922905,18.0695346 C18.9426521,18.3686702 18.5606625,18.5451386 18.0463215,18.59894 C17.5319805,18.6527413 16.8551594,18.6731858 16.0158582,18.6602735 C15.8695185,17.9974408 15.6973541,17.373345 15.4993651,16.7879862 C16.3860115,16.8396355 16.8680717,16.8654602 16.9455457,16.8654602 C17.4878634,16.8654602 17.7590222,16.6029095 17.7590222,16.0778082 L17.7590222,16.0778082 L17.7590222,14.9027865 L15.0732583,14.9027865 L15.0732583,18.5182379 L13.2526203,18.5182379 L13.2526203,14.9027865 L10.4571017,14.9027865 L10.4293855,15.2519742 C10.2773126,16.9643706 9.92285415,18.1736402 9.36601008,18.8797831 C8.81508415,18.4838051 8.25985412,18.1222599 7.70031997,17.7951477 C8.35110122,16.9113706 8.68693648,15.3864536 8.70782576,13.2203965 L8.70782576,13.2203965 L8.70748143,6.66472231 L19.5667479,6.66472231 Z M13.2526203,11.635968 L10.5152071,11.635968 L10.5152071,13.2370964 L13.2526203,13.2370964 L13.2526203,11.635968 Z M17.7590222,11.635968 L15.0732583,11.635968 L15.0732583,13.2370964 L17.7590222,13.2370964 L17.7590222,11.635968 Z M13.2526203,8.36914939 L10.5152071,8.36914939 L10.5152071,9.97027786 L13.2526203,9.97027786 L13.2526203,8.36914939 Z M17.7590222,8.36914939 L15.0732583,8.36914939 L15.0732583,9.97027786 L17.7590222,9.97027786 L17.7590222,8.36914939 Z"></path>
            </g>
        </g>
    </g>
</svg>