<svg viewBox="0 0 29 29" version="1.1" xmlns="http://www.w3.org/2000/svg" xmlns:xlink="http://www.w3.org/1999/xlink">
    <defs>
        <linearGradient x1="50%" y1="0%" x2="50%" y2="100%" id="linearGradient-1">
            <stop stop-color="#ADE4FF" offset="0%"></stop>
            <stop stop-color="#79BADA" offset="100%"></stop>
        </linearGradient>
    </defs>
    <g stroke="none" stroke-width="1" fill="none" fill-rule="evenodd">
        <g transform="translate(-652.000000, -1465.000000)" fill="url(#linearGradient-1)" fill-rule="nonzero">
            <g transform="translate(652.883333, 1465.482073)">
                <path d="M14.0093121,0 L14.0088047,0.00311111111 L25.8962063,3.74421175 C26.557242,3.95229346 27.0009221,4.57255862 26.9842767,5.26537112 C26.838904,11.3160602 25.5552384,16.1235765 23.1332798,19.6879201 C20.7005359,23.2681363 17.8517249,25.9379623 14.5868468,27.6973981 L14.0032361,28 C10.494186,26.2489137 7.45188085,23.4787402 4.87603225,19.6879201 C2.45407367,16.1235765 1.17040805,11.3160602 1.02503539,5.26537112 C1.00990323,4.63554158 1.3752053,4.06566851 1.93839483,3.81092556 L2.11310577,3.74421175 L13.9994714,0.00311111111 L14,0 L14.0093121,0 Z M14.01447,2.65510625 C10.5232631,4.21963266 3.36267731,5.97945064 3.48138366,5.97028965 C3.48138366,13.8361501 5.72423333,20.3796337 14.0144841,25.3448938 C22.3044395,20.3796337 24.5423117,13.8361501 24.5423117,5.97028965 C24.7147607,5.97639698 21.5304094,5.19540078 18.353566,4.21108843 L17.8247384,4.04525392 C16.4177937,3.59854227 15.0492517,3.11807586 14.01447,2.65510625 Z M12.46875,11.4633288 C12.5416667,11.5727038 12.6510417,11.7367663 12.796875,11.9555163 C13.1614583,12.4294746 13.4166667,12.794058 13.5625,13.0492663 C13.671875,12.8305163 13.7994792,12.6117663 13.9453125,12.3930163 C14.2734375,13.5232246 14.7291667,14.5622871 15.3125,15.5102038 C14.546875,16.2393705 13.5989583,16.8773913 12.46875,17.4242663 L12.46875,17.4242663 L12.46875,11.4633288 Z M16.4609375,14.0883288 C15.8046875,13.0310371 15.3307292,11.7914538 15.0390625,10.3695788 C15.0755208,10.3331205 15.1119792,10.278433 15.1484375,10.2055163 C15.2213542,10.1325996 15.2578125,10.0779121 15.2578125,10.0414538 L15.2578125,10.0414538 L17.828125,10.0414538 C17.5364583,11.6820788 17.0807292,13.0310371 16.4609375,14.0883288 Z M12.46875,17.4242663 C12.8333333,17.8982246 13.1796875,18.4450996 13.5078125,19.0648913 C14.6744792,18.481558 15.6770833,17.7888496 16.515625,16.9867663 C17.3177083,17.715933 18.265625,18.3904121 19.359375,19.0102038 C19.7604167,18.3174955 20.1432292,17.7523913 20.5078125,17.3148913 C19.4140625,16.8773913 18.4661458,16.294058 17.6640625,15.5648913 C18.6119792,14.0700996 19.2135417,12.2289538 19.46875,10.0414538 L19.46875,10.0414538 L20.3984375,10.0414538 L20.3984375,8.29145379 L15.9140625,8.29145379 C15.9869792,8.10916213 16.078125,7.81749546 16.1875,7.41645379 C16.296875,7.05187046 16.3697917,6.77843296 16.40625,6.59614129 L16.40625,6.59614129 L14.65625,6.26801629 C14.109375,8.20030796 13.3802083,9.85916213 12.46875,11.2445788 L12.46875,11.2445788 L12.46875,6.32270379 L10.7734375,6.32270379 L10.7734375,13.5961413 C10.6276042,13.669058 10.4088542,13.778433 10.1171875,13.9242663 C9.8984375,14.0700996 9.734375,14.1612455 9.625,14.1977038 L9.625,14.1977038 L9.625,7.63520379 L8.0390625,7.63520379 L8.0390625,14.1977038 C8.0390625,14.5622871 7.875,14.8904121 7.546875,15.1820788 L7.546875,15.1820788 L8.3125,16.8227038 C8.82291667,16.3852038 9.64322917,15.9112455 10.7734375,15.4008288 L10.7734375,15.4008288 L10.7734375,19.0102038 L12.46875,19.0102038 L12.46875,17.4242663 Z"></path>
            </g>
        </g>
    </g>
</svg>