<svg viewBox="0 0 29 29" version="1.1" xmlns="http://www.w3.org/2000/svg" xmlns:xlink="http://www.w3.org/1999/xlink">
    <defs>
        <linearGradient x1="50%" y1="0%" x2="50%" y2="100%" id="linearGradient-1">
            <stop stop-color="#ADE4FF" offset="0%"></stop>
            <stop stop-color="#79BADA" offset="100%"></stop>
        </linearGradient>
    </defs>
    <g stroke="none" stroke-width="1" fill="none" fill-rule="evenodd">
        <g transform="translate(-761.000000, -1465.000000)" fill="url(#linearGradient-1)" fill-rule="nonzero">
            <g transform="translate(761.400000, 1465.482073)">
                <path d="M14.0093121,0 L14.0088047,0.00311111111 L25.8962063,3.74421175 C26.557242,3.95229346 27.0009221,4.57255862 26.9842767,5.26537112 C26.838904,11.3160602 25.5552384,16.1235765 23.1332798,19.6879201 C20.7005359,23.2681363 17.8517249,25.9379623 14.5868468,27.6973981 L14.0032361,28 C10.494186,26.2489137 7.45188085,23.4787402 4.87603225,19.6879201 C2.45407367,16.1235765 1.17040805,11.3160602 1.02503539,5.26537112 C1.00990323,4.63554158 1.3752053,4.06566851 1.93839483,3.81092556 L2.11310577,3.74421175 L13.9994714,0.00311111111 L14,0 L14.0093121,0 Z M14.01447,2.65510625 C10.5232631,4.21963266 3.36267731,5.97945064 3.48138366,5.97028965 C3.48138366,13.8361501 5.72423333,20.3796337 14.0144841,25.3448938 C22.3044395,20.3796337 24.5423117,13.8361501 24.5423117,5.97028965 C24.7147607,5.97639698 21.5304094,5.19540078 18.353566,4.21108843 L17.8247384,4.04525392 C16.4177937,3.59854227 15.0492517,3.11807586 14.01447,2.65510625 Z M10.28125,9.76801629 L11.7578125,8.51020379 C11.3203125,8.03624546 10.9192708,7.63520379 10.5546875,7.30707879 C10.1536458,6.90603713 9.82552083,6.57791213 9.5703125,6.32270379 L9.5703125,6.32270379 L8.2578125,7.41645379 C9.1328125,8.40082879 9.80729167,9.18468296 10.28125,9.76801629 L10.28125,9.76801629 Z M19.1953125,18.9555163 C19.3046875,18.809683 19.4505208,18.6091621 19.6328125,18.3539538 C19.9973958,17.8070788 20.2890625,17.387808 20.5078125,17.0961413 C18.2838542,15.7836413 16.9895833,13.1950996 16.625,9.33051629 C16.6979167,8.16384963 16.734375,7.17947463 16.734375,6.37739129 L16.734375,6.37739129 L14.8203125,6.37739129 C14.8567708,9.87739129 14.65625,12.2107246 14.21875,13.3773913 C13.8541667,14.6169746 12.8880208,15.8930163 11.3203125,17.2055163 C11.7942708,17.715933 12.2135417,18.2992663 12.578125,18.9555163 C14.21875,17.5700996 15.3489583,15.856558 15.96875,13.8148913 C16.40625,15.856558 17.4817708,17.5700996 19.1953125,18.9555163 Z M9.40625,18.7367663 C10.390625,17.5336413 11.484375,16.3669746 12.6875,15.2367663 C12.46875,14.653433 12.2864583,14.1247871 12.140625,13.6508288 C11.6666667,14.0883288 11.1744792,14.544058 10.6640625,15.0180163 L10.6640625,15.0180163 L10.6640625,10.3695788 L7.6015625,10.3695788 L7.6015625,12.0648913 L8.9140625,12.0648913 L8.9140625,16.3852038 C8.9140625,16.8591621 8.75,17.2602038 8.421875,17.5883288 L8.421875,17.5883288 L9.40625,18.7367663 Z"></path>
            </g>
        </g>
    </g>
</svg>