<svg viewBox="0 0 29 29" version="1.1" xmlns="http://www.w3.org/2000/svg" xmlns:xlink="http://www.w3.org/1999/xlink">
    <defs>
        <linearGradient x1="50%" y1="0%" x2="50%" y2="100%" id="linearGradient-1">
            <stop stop-color="#ADE4FF" offset="0%"></stop>
            <stop stop-color="#79BADA" offset="100%"></stop>
        </linearGradient>
    </defs>
    <g stroke="none" stroke-width="1" fill="none" fill-rule="evenodd">
        <g transform="translate(-978.000000, -1465.000000)" fill="url(#linearGradient-1)" fill-rule="nonzero">
            <g transform="translate(978.150000, 1465.482073)">
                <path d="M14.0093121,0 L14.0088047,0.00311111111 L25.8962063,3.74421175 C26.557242,3.95229346 27.0009221,4.57255862 26.9842767,5.26537112 C26.838904,11.3160602 25.5552384,16.1235765 23.1332798,19.6879201 C20.7005359,23.2681363 17.8517249,25.9379623 14.5868468,27.6973981 L14.0032361,28 C10.494186,26.2489137 7.45188085,23.4787402 4.87603225,19.6879201 C2.45407367,16.1235765 1.17040805,11.3160602 1.02503539,5.26537112 C1.00990323,4.63554158 1.3752053,4.06566851 1.93839483,3.81092556 L2.11310577,3.74421175 L13.9994714,0.00311111111 L14,0 L14.0093121,0 Z M14.01447,2.65510625 C10.5232631,4.21963266 3.36267731,5.97945064 3.48138366,5.97028965 C3.48138366,13.8361501 5.72423333,20.3796337 14.0144841,25.3448938 C22.3044395,20.3796337 24.5423117,13.8361501 24.5423117,5.97028965 C24.7147607,5.97639698 21.5304094,5.19540078 18.353566,4.21108843 L17.8247384,4.04525392 C16.4177937,3.59854227 15.0492517,3.11807586 14.01447,2.65510625 Z M18.6484375,19.0648913 C19.3411458,19.028433 19.796875,18.6456205 20.015625,17.9164538 C20.3072917,17.2237455 20.4713542,16.4216621 20.5078125,15.5102038 C19.9973958,15.3279121 19.46875,15.0727038 18.921875,14.7445788 C18.921875,15.3643705 18.8671875,16.0023913 18.7578125,16.6586413 C18.7213542,16.8773913 18.6119792,16.9867663 18.4296875,16.9867663 C18.2838542,16.9867663 18.15625,16.8773913 18.046875,16.6586413 C17.9010417,16.403433 17.7734375,16.0935371 17.6640625,15.7289538 C18.4661458,14.6716621 19.2135417,13.4867663 19.90625,12.1742663 L19.90625,12.1742663 L18.3203125,11.5180163 C17.9921875,12.2836413 17.609375,12.9945788 17.171875,13.6508288 C17.0625,12.8487455 16.953125,11.9555163 16.84375,10.9711413 L16.84375,10.9711413 L20.453125,10.9711413 L20.453125,9.60395379 L16.7890625,9.60395379 C16.7526042,8.58312046 16.734375,7.47114129 16.734375,6.26801629 L16.734375,6.26801629 L15.0390625,6.26801629 C15.0390625,7.47114129 15.0755208,8.58312046 15.1484375,9.60395379 L15.1484375,9.60395379 L12.140625,9.60395379 L12.140625,8.61957879 L14.4375,8.61957879 L14.4375,7.30707879 L12.140625,7.30707879 L12.140625,6.32270379 L10.4453125,6.32270379 L10.4453125,7.30707879 L7.984375,7.30707879 L7.984375,8.61957879 L10.4453125,8.61957879 L10.4453125,9.60395379 L7.546875,9.60395379 L7.546875,10.9711413 L11.375,10.9711413 L10.171875,11.3539538 C10.28125,11.6456205 10.4088542,11.9008288 10.5546875,12.1195788 L10.5546875,12.1195788 L7.765625,12.1195788 L7.765625,13.4867663 L10.1171875,13.4867663 C9.31510417,14.3617663 8.421875,15.0180163 7.4375,15.4555163 C7.765625,16.1117663 7.984375,16.6586413 8.09375,17.0961413 C8.49479167,16.8773913 8.87760417,16.622183 9.2421875,16.3305163 L9.2421875,16.3305163 L9.2421875,16.8773913 C9.2421875,17.3513496 9.078125,17.6977038 8.75,17.9164538 L8.75,17.9164538 L9.4609375,19.0648913 C10.0078125,18.7367663 10.9921875,18.3357246 12.4140625,17.8617663 C12.3776042,17.5700996 12.3229167,17.0961413 12.25,16.4398913 C12.0677083,16.512808 11.7942708,16.622183 11.4296875,16.7680163 C11.1380208,16.8773913 10.9375,16.950308 10.828125,16.9867663 L10.828125,16.9867663 L10.828125,14.9086413 C11.2291667,14.4711413 11.6119792,13.997183 11.9765625,13.4867663 L11.9765625,13.4867663 L14.8203125,13.4867663 L14.8203125,12.1195788 L12.359375,12.1195788 C12.3229167,12.0102038 12.25,11.8461413 12.140625,11.6273913 C11.9947917,11.3357246 11.8854167,11.1169746 11.8125,10.9711413 L11.8125,10.9711413 L15.203125,10.9711413 C15.3125,12.7575996 15.5130208,14.2341621 15.8046875,15.4008288 L15.8046875,15.4008288 L15.4765625,15.7289538 C15.1848958,16.0570788 14.9479167,16.294058 14.765625,16.4398913 C14.6927083,16.3305163 14.5651042,16.2029121 14.3828125,16.0570788 C14.2005208,15.8747871 14.0546875,15.747183 13.9453125,15.6742663 C14.3463542,15.419058 14.7838542,15.0727038 15.2578125,14.6352038 L15.2578125,14.6352038 L14.1640625,13.5961413 C13.7265625,14.0700996 13.3072917,14.4711413 12.90625,14.7992663 C12.8333333,14.7263496 12.7057292,14.6169746 12.5234375,14.4711413 C12.3776042,14.3617663 12.25,14.2706205 12.140625,14.1977038 L12.140625,14.1977038 L11.1015625,15.1820788 C11.3932292,15.4372871 11.8489583,15.856558 12.46875,16.4398913 C12.9791667,16.8773913 13.3619792,17.2055163 13.6171875,17.4242663 C13.5807292,17.4607246 13.5260417,17.497183 13.453125,17.5336413 C13.3072917,17.5700996 13.1979167,17.6247871 13.125,17.6977038 C13.5260417,17.9893705 13.9453125,18.4086413 14.3828125,18.9555163 C15.0755208,18.4086413 15.75,17.8435371 16.40625,17.2602038 C16.953125,18.4633288 17.7005208,19.0648913 18.6484375,19.0648913 Z M18.59375,9.11176629 L20.015625,8.23676629 C19.46875,7.47114129 18.9583333,6.83312046 18.484375,6.32270379 L18.484375,6.32270379 L17.171875,7.08832879 C17.71875,7.74457879 18.1927083,8.41905796 18.59375,9.11176629 L18.59375,9.11176629 Z"></path>
            </g>
        </g>
    </g>
</svg>