<svg viewBox="0 0 28 29" version="1.1" xmlns="http://www.w3.org/2000/svg" xmlns:xlink="http://www.w3.org/1999/xlink">
    <defs>
        <linearGradient x1="50%" y1="0%" x2="50%" y2="97.8310752%" id="linearGradient-1">
            <stop stop-color="#88C4FF" offset="0%"></stop>
            <stop stop-color="#2688E8" offset="100%"></stop>
        </linearGradient>
    </defs>
    <g stroke="none" stroke-width="1" fill="none" fill-rule="evenodd">
        <g transform="translate(-110.000000, -1465.000000)" fill="url(#linearGradient-1)" fill-rule="nonzero">
            <g transform="translate(110.000000, 1465.482073)">
                <path d="M14.0093121,0 L14.0088047,0.00311111111 L25.8962063,3.74421175 C26.557242,3.95229346 27.0009221,4.57255862 26.9842767,5.26537112 C26.838904,11.3160602 25.5552384,16.1235765 23.1332798,19.6879201 C20.7005359,23.2681363 17.8517249,25.9379623 14.5868468,27.6973981 L14.0032361,28 C10.494186,26.2489137 7.45188085,23.4787402 4.87603225,19.6879201 C2.45407367,16.1235765 1.17040805,11.3160602 1.02503539,5.26537112 C1.00990323,4.63554158 1.3752053,4.06566851 1.93839483,3.81092556 L2.11310577,3.74421175 L13.9994714,0.00311111111 L14,0 L14.0093121,0 Z M14.01447,2.65510625 C10.5232631,4.21963266 3.36267731,5.97945064 3.48138366,5.97028965 C3.48138366,13.8361501 5.72423333,20.3796337 14.0144841,25.3448938 C22.3044395,20.3796337 24.5423117,13.8361501 24.5423117,5.97028965 C24.7007783,5.97590179 22.0247226,5.31687428 19.1246664,4.44619469 L18.6110979,4.29044048 C18.5252927,4.26414599 18.4394266,4.23769147 18.353566,4.21108843 L17.8247384,4.04525392 C16.4177937,3.59854227 15.0492517,3.11807586 14.01447,2.65510625 Z M11.2563075,13.2473463 L11.2563075,16.2381011 L13.0637637,15.1588287 L13.0928179,15.4455104 C13.160137,16.093101 13.2241375,16.5913569 13.2848195,16.9402783 C11.5423797,17.9978786 10.480445,18.7347312 10.0990154,19.1508362 L10.0990154,19.1508362 L9.12376928,17.941531 L9.22779554,17.8218478 C9.42098715,17.5734585 9.52501341,17.2709332 9.5398743,16.9142718 L9.5398743,16.9142718 L9.5398743,14.8337466 L8.18753298,14.8337466 L8.18753298,13.2473463 L11.2563075,13.2473463 Z M19.6824342,11.2838507 L19.6824342,17.0443046 L19.6770604,17.2326531 C19.6555652,17.5996641 19.5695843,17.9085584 19.4191177,18.159336 C19.2435734,18.4519098 18.9661701,18.6545443 18.5869077,18.7672394 C18.2076453,18.8799345 17.1988074,18.9297804 15.5603938,18.9167772 C15.4737053,18.4226525 15.3436725,17.8418392 15.1702954,17.1743374 C16.1065317,17.2090128 16.7783679,17.2263505 17.1858041,17.2263505 C17.6365845,17.2263505 17.8619747,16.987957 17.8619747,16.51117 L17.8619747,16.51117 L17.8619747,11.2838507 L19.6824342,11.2838507 Z M15.8334627,11.8429918 L15.8334627,16.420147 L14.091023,16.420147 L14.091023,11.8429918 L15.8334627,11.8429918 Z M19.812467,6.68068888 L19.812467,10.9327621 L11.6008945,10.9327621 L12.9337309,12.2460935 L11.4513567,13.3903824 C10.9832386,12.8269068 10.4327663,12.220087 9.79993994,11.5699229 L9.79993994,11.5699229 L10.6386516,10.9327621 L8.65565113,10.9327621 L8.65565113,6.68068888 L19.812467,6.68068888 Z M18.2000601,8.16306302 L16.53564,8.16306302 L16.53564,9.45038793 L18.2000601,9.45038793 L18.2000601,8.16306302 Z M11.9584847,8.16306302 L10.2940647,8.16306302 L10.2940647,9.45038793 L11.9584847,9.45038793 L11.9584847,8.16306302 Z M15.0792724,8.16306302 L13.4148523,8.16306302 L13.4148523,9.45038793 L15.0792724,9.45038793 L15.0792724,8.16306302 Z"></path>
            </g>
        </g>
    </g>
</svg>