<svg viewBox="0 0 29 29" version="1.1" xmlns="http://www.w3.org/2000/svg" xmlns:xlink="http://www.w3.org/1999/xlink">
    <defs>
        <linearGradient x1="50%" y1="0%" x2="50%" y2="100%" id="linearGradient-1">
            <stop stop-color="#FFE000" offset="0%"></stop>
            <stop stop-color="#F4A303" offset="100%"></stop>
        </linearGradient>
    </defs>
    <g stroke="none" stroke-width="1" fill="none" fill-rule="evenodd">
        <g transform="translate(-218.000000, -1465.000000)" fill="url(#linearGradient-1)" fill-rule="nonzero">
            <g transform="translate(218.816667, 1465.482073)">
                <path d="M14.0093121,0 L14.0088047,0.00311111111 L25.8962063,3.74421175 C26.557242,3.95229346 27.0009221,4.57255862 26.9842767,5.26537112 C26.838904,11.3160602 25.5552384,16.1235765 23.1332798,19.6879201 C20.7005359,23.2681363 17.8517249,25.9379623 14.5868468,27.6973981 L14.0032361,28 C10.494186,26.2489137 7.45188085,23.4787402 4.87603225,19.6879201 C2.45407367,16.1235765 1.17040805,11.3160602 1.02503539,5.26537112 C1.00990323,4.63554158 1.3752053,4.06566851 1.93839483,3.81092556 L2.11310577,3.74421175 L13.9994714,0.00311111111 L14,0 L14.0093121,0 Z M14.01447,2.65510625 C10.5232631,4.21963266 3.36267731,5.97945064 3.48138366,5.97028965 C3.48138366,13.8361501 5.72423333,20.3796337 14.0144841,25.3448938 C22.3044395,20.3796337 24.5423117,13.8361501 24.5423117,5.97028965 C24.7007783,5.97590179 22.0247226,5.31687428 19.1246664,4.44619469 L18.6110979,4.29044048 C18.5252927,4.26414599 18.4394266,4.23769147 18.353566,4.21108843 L17.8247384,4.04525392 C16.4177937,3.59854227 15.0492517,3.11807586 14.01447,2.65510625 Z M11.9286338,6.16360774 L11.9286338,10.8498063 L9.63580076,10.8498063 L9.51855362,12.3942718 L11.7853317,12.3942718 L11.7794513,12.7451663 C11.7456161,14.6939735 11.7030657,15.9696677 11.6518003,16.5722488 C11.5975192,17.2102758 11.4791864,17.6656951 11.296802,17.9385067 C11.1144175,18.2113183 10.8712383,18.3928259 10.5672642,18.4830298 C10.2632901,18.5732336 9.48815621,18.607335 8.2418625,18.5853341 C8.17238271,18.1541158 8.04645059,17.5644908 7.86406615,16.8164592 C8.51978166,16.8428603 8.9822565,16.8560608 9.25149068,16.8560608 C9.59454714,16.8560608 9.81384272,16.7383558 9.90937743,16.5029459 C10.0049121,16.2675359 10.0700494,15.4216 10.1047893,13.9651383 L10.1047893,13.9651383 L7.78590139,13.9651383 L8.12461536,9.27893975 L10.3132287,9.27893975 L10.3132287,7.73447431 L7.85103869,7.73447431 L7.85103869,6.16360774 L11.9286338,6.16360774 Z M19.1582298,6.16360774 L19.1582298,10.0539468 L16.7732084,10.0539468 L16.7732084,10.95473 L19.5929993,10.95473 L19.5929993,15.0931108 L18.965689,15.0931108 L18.965689,15.0931108 L18.9665825,15.096 L17.452277,15.0969434 L17.452277,16.5204388 L18.4673055,16.4012739 L18.207647,15.7283427 L19.0795825,15.339 L19.1711694,15.5362497 C19.4458333,16.1377389 19.7232576,16.7817771 20.0034424,17.4683644 L20.2140986,17.9912828 L18.7855702,18.591805 L18.4625986,17.7562959 C16.557894,17.9956344 14.4792816,18.2262698 12.2267615,18.4482018 L12.2267615,18.4482018 L11.9286338,16.7771837 L15.1831942,16.529142 L15.1831942,15.0931108 L12.3882473,15.0931108 L12.3882473,10.95473 L15.1831942,10.95473 L15.1831942,10.0539468 L12.7981728,10.0539468 L12.7981728,6.16360774 L19.1582298,6.16360774 Z M18.1427324,12.3777064 L16.7618216,12.3777064 L16.7618216,13.7586172 L18.1427324,13.7586172 L18.1427324,12.3777064 Z M15.3809108,12.3777064 L14,12.3777064 L14,13.7586172 L15.3809108,13.7586172 L15.3809108,12.3777064 Z M17.7975047,7.54451854 L14.3452277,7.54451854 L14.3452277,8.23497395 L17.7975047,8.23497395 L17.7975047,7.54451854 Z"></path>
            </g>
        </g>
    </g>
</svg>