<svg viewBox="0 0 29 29" version="1.1" xmlns="http://www.w3.org/2000/svg" xmlns:xlink="http://www.w3.org/1999/xlink">
    <defs>
        <linearGradient x1="50%" y1="0%" x2="50%" y2="100%" id="linearGradient-1">
            <stop stop-color="#23FFA9" offset="0%"></stop>
            <stop stop-color="#14BB7A" offset="100%"></stop>
        </linearGradient>
    </defs>
    <g stroke="none" stroke-width="1" fill="none" fill-rule="evenodd">
        <g transform="translate(-327.000000, -1465.000000)" fill="url(#linearGradient-1)" fill-rule="nonzero">
            <g transform="translate(327.333333, 1465.482073)">
                <path d="M14.0093121,0 L14.0088047,0.00311111111 L25.8962063,3.74421175 C26.557242,3.95229346 27.0009221,4.57255862 26.9842767,5.26537112 C26.838904,11.3160602 25.5552384,16.1235765 23.1332798,19.6879201 C20.7005359,23.2681363 17.8517249,25.9379623 14.5868468,27.6973981 L14.0032361,28 C10.494186,26.2489137 7.45188085,23.4787402 4.87603225,19.6879201 C2.45407367,16.1235765 1.17040805,11.3160602 1.02503539,5.26537112 C1.00990323,4.63554158 1.3752053,4.06566851 1.93839483,3.81092556 L2.11310577,3.74421175 L13.9994714,0.00311111111 L14,0 L14.0093121,0 Z M14.01447,2.65510625 C10.5232631,4.21963266 3.36267731,5.97945064 3.48138366,5.97028965 C3.48138366,13.8361501 5.72423333,20.3796337 14.0144841,25.3448938 C22.3044395,20.3796337 24.5423117,13.8361501 24.5423117,5.97028965 C24.7007783,5.97590179 22.0247226,5.31687428 19.1246664,4.44619469 L18.6110979,4.29044048 C18.5252927,4.26414599 18.4394266,4.23769147 18.353566,4.21108843 L17.8247384,4.04525392 C16.4177937,3.59854227 15.0492517,3.11807586 14.01447,2.65510625 Z M17.3076853,6.16360774 L17.0836588,6.53259256 L17.2922213,6.85794196 C18.2105596,8.24185913 19.318276,9.28868322 20.6153706,9.99841421 L20.6153706,9.99841421 L19.6533745,11.6456679 L19.3414945,11.4406763 C19.1365029,11.3020629 18.9373682,11.159545 18.7440905,11.0131225 L18.7440905,11.0131225 L18.7440905,11.7510921 L13.3410985,11.7510921 L13.3410985,11.0921906 L13.0394681,11.3440374 C12.8364288,11.509983 12.629485,11.6720239 12.4186365,11.8301603 C12.1023638,11.1888295 11.7992691,10.6353523 11.5093525,10.1697286 L11.5093525,10.1697286 L10.7186707,10.1697286 L10.7186707,11.0790126 L11.3365739,11.5768493 C11.7446047,11.912645 12.1448263,12.2562499 12.5372388,12.607664 L12.5372388,12.607664 L11.4434624,13.9386449 L11.2106505,13.6428714 C11.0525142,13.4476413 10.8885209,13.2563159 10.7186707,13.068895 L10.7186707,13.068895 L10.7186707,19.1439664 L9.04506105,19.1439664 L9.04506105,13.5828381 L8.82683289,14.0962541 C8.52602241,14.7765919 8.18585355,15.4400617 7.80632631,16.0866637 C7.66576067,15.1905577 7.52519503,14.3866979 7.38462938,13.6750843 C8.03474549,12.5593445 8.54868862,11.3908926 8.92645879,10.1697286 L8.92645879,10.1697286 L7.51640967,10.1697286 L7.51640967,8.45658481 L9.04506105,8.45658481 L9.04506105,6.1899638 L10.7186707,6.1899638 L10.7186707,8.45658481 L12.0760077,8.45658481 L12.0760077,9.74803166 L12.4132999,9.47880779 C13.5198188,8.56251728 14.4484523,7.4574506 15.1992006,6.16360774 L15.1992006,6.16360774 L17.3076853,6.16360774 Z M18.072011,12.4627057 L19.8246889,12.8844026 L19.7449801,13.163246 C19.4423125,14.2094961 19.0252218,15.5178121 18.4937079,17.0881939 L18.4937079,17.0881939 L20.2463858,17.0881939 L20.2463858,18.6959134 L11.8651593,18.6959134 L11.8651593,17.0881939 L16.8200982,17.0881939 L17.0241518,16.4883876 C17.4844219,15.0960465 17.8337083,13.7541525 18.072011,12.4627057 L18.072011,12.4627057 Z M13.4597008,12.8185124 L13.7533073,13.4969174 C14.1356458,14.4063771 14.4814373,15.335516 14.7906817,16.2843341 L14.7906817,16.2843341 L13.2356743,16.7982772 C12.928187,15.6913228 12.5284534,14.5492269 12.0364737,13.3719897 L12.0364737,13.3719897 L13.4597008,12.8185124 Z M16.2139089,12.1991451 L16.4168505,12.9186655 C16.676897,13.8745118 16.8947737,14.8163017 17.0704808,15.7440349 L17.0704808,15.7440349 L15.5154733,16.0998417 C15.3924784,15.2388771 15.1464885,14.0572472 14.7775037,12.5549519 L14.7775037,12.5549519 L16.2139089,12.1991451 Z M16.0689506,8.02170985 C15.5330441,8.79482089 14.9488181,9.51082714 14.3162727,10.1697286 L14.3162727,10.1697286 L17.7952724,10.1697286 C17.189083,9.56353925 16.6136424,8.84753301 16.0689506,8.02170985 Z"></path>
            </g>
        </g>
    </g>
</svg>