<svg viewBox="0 0 29 29" version="1.1" xmlns="http://www.w3.org/2000/svg" xmlns:xlink="http://www.w3.org/1999/xlink">
    <defs>
        <linearGradient x1="50%" y1="0%" x2="50%" y2="100%" id="linearGradient-1">
            <stop stop-color="#ADE4FF" offset="0%"></stop>
            <stop stop-color="#79BADA" offset="100%"></stop>
        </linearGradient>
    </defs>
    <g stroke="none" stroke-width="1" fill="none" fill-rule="evenodd">
        <g transform="translate(-544.000000, -1465.000000)" fill="url(#linearGradient-1)" fill-rule="nonzero">
            <g transform="translate(544.650000, 1465.482073)">
                <path d="M14.0093121,0 L14.0088047,0.00311111111 L25.8962063,3.74421175 C26.557242,3.95229346 27.0009221,4.57255862 26.9842767,5.26537112 C26.838904,11.3160602 25.5552384,16.1235765 23.1332798,19.6879201 C20.7005359,23.2681363 17.8517249,25.9379623 14.5868468,27.6973981 L14.0032361,28 C10.494186,26.2489137 7.45188085,23.4787402 4.87603225,19.6879201 C2.45407367,16.1235765 1.17040805,11.3160602 1.02503539,5.26537112 C1.00990323,4.63554158 1.3752053,4.06566851 1.93839483,3.81092556 L2.11310577,3.74421175 L13.9994714,0.00311111111 L14,0 L14.0093121,0 Z M14.01447,2.65510625 C10.5232631,4.21963266 3.36267731,5.97945064 3.48138366,5.97028965 C3.48138366,13.8361501 5.72423333,20.3796337 14.0144841,25.3448938 C22.3044395,20.3796337 24.5423117,13.8361501 24.5423117,5.97028965 C24.7147607,5.97639698 21.5304094,5.19540078 18.353566,4.21108843 L17.8247384,4.04525392 C16.4177937,3.59854227 15.0492517,3.11807586 14.01447,2.65510625 Z M10.9921875,18.9555163 L10.9921875,9.05707879 C11.3203125,8.29145379 11.6302083,7.48937046 11.921875,6.65082879 L11.921875,6.65082879 L10.2265625,6.21332879 C9.60677083,8.07270379 8.71354167,9.91384963 7.546875,11.7367663 C7.61979167,12.1013496 7.72916667,12.5935371 7.875,13.2133288 C7.984375,13.6508288 8.05729167,13.9607246 8.09375,14.1430163 C8.49479167,13.5961413 8.859375,13.0492663 9.1875,12.5023913 L9.1875,12.5023913 L9.1875,18.9555163 L10.9921875,18.9555163 Z M14.3828125,18.9008288 C14.7473958,18.9008288 15.2578125,18.8825996 15.9140625,18.8461413 L15.9140625,18.8461413 L16.953125,18.8461413 C18.1197917,18.8461413 18.703125,18.153433 18.703125,16.7680163 L18.703125,16.7680163 L18.703125,10.4242663 L20.5078125,10.4242663 L20.5078125,8.67426629 L18.703125,8.67426629 L18.703125,6.37739129 L16.8984375,6.37739129 L16.8984375,8.67426629 L11.59375,8.67426629 L11.59375,10.4242663 L16.8984375,10.4242663 L16.8984375,16.1664538 C16.8984375,16.8227038 16.6067708,17.1508288 16.0234375,17.1508288 C15.4036458,17.1508288 14.765625,17.1143705 14.109375,17.0414538 L14.109375,17.0414538 L13.9453125,17.0414538 C14.1640625,17.6612455 14.3098958,18.2263496 14.3828125,18.7367663 L14.3828125,18.7367663 L14.3828125,18.9008288 Z M14.2734375,15.3461413 L15.8046875,14.3617663 C15.0755208,13.340933 14.5104167,12.575308 14.109375,12.0648913 C13.8177083,11.700308 13.5989583,11.4086413 13.453125,11.1898913 L13.453125,11.1898913 L12.0859375,12.1195788 C12.8880208,13.1768705 13.6171875,14.2523913 14.2734375,15.3461413 L14.2734375,15.3461413 Z"></path>
            </g>
        </g>
    </g>
</svg>