<svg viewBox="0 0 29 29" version="1.1" xmlns="http://www.w3.org/2000/svg" xmlns:xlink="http://www.w3.org/1999/xlink">
    <defs>
        <linearGradient x1="50%" y1="0%" x2="50%" y2="100%" id="linearGradient-1">
            <stop stop-color="#ADE4FF" offset="0%"></stop>
            <stop stop-color="#79BADA" offset="100%"></stop>
        </linearGradient>
    </defs>
    <g stroke="none" stroke-width="1" fill="none" fill-rule="evenodd">
        <g transform="translate(-436.000000, -1465.000000)" fill="url(#linearGradient-1)" fill-rule="nonzero">
            <g transform="translate(436.150000, 1465.482073)">
                <path d="M14.0093121,0 L14.0088047,0.00311111111 L25.8962063,3.74421175 C26.557242,3.95229346 27.0009221,4.57255862 26.9842767,5.26537112 C26.838904,11.3160602 25.5552384,16.1235765 23.1332798,19.6879201 C20.7005359,23.2681363 17.8517249,25.9379623 14.5868468,27.6973981 L14.0032361,28 C10.494186,26.2489137 7.45188085,23.4787402 4.87603225,19.6879201 C2.45407367,16.1235765 1.17040805,11.3160602 1.02503539,5.26537112 C1.00990323,4.63554158 1.3752053,4.06566851 1.93839483,3.81092556 L2.11310577,3.74421175 L13.9994714,0.00311111111 L14,0 L14.0093121,0 Z M14.01447,2.65510625 C10.5232631,4.21963266 3.36267731,5.97945064 3.48138366,5.97028965 C3.48138366,13.8361501 5.72423333,20.3796337 14.0144841,25.3448938 C22.3044395,20.3796337 24.5423117,13.8361501 24.5423117,5.97028965 C24.7147607,5.97639698 21.5304094,5.19540078 18.353566,4.21108843 L17.8247384,4.04525392 C16.4177937,3.59854227 15.0492517,3.11807586 14.01447,2.65510625 Z M14.21875,18.9008288 C15.421875,18.9008288 16.3151042,18.8643705 16.8984375,18.7914538 C18.2473958,18.7185371 18.921875,18.0805163 18.921875,16.8773913 L18.921875,16.8773913 L18.921875,8.83832879 L20.34375,8.83832879 L20.34375,7.08832879 L7.65625,7.08832879 L7.65625,8.83832879 L16.953125,8.83832879 L16.953125,16.0570788 C16.953125,16.7133288 16.5885417,17.059683 15.859375,17.0961413 C15.640625,17.059683 15.2942708,17.0414538 14.8203125,17.0414538 C14.3463542,17.0049955 13.9817708,16.9867663 13.7265625,16.9867663 C13.7630208,17.1325996 13.8177083,17.3331205 13.890625,17.5883288 C14.0729167,18.1716621 14.1822917,18.6091621 14.21875,18.9008288 Z M10.8828125,16.4945788 L10.8828125,15.7289538 L15.1484375,15.7289538 L15.1484375,10.1508288 L9.078125,10.1508288 L9.078125,16.4945788 L10.8828125,16.4945788 Z M13.2890625,14.1977038 L10.8828125,14.1977038 L10.8828125,11.7367663 L13.2890625,11.7367663 L13.2890625,14.1977038 Z"></path>
            </g>
        </g>
    </g>
</svg>