<svg viewBox="0 0 29 29" version="1.1" xmlns="http://www.w3.org/2000/svg" xmlns:xlink="http://www.w3.org/1999/xlink">
        <g stroke="none" stroke-width="1" fill="none" fill-rule="evenodd">
        <g transform="translate(-217.000000, -514.000000)" fill="currentColor" fill-rule="nonzero">
            <g transform="translate(217.850000, 514.308018)">
                <path d="M13.863351,0.144100183 C14.6917781,0.144100183 15.363351,0.815673058 15.363351,1.64410018 C15.363351,2.40349171 14.7990432,3.0310821 14.0668921,3.13040695 L13.863351,3.14410018 L3.76981105,3.14410018 C3.4736077,3.14410018 3.22547558,3.34991754 3.16062565,3.62634129 L3.14410018,3.76981105 L3.14410018,24.230189 C3.14410018,24.5263923 3.34991754,24.7745244 3.62634129,24.8393743 L3.76981105,24.8558998 L24.230189,24.8558998 C24.5263923,24.8558998 24.7745244,24.6500825 24.8393743,24.3736587 L24.8558998,24.230189 L24.8558998,14.2619417 C24.8558998,13.4335146 25.5274727,12.7619417 26.3558998,12.7619417 C27.1152913,12.7619417 27.7428817,13.3262494 27.8422066,14.0584006 L27.8558998,14.2619417 L27.8558998,24.230189 C27.8558998,26.1324925 26.3908842,27.6926234 24.5275536,27.8438807 L24.230189,27.8558998 L3.76981105,27.8558998 C1.86750747,27.8558998 0.307376634,26.3908842 0.15611931,24.5275536 L0.144100183,24.230189 L0.144100183,3.76981105 C0.144100183,1.86750747 1.60911584,0.307376634 3.47244638,0.15611931 L3.76981105,0.144100183 L13.863351,0.144100183 Z M23.1340812,6.5050277 C23.6510812,5.98802771 24.470869,5.93329989 25.0553256,6.37837501 L25.0553256,6.37837501 L25.1999621,6.5050277 C25.7192693,7.0243349 25.7697239,7.84446543 25.313854,8.44189119 L25.313854,8.44189119 L25.1999621,8.57090854 L13.9993039,19.7715667 C13.4799967,20.2908739 12.6598662,20.3413286 12.0624404,19.8854586 L12.0624404,19.8854586 L11.933423,19.7715667 L5.82397314,13.6621168 C5.2534959,13.0916396 5.2534959,12.1667132 5.82397314,11.596236 C6.34328035,11.0769287 7.16341087,11.0264741 7.76083663,11.482344 L7.76083663,11.482344 L7.8898517,11.5962337 L12.9655398,16.6713042 Z"></path>
            </g>
        </g>
    </g>
</svg>