<svg viewBox="0 0 29 29" version="1.1" xmlns="http://www.w3.org/2000/svg" xmlns:xlink="http://www.w3.org/1999/xlink">
        <g stroke="none" stroke-width="1" fill="none" fill-rule="evenodd">
        <g transform="translate(-1085.000000, -514.000000)" fill="currentColor" fill-rule="nonzero">
            <g transform="translate(1075.633333, 504.308018)">
                <g transform="translate(10.000000, 10.000000)">
                    <path d="M14.109317,6.26561525 L14.6591815,6.27959769 C15.7544204,6.3355497 16.8074941,6.55949275 17.8356156,6.95304698 C18.9894215,7.39326829 20.0291847,8.02437723 20.9231405,8.8276938 C21.819644,9.63151699 22.5269282,10.5723087 23.0217549,11.6193338 C23.4634514,12.5519751 23.7187318,13.5345362 23.7826549,14.5447806 L23.7986471,15.0521068 L23.798,24.8216299 L24.8169293,24.8224545 C25.571528,24.8224545 26.1963444,25.3350602 26.2952402,26.0257177 L26.3088748,26.218242 C26.3088748,26.9314651 25.7534369,27.5085442 25.0468255,27.5997711 L24.850669,27.6140295 L3.14933104,27.6140295 C2.35221936,27.6140295 1.6911252,26.9963121 1.6911252,26.218242 C1.6911252,25.5122703 2.24007694,24.9277308 2.92556482,24.8352102 L3.1155914,24.8224545 L4.398,24.8216299 L4.38186193,15.0571686 C4.38186193,14.0378839 4.57420079,13.0405807 4.95323349,12.0910187 L5.15828153,11.6203353 C5.4868251,10.9226283 5.91065483,10.2715073 6.42877971,9.67055238 L6.83503823,9.22929825 L7.2559569,8.82744795 C7.85881164,8.28771798 8.52519993,7.82505166 9.24690957,7.4462029 L9.79843624,7.17788765 L10.3435501,6.95291654 C11.3743002,6.56051045 12.4593478,6.33329481 13.5586584,6.27856976 L14.109317,6.26561525 Z M14.1096541,9.01336495 C12.2964013,9.01336495 10.5889337,9.65211493 9.30334862,10.8086689 C8.13367742,11.8582272 7.44909906,13.2120638 7.34312519,14.6570998 L7.32863905,15.0533016 L7.338,24.8216299 L20.85,24.8216299 L20.856929,15.0537944 C20.856929,13.7186174 20.3673329,12.4429859 19.4629287,11.397959 L19.179238,11.0915401 L18.8831821,10.80953 C17.5718366,9.63894475 15.8715956,8.99861556 14.1096541,9.01336495 Z M14.6916627,12.3011408 L14.6916627,17.2507463 L17.1681524,17.2507463 L13.7334568,23.1012003 L13.7334568,18.3776503 L11.169244,18.3776503 L14.6916627,12.3011408 Z M1.60317798,7.29751113 C1.60479956,7.29844007 1.6064183,7.29937397 1.60803417,7.3003128 L4.52871366,8.99464843 L3.60955775,10.594024 L0.688020172,8.89736343 C0.247708234,8.6419452 0.0969926807,8.07846498 0.350996338,7.63733657 L0.351827885,7.63733588 C0.603538773,7.19794559 1.16378769,7.04579913 1.60317798,7.29751113 Z M27.6468284,7.63196644 L27.6491256,7.6373358 C27.9028942,8.0792281 27.7523381,8.64310437 27.312074,8.89968753 L24.3921418,10.591726 L23.4729859,8.99160312 L26.3929181,7.29801476 C26.8315196,7.04492085 27.3922103,7.1942484 27.6468284,7.63196644 Z M21.8754841,2.02289011 L21.8756826,2.02300379 L21.8812769,2.02314462 C22.3215308,2.2797383 22.4720747,2.84360959 22.2183008,3.28549636 L20.532379,6.21688687 L18.9391477,5.29465881 L20.6242668,2.36321305 C20.8758028,1.92372036 21.4359914,1.77135248 21.8754841,2.02289011 Z M7.37554353,2.35833347 C7.37589724,2.3589447 7.37625023,2.35955633 7.37660253,2.36016838 L9.06252433,5.29158657 L7.46929307,6.21461727 L5.78182131,3.28242405 C5.52831086,2.84144786 5.67898213,2.2785043 6.11887282,2.02311679 L6.11962119,2.02314463 C6.55899487,1.76889077 7.12129078,1.91896006 7.37554353,2.35833347 Z M13.9977644,0.385970486 C14.5492303,0.385970486 14.995025,0.801126724 14.995025,1.31664006 L14.995025,4.63872028 L13.0004207,4.63872028 L13.0004207,1.31431519 C13.0004484,0.801126724 13.4462432,0.385970486 13.9977644,0.385970486 Z"></path>
                </g>
            </g>
        </g>
    </g>
</svg>