<svg viewBox="0 0 29 29" version="1.1" xmlns="http://www.w3.org/2000/svg" xmlns:xlink="http://www.w3.org/1999/xlink">
        <g stroke="none" stroke-width="1" fill="none" fill-rule="evenodd">
        <g transform="translate(-542.000000, -1028.000000)" fill="currentColor" fill-rule="nonzero">
            <g transform="translate(542.658325, 1028.026727)">
                <path d="M6.48790272,0.783597092 L6.2693238,1.04320235 L6.13651863,1.24920061 L6.02064929,1.48812567 C5.64705367,2.37536968 5.8350089,3.37227884 6.50881006,4.03747646 L16.68,14.076 L6.51164842,23.9589385 L6.3287665,24.1639279 C5.60516675,25.1211512 5.68173227,26.3990008 6.48790272,27.2155981 C7.38066329,28.1199055 8.83747471,28.129266 9.74178209,27.2365055 L21.4913226,15.636991 L21.6728254,15.4329197 C22.4015996,14.4663764 22.3151785,13.1755406 21.4913226,12.3622043 L9.74178209,0.762689753 L9.51916654,0.570841423 C8.56599719,-0.129176094 7.29010888,-0.0289846595 6.48790272,0.783597092 Z" transform="translate(13.999954, 14.001968) scale(-1, 1) translate(-13.999954, -14.001968) "></path>
            </g>
        </g>
    </g>
</svg>