<svg viewBox="0 0 29 29" version="1.1" xmlns="http://www.w3.org/2000/svg" xmlns:xlink="http://www.w3.org/1999/xlink">
        <g stroke="none" stroke-width="1" fill="none" fill-rule="evenodd">
        <g transform="translate(-870.000000, -719.000000)" fill="currentColor" fill-rule="nonzero">
            <g transform="translate(870.933317, 719.756682)">
                <path d="M25.4269,0.240497294 C26.7213174,0.240497294 27.7859678,1.22424662 27.9139928,2.48488682 L27.9269,2.74049729 L27.9269,18.2259863 C27.9269,19.5204037 26.9431507,20.5850541 25.6825105,20.7130791 L25.4269,20.7259863 L15.354,20.7255027 L15.3541,24.7594973 L21.25,24.7595027 C21.6642136,24.7595027 22,25.0952891 22,25.5095027 L22,27.0095027 C22,27.4237163 21.6642136,27.7595027 21.25,27.7595027 L6.75,27.7595027 C6.33578644,27.7595027 6,27.4237163 6,27.0095027 L6,25.5095027 C6,25.0952891 6.33578644,24.7595027 6.75,24.7595027 L12.3551,24.7594973 L12.3553685,19.2259863 C12.3553685,18.4665948 12.9196762,17.8390044 13.6518273,17.7396795 L13.8553685,17.7259863 L24.926,17.7255027 L24.926,3.23950271 L3.072,3.23950271 L3.072,17.7255027 L4.326,17.7255027 L9.56595808,10.923317 C9.96512778,10.4050307 10.6470402,10.2114436 11.2494729,10.4225378 L11.4468433,10.5080004 L14.484,12.0895027 L17.4242584,9.04277538 L17.4410417,9.02719259 C17.2772988,8.62467304 17.1870886,8.18440622 17.1870886,7.72306968 C17.1870886,5.81049355 18.7375379,4.26004425 20.650114,4.26004425 C22.5626901,4.26004425 24.1131394,5.81049355 24.1131394,7.72306968 C24.1131394,9.63564581 22.5626901,11.1860951 20.650114,11.1860951 C20.3038718,11.1860951 19.9694977,11.1352815 19.6540422,11.0407047 L19.5835978,11.1253828 L15.867066,14.9788471 C15.4569382,15.4040858 14.8415364,15.5443521 14.2957683,15.354771 L14.0949062,15.2681288 L11.176,13.7475027 L6.2531786,20.1412551 C6.01653487,20.4485159 5.67221179,20.6497387 5.29468683,20.7082779 L5.06478345,20.7259863 L2.57309998,20.7259863 C1.2786826,20.7259863 0.214032185,19.742237 0.0860072005,18.4815968 L0.0730999823,18.2259863 L0.0730999823,2.74049729 C0.0730999823,1.44607991 1.05684931,0.381429496 2.3174895,0.253404512 L2.57309998,0.240497294 L25.4269,0.240497294 Z M20.650114,6.26004425 C19.8421074,6.26004425 19.1870886,6.91506305 19.1870886,7.72306968 C19.1870886,8.53107631 19.8421074,9.1860951 20.650114,9.1860951 C21.4581206,9.1860951 22.1131394,8.53107631 22.1131394,7.72306968 C22.1131394,6.91506305 21.4581206,6.26004425 20.650114,6.26004425 Z"></path>
            </g>
        </g>
    </g>
</svg>