<svg viewBox="0 0 51 51" version="1.1" xmlns="http://www.w3.org/2000/svg" xmlns:xlink="http://www.w3.org/1999/xlink">
        <g stroke="none" stroke-width="1" fill="none" fill-rule="evenodd">
        <g transform="translate(-906.000000, -1909.000000)">
            <g transform="translate(906.291667, 1909.764423)">
                <path d="M5,0 L45,0 C47.7614237,0 50,2.23857625 50,5 L50,45 C50,47.7614237 47.7614237,50 45,50 L5,50 C2.23857625,50 0,47.7614237 0,45 L0,5 C0,2.23857625 2.23857625,0 5,0 Z" fill="#2688E8"></path>
                <path d="M31.3011791,17.1864643 C33.5718458,19.5027835 33.8686841,23.0196589 31.937543,25.145545 L31.8112504,25.2793258 L25.372317,31.8486901 C25.3706363,31.8509435 25.3689405,31.8531893 25.3672297,31.8554273 L25.3083652,31.9232051 L23.7593987,33.4978215 C22.2042452,35.1145014 19.6056098,35.2361897 18.0374088,33.6045211 C16.4945535,31.9992241 16.3589173,29.5033278 17.7358276,27.9292403 L17.8540736,27.800239 L23.9138187,21.5203046 C23.916473,21.5167799 23.9191642,21.5132741 23.9218923,21.5097879 L23.9815215,21.4426819 L24.877241,20.5525109 C25.8910659,19.544966 27.530952,19.5415309 28.5424397,20.546753 C29.5198785,21.5181372 29.5520198,23.0750325 28.6427128,24.0911439 L28.5378046,24.2017625 L24.5250279,28.1896826 C24.2452167,28.4677605 23.7929582,28.4663554 23.5148802,28.1865442 C23.2581929,27.928257 23.239645,27.5230323 23.4583894,27.2435026 L23.5180186,27.1763966 L27.5303962,23.1888734 C27.9849681,22.7364048 27.9862922,22.008108 27.5354303,21.560039 C27.1087272,21.135979 26.4279461,21.1124078 25.9678219,21.4902477 L25.8842503,21.5657969 L25.1655737,22.278194 L25.1545423,22.2927794 L18.8832535,28.7909972 C17.9312493,29.7823964 17.9970748,31.5009618 19.0673945,32.6145991 C20.0175416,33.6032 21.6028073,33.5645895 22.6277846,32.6077602 L22.7354052,32.5017341 L22.7965737,32.438194 L22.8300251,32.4004062 L30.7912492,24.279119 C32.2812558,22.7600941 32.0845893,20.0263408 30.2808901,18.1863776 C28.5318017,16.4011711 25.9654684,16.1669142 24.4644165,17.5533624 L24.3481599,17.6661872 L22.1911,19.8663222 L19.9782261,22.2347047 C19.708904,22.5229533 19.2569036,22.5382962 18.968655,22.2689741 C18.7025794,22.0203691 18.6690388,21.6161092 18.8772822,21.3286711 L18.9343856,21.259403 L21.1591019,18.8786467 L23.3281587,16.6659804 C25.4063722,14.5472931 28.9769027,14.8141922 31.3011791,17.1864643 Z" stroke="#FFFFFF" stroke-width="0.1" fill="#FFFFFF" fill-rule="nonzero"></path>
            </g>
        </g>
    </g>
</svg>