<svg viewBox="0 0 29 29" version="1.1" xmlns="http://www.w3.org/2000/svg" xmlns:xlink="http://www.w3.org/1999/xlink">
        <g stroke="none" stroke-width="1" fill="none" fill-rule="evenodd">
        <g transform="translate(-1086.000000, -822.000000)" fill="currentColor" fill-rule="nonzero">
            <g transform="translate(1086.950000, 822.770046)">
                <path d="M11.0056152,14.995493 C12.1101847,14.995493 13.0056152,15.8909235 13.0056152,16.995493 L13.0056152,26 C13.0056152,27.1045695 12.1101847,28 11.0056152,28 L2,28 C0.8954305,28 -2.27373675e-13,27.1045695 -2.27373675e-13,26 L-2.27373675e-13,16.995493 C-2.27373675e-13,15.8909235 0.8954305,14.995493 2,14.995493 L11.0056152,14.995493 Z M26,14.995493 C27.1045695,14.995493 28,15.8909235 28,16.995493 L28,26 C28,27.1045695 27.1045695,28 26,28 L16.9943848,28 C15.8898153,28 14.9943848,27.1045695 14.9943848,26 L14.9943848,16.995493 C14.9943848,15.8909235 15.8898153,14.995493 16.9943848,14.995493 L26,14.995493 Z M10.004,17.994 L2.998,17.994 L2.998,25 L10.004,25 L10.004,17.994 Z M25,17.994 L17.994,17.994 L17.994,25 L25,25 L25,17.994 Z M11.0056152,-4.54747351e-13 C12.1101847,-4.54747351e-13 13.0056152,0.8954305 13.0056152,2 L13.0056152,11.004507 C13.0056152,12.1090765 12.1101847,13.004507 11.0056152,13.004507 L2,13.004507 C0.8954305,13.004507 -2.27373675e-13,12.1090765 -2.27373675e-13,11.004507 L-2.27373675e-13,2 C-2.27373675e-13,0.8954305 0.8954305,-4.54747351e-13 2,-4.54747351e-13 L11.0056152,-4.54747351e-13 Z M26,-4.54747351e-13 C27.1045695,-4.54747351e-13 28,0.8954305 28,2 L28,11.004507 C28,12.1090765 27.1045695,13.004507 26,13.004507 L16.9943848,13.004507 C15.8898153,13.004507 14.9943848,12.1090765 14.9943848,11.004507 L14.9943848,2 C14.9943848,0.8954305 15.8898153,-4.54747351e-13 16.9943848,-4.54747351e-13 L26,-4.54747351e-13 Z M10.004,2.998 L2.998,2.998 L2.998,10.004 L10.004,10.004 L10.004,2.998 Z M25,2.998 L17.994,2.998 L17.994,10.004 L25,10.004 L25,2.998 Z"></path>
            </g>
        </g>
    </g>
</svg>