<svg viewBox="0 0 29 29" version="1.1" xmlns="http://www.w3.org/2000/svg" xmlns:xlink="http://www.w3.org/1999/xlink">
        <g stroke="none" stroke-width="1" fill="none" fill-rule="evenodd">
        <g transform="translate(-1301.000000, -410.000000)" fill-rule="nonzero">
            <g transform="translate(1291.783333, 400.500000)">
                <path d="M34.5063565,12.782935 L37.8583997,33.9469028 C37.9997935,34.8396282 37.4271873,35.6721714 36.579448,35.8064401 L31.629895,36.5903723 C30.7821557,36.724641 29.9803049,36.1097904 29.8389111,35.217065 L27.665702,21.496224 L27.666697,34.8584369 C27.666697,35.761341 26.9709022,36.4932894 26.1125957,36.4932894 L21.1013458,36.4932894 C20.2430394,36.4932894 19.5472445,35.761341 19.5472445,34.8584369 L19.5472445,13.4531615 C19.5472445,12.5502574 20.2430394,11.8183091 21.1013458,11.8183091 L26.1125957,11.8183091 C26.5736924,11.8183091 26.9878879,12.0295508 27.2725011,12.3650569 C27.4214527,12.2809067 27.5875529,12.2217946 27.7658195,12.1935599 L32.7153726,11.4096277 C33.5631119,11.275359 34.3649627,11.8902096 34.5063565,12.782935 Z M16.6240532,11.8183091 C17.4823597,11.8183091 18.1781545,12.5502574 18.1781545,13.4531615 L18.1781545,34.8584369 C18.1781545,35.761341 17.4823597,36.4932894 16.6240532,36.4932894 L11.6128033,36.4932894 C10.7544969,36.4932894 10.058702,35.761341 10.058702,34.8584369 L10.058702,13.4531615 C10.058702,12.5502574 10.7544969,11.8183091 11.6128033,11.8183091 L16.6240532,11.8183091 Z M32.331096,13.9559481 L28.9173276,14.4966359 L32.0133308,34.0440309 L35.4270992,33.5033431 L32.331096,13.9559481 Z M15.845702,27.9983091 L12.389702,27.9983091 L12.389854,34.0399684 L15.8461754,34.0399684 L15.845702,27.9983091 Z M25.334702,27.9983091 L21.876702,27.9983091 L21.8776427,34.0399684 L25.3355182,34.0399684 L25.334702,27.9983091 Z M14.1184283,29.8027861 C14.5170816,29.8027861 14.8402539,30.1259585 14.8402539,30.5246118 C14.8402539,30.9232651 14.5170816,31.2464374 14.1184283,31.2464374 C13.719775,31.2464374 13.3966026,30.9232651 13.3966026,30.5246118 C13.3966026,30.1259585 13.719775,29.8027861 14.1184283,29.8027861 Z M23.6069708,29.8027861 C24.0056241,29.8027861 24.3287964,30.1259585 24.3287964,30.5246118 C24.3287964,30.9232651 24.0056241,31.2464374 23.6069708,31.2464374 C23.2083175,31.2464374 22.8851451,30.9232651 22.8851451,30.5246118 C22.8851451,30.1259585 23.2083175,29.8027861 23.6069708,29.8027861 Z M25.3355182,14.2696976 L21.8776427,14.2696976 L21.876702,26.1933091 L25.334702,26.1933091 L25.3355182,14.2696976 Z M15.8461754,14.2696976 L12.389854,14.2696976 L12.389702,26.1933091 L15.845702,26.1933091 L15.8461754,14.2696976 Z" fill="currentColor"></path>
                <polygon fill="currentColor" transform="translate(32.693380, 26.804261) rotate(-9.000000) translate(-32.693380, -26.804261) " points="30.8890574 25.9020992 34.497703 25.9020992 34.497703 27.706422 30.8890574 27.706422"></polygon>
                <circle fill="currentColor" transform="translate(33.236606, 30.231055) rotate(3.000000) translate(-33.236606, -30.231055) " cx="33.2366057" cy="30.2310552" r="1"></circle>
            </g>
        </g>
    </g>
</svg>