<svg viewBox="0 0 29 29" version="1.1" xmlns="http://www.w3.org/2000/svg" xmlns:xlink="http://www.w3.org/1999/xlink">
        <g stroke="none" stroke-width="1" fill="none" fill-rule="evenodd">
        <g transform="translate(-1085.000000, -410.000000)" fill="currentColor" fill-rule="nonzero">
            <g transform="translate(1075.716667, 400.500000)">
                <g transform="translate(10.000000, 10.000000)">
                    <path d="M22.8944505,2.23457144 C25.3453271,4.68544803 25.4298401,8.60659447 23.1479894,11.158869 L22.8944505,11.4269596 L21.5083611,12.8200814 L21.4410511,12.9161085 L21.4410511,12.9161085 L21.3068084,13.0697164 L12.9575327,21.4162928 L12.7099099,21.6375061 L12.6120712,21.7087655 L12.5825752,21.7388349 L12.5780712,21.7347655 L12.4394249,21.8398376 C10.871367,22.9129145 8.72936155,22.7379948 7.35551867,21.3641519 C5.86442592,19.8730592 5.79664897,17.4976313 7.15218784,15.9261445 L7.35551867,15.7072977 L16.0503572,7.01245909 C16.6361437,6.42667265 17.5858911,6.42667265 18.1716776,7.01245909 C18.7086485,7.54942999 18.7533961,8.39222926 18.3059203,8.98017155 L18.1716776,9.13377943 L9.47683901,17.828618 C9.08631472,18.2191423 9.08631472,18.8523073 9.47683901,19.2428316 C9.79986056,19.5658531 10.2938138,19.6236077 10.6356114,19.4417051 L20.7731301,9.30563925 C22.1399652,7.93880423 22.1399652,5.72272681 20.7731301,4.35589179 C19.4746369,3.05739852 17.4097023,2.99247385 16.0345649,4.1611178 L15.8233827,4.35589179 L5.80675625,14.37218 C3.45117621,16.72776 3.45117621,20.5469098 5.80675625,22.9024899 C7.99623874,25.0919724 11.4669939,25.2539026 13.8171573,23.3696493 L14.0832203,23.1431538 L14.3370662,22.9024899 L24.3992686,12.8402875 C24.985055,12.254501 25.9348025,12.254501 26.520589,12.8402875 C27.0575599,13.3772584 27.1023074,14.2200576 26.6548317,14.8079999 L26.520589,14.9616078 L16.4312367,25.0502822 L16.1223348,25.343282 C12.5629426,28.5592314 7.09034398,28.4287183 3.68543591,25.0238102 C0.369587082,21.7079614 0.170941761,16.4553306 3.08949994,12.907425 L3.39607122,12.5507655 L3.39018705,12.5464467 L13.7880712,2.15076552 L13.9904378,1.96297224 C16.543164,-0.300354412 20.4500577,-0.209821346 22.8944505,2.23457144 Z"></path>
                </g>
            </g>
        </g>
    </g>
</svg>