<svg viewBox="0 0 51 51" version="1.1" xmlns="http://www.w3.org/2000/svg" xmlns:xlink="http://www.w3.org/1999/xlink">
    <g stroke="none" stroke-width="1" fill="none" fill-rule="evenodd">
        <g transform="translate(-663.000000, -1909.000000)">
            <g transform="translate(663.804167, 1909.764423)">
                <path d="M5,0 L45,0 C47.7614237,0 50,2.23857625 50,5 L50,45 C50,47.7614237 47.7614237,50 45,50 L5,50 C2.23857625,50 0,47.7614237 0,45 L0,5 C0,2.23857625 2.23857625,0 5,0 Z" fill="#4F77AA"></path>
                <path d="M24.4285714,14.9626246 C29.9514189,14.9626246 34.4285714,19.4397771 34.4285714,24.9626246 C34.4285714,30.4854721 29.9514189,34.9626246 24.4285714,34.9626246 C18.9057239,34.9626246 14.4285714,30.4854721 14.4285714,24.9626246 C14.4285714,19.4397771 18.9057239,14.9626246 24.4285714,14.9626246 Z M24.4285714,16.391196 C19.6947021,16.391196 15.8571429,20.2287553 15.8571429,24.9626246 C15.8571429,29.6964938 19.6947021,33.5340531 24.4285714,33.5340531 C29.1624407,33.5340531 33,29.6964938 33,24.9626246 C33,20.2287553 29.1624407,16.391196 24.4285714,16.391196 Z M22.9256302,21.4227929 C23.1108674,21.4227929 23.2924643,21.4742438 23.4501724,21.5714085 L27.4034066,24.0070162 C27.8736132,24.2967129 28.0199455,24.9127362 27.7302488,25.3829428 C27.648321,25.5159198 27.5363836,25.6278572 27.4034066,25.709785 L23.4501724,28.1453926 C22.9799658,28.4350893 22.3639424,28.2887571 22.0742458,27.8185505 C21.977081,27.6608423 21.9256302,27.4792455 21.9256302,27.2940082 L21.9256302,22.4227929 C21.9256302,21.8705082 22.3733454,21.4227929 22.9256302,21.4227929 Z" fill="#FFFFFF" fill-rule="nonzero"></path>
            </g>
        </g>
    </g>
</svg>