<svg viewBox="0 0 40 40" version="1.1" xmlns="http://www.w3.org/2000/svg" xmlns:xlink="http://www.w3.org/1999/xlink">
    <defs>
        <circle cx="20" cy="20" r="20" id="path-1"></circle>
    </defs>
    <g stroke="none" stroke-width="1" fill="none" fill-rule="evenodd">
        <g transform="translate(-99.000000, -2152.000000)">
            <g transform="translate(99.000000, 2152.000000)">
                <mask fill="white" id="mask-2">
                    <use xlink:href="#path-1"></use>
                </mask>
                <use fill="#D6EBFF" xlink:href="#path-1"></use>
                <g mask="url(#mask-2)">
                    <g transform="translate(4.296547, 4.466756)">
                        <g transform="translate(0.000000, 22.527104)">
                            <path d="M31.4566316,5.38270833 L31.4566316,13.65375 L0,13.65375 L0,5.38270833 C0,4.14395833 0.766736842,3.02875 1.93284211,2.58083333 L8.56505263,0 L13.7423158,5.62979167 L15.3673684,2.35416667 L15.3673684,2.34791667 L15.7284211,1.61520833 L16.0949474,2.34791667 L17.7206316,5.62979167 L22.8909474,0 L29.5296842,2.58083333 C30.6898947,3.035625 31.4566316,4.14395833 31.4566316,5.38270833" fill="#72A6D9"></path>
                            <g transform="translate(13.408316, 1.548702)" fill="#1A528A">
                                <polygon points="0 12.4137931 1.32357895 5.63040494 0.753263158 4.77535777 0.334105263 4.03743174 1.95915789 0.754897071 2.32021053 0 2.68673684 0.754897071 2.68673684 0.761182642 4.31221053 4.03743174 3.88610526 4.76886268 3.31578947 5.63040494 4.64631579 12.4137931"></polygon>
                            </g>
                        </g>
                        <g transform="translate(11.071874, 18.777292)">
                            <path d="M9.29635789,2.77714583 L9.30267368,2.77714583 L9.30267368,0.111520833 C8.95846316,0.6269375 8.55909474,1.15214583 8.09383158,1.6756875 L7.45130526,2.3763125 C6.8612,3.01152083 6.02288421,3.3806875 5.15130526,3.3806875 L4.16814737,3.3806875 C3.29656842,3.3806875 2.45762105,3.01152083 1.86814737,2.3763125 L1.22541053,1.6756875 C0.755726316,1.1469375 0.351936842,0.616104167 0.00562105263,0.0944375 L0.00562105263,2.77214583 L0.0165684211,2.77714583 L4.05993684,5.03360417 L4.65656842,5.36485417 L5.25235789,5.03360417 L9.29635789,2.77714583 Z" fill="#E8C2B1"></path>
                        </g>
                        <g transform="translate(13.598189, 18.568958)" fill-opacity="0.1">
                            <path d="M6.7764,2.98547917 L6.77576842,2.98547917 L6.77576842,0.0833958333 C6.38818947,0.6669375 5.95408421,1.22339583 5.47218947,1.74110417 L4.79976842,2.4744375 C4.18250526,3.14027083 3.3044,3.52672917 2.39176842,3.52672917 L1.39008421,3.52672917 C0.956189474,3.52672917 0.529663158,3.3713125 0.1324,3.2063125 L2.97071579,5.3388125 C4.44103158,5.07235417 5.83303158,4.35402083 6.7764,2.98547917" fill="#40596B"></path>
                        </g>
                        <g transform="translate(8.124505, 11.277292)">
                            <path d="M3.00421053,2.18010417 C3.10715789,3.3440625 2.53621053,4.34489583 1.72989474,4.41447917 C0.922315789,4.4840625 0.184421053,3.59677083 0.0812631579,2.4328125 C-0.0216842105,1.26864583 0.549263158,0.268645833 1.35684211,0.1984375 C2.16336842,0.128854167 2.90189474,1.01552083 3.00421053,2.18010417" fill="#E8C2B1"></path>
                        </g>
                        <g transform="translate(20.124505, 11.277292)">
                            <path d="M3.13269474,2.43279167 C3.02953684,3.597375 2.29164211,4.48404167 1.48469474,4.41445833 C0.677536842,4.34425 0.1068,3.34425 0.209747368,2.18008333 C0.312273684,1.016125 1.0508,0.128833333 1.85774737,0.198416667 C2.66469474,0.268208333 3.23564211,1.26883333 3.13269474,2.43279167" fill="#E8C2B1"></path>
                        </g>
                        <g transform="translate(8.756084, 3.152292)">
                            <path d="M13.6600421,10.3094792 C13.5352,11.6121875 12.9124632,14.4857292 10.4097263,17.3001042 L9.7672,18.0005208 C9.17688421,18.6357292 8.33877895,19.0057292 7.46698947,19.0057292 L6.48383158,19.0057292 C5.61225263,19.0057292 4.77330526,18.6357292 4.18383158,18.0005208 L3.54130526,17.3001042 C1.03772632,14.4857292 0.421936842,11.6121875 0.290778947,10.3094792 C0.113305263,8.5128125 0.185726316,6.2296875 0.290778947,5.63947917 C0.8872,2.1828125 3.8752,0.0363541667 6.97541053,0.0363541667 C10.0749895,0.0363541667 13.0636211,2.1828125 13.6600421,5.63947917 C13.7644632,6.2296875 13.8368842,8.5128125 13.6600421,10.3094792" fill="#FCCFB5"></path>
                        </g>
                        <g transform="translate(8.213284, 1.580752)">
                            <path d="M2.40926316,3.24637294 C2.40926316,3.24637294 2.45473684,-1.12029372 8.86968421,0.275122945 C8.86968421,0.275122945 12.0538947,1.26533128 14.1012632,4.19262294 C14.1012632,4.19262294 14.5048421,4.80803961 14.8471579,5.70220628 C14.8456842,6.25887294 14.8454737,6.91762294 14.8454737,7.59824794 C14.8454737,8.15908128 14.8456842,8.70908128 14.8454737,9.26012294 C14.8471579,9.34991461 14.8471579,9.45053961 14.8456842,9.55803961 C14.7218947,9.88303961 14.6178947,10.2767896 14.5218947,10.6703313 C14.4612632,10.9188729 14.1002105,10.9072063 14.0562105,10.6555396 C13.9526316,10.0644979 13.8372632,9.40512294 13.7477895,8.88928961 C13.5707368,7.86199794 13.124,6.89928961 12.4372632,6.10887294 L12.4172632,6.08616461 C11.3063158,4.81324794 9.56821053,4.21783128 7.92252632,4.63720628 C7.13873684,4.83658128 6.24610526,5.22803961 5.26421053,5.92158128 C5.26421053,5.92158128 2.59157895,4.14699794 1.27136842,7.25408128 C1.27136842,7.25408128 1.09557895,9.28095628 1.09157895,10.9907479 C1.09115789,11.1851229 0.819578947,11.2367896 0.745894737,11.0567896 C0.507157895,10.4738729 0.252631579,9.63553961 0.0237894737,8.72220628 C0.0345263158,8.34074794 0.00315789474,7.90220628 0.00147368421,7.51178961 C-0.00189473684,6.54866461 0.00231578947,5.63533128 0,4.82053961 C0.365894737,3.97158128 1.05978947,3.36053961 2.40926316,3.24637294" fill="#1A528A"></path>
                        </g>
                        <g transform="translate(15.728526, 21.548167)">
                            <polygon fill="#F2F2F2" points="7.16252632 0.978958333 2.32610526 7.25708333 0 2.59395833 0.596421053 2.26270833 4.63978947 0.00625 4.64610526 0.00625 4.65242105 0"></polygon>
                        </g>
                        <g transform="translate(8.545558, 21.485625)">
                            <polygon fill="#F2F2F2" points="0.0194105263 1.0415 4.86277895 7.319625 7.18277895 2.6565 6.58614737 2.32525 2.54277895 0.0687916667 2.52951579 0.0625416667"></polygon>
                        </g>
                        <g transform="translate(13.742505, 24.142229)">
                            <polygon fill="#143352" points="3.97810526 4.01458333 3.552 4.63020833 1.99221053 1.4725 0.419157895 4.63645833 0 4.01458333 1.62484211 0.732708333 1.98589474 0 2.35242105 0.732708333 2.35242105 0.738958333"></polygon>
                        </g>
                        <g transform="translate(6.914593, 0.000000)">
                            <path d="M1.64216442,8.927875 C1.64216442,8.927875 0.849532846,7.097875 1.5099539,6.026 C2.17058548,4.954125 10.2015328,1.76454167 10.2015328,1.76454167 L15.9874276,5.924125 C15.9874276,5.924125 16.6377434,8.35266667 15.4853223,8.95391667 C13.4758486,10.0024583 1.64216442,8.927875 1.64216442,8.927875" fill="#4D8CC9"></path>
                            <path d="M1.29860653,7.90829167 L16.1457644,7.90829167 L16.1457644,8.88266667 C16.1457644,8.88266667 14.1996592,11.2285 8.72218548,11.2285 C3.80850127,11.2285 1.29860653,9.06308333 1.29860653,9.06308333 L1.29860653,7.90829167 Z" fill="#72A6D9"></path>
                            <path d="M17.1633223,4.36083333 C15.8898486,3.03625 10.7826907,0 8.72205916,0 C6.66163811,0 1.55448021,3.03625 0.281217056,4.36083333 C-0.0728882067,4.72895833 -0.093730312,5.295625 0.225217056,5.69354167 L1.24648021,6.96729167 C1.27953285,7.00854167 1.32963811,7.0325 1.38269074,7.0325 L8.72205916,7.0325 L16.0618486,7.0325 C16.1149013,7.0325 16.1650065,7.00854167 16.1980592,6.96729167 L17.2193223,5.69354167 C17.5380592,5.295625 17.5174276,4.72895833 17.1633223,4.36083333" fill="#72A6D9"></path>
                            <path d="M8.70877495,2.3843125 C8.20393285,2.6168125 8.31824864,2.7718125 7.17888021,2.90722917 C7.17888021,4.0736875 7.5043539,5.0968125 8.70877495,5.8330625 C9.91298548,5.0968125 10.2386697,4.0736875 10.2386697,2.90722917 C9.09909074,2.77139583 9.21340653,2.61639583 8.70877495,2.3843125" fill="#FFFFFF"></path>
                        </g>
                    </g>
                </g>
            </g>
        </g>
    </g>
</svg>