<svg viewBox="0 0 40 40" version="1.1" xmlns="http://www.w3.org/2000/svg" xmlns:xlink="http://www.w3.org/1999/xlink">
    <defs>
        <circle cx="20" cy="20" r="20" id="path-1"></circle>
    </defs>
    <g stroke="none" stroke-width="1" fill="none" fill-rule="evenodd">
        <g transform="translate(-170.000000, -2152.000000)">
            <g transform="translate(170.000000, 2152.000000)">
                <mask fill="white" id="mask-2">
                    <use xlink:href="#path-1"></use>
                </mask>
                <use fill="#D6EBFF" xlink:href="#path-1"></use>
                <g mask="url(#mask-2)">
                    <g transform="translate(4.296547, 5.806952)">
                        <g transform="translate(7.279637, 1.754310)">
                            <path d="M11.5108687,21.825877 C10.429816,27.0319187 5.75023708,26.7504604 4.71550023,21.535252 C3.12918444,13.5410854 2.05023708,14.9537937 1.15107918,13.565877 C0.146868655,12.015877 -0.115447135,9.4519187 0.0426581286,7.61150203 C0.418447602,3.2437937 4.10413181,-0.0330813028 8.53318444,0 C8.58328971,0 8.63276339,0.000877030488 8.68223708,0.00233536382 C12.8557108,0.0667103638 16.2746581,3.27108536 16.7268687,7.37671036 C17.0792897,10.5760854 14.8047634,13.897127 14.0032897,15.7600437 C13.3677108,17.2367104 11.9226581,19.8431687 11.5108687,21.825877" fill="#1A528A"></path>
                        </g>
                        <g transform="translate(19.273789, 16.091766)">
                            <path d="M3.02,0.158109289 C3.02,0.158109289 4.66421053,1.00519262 4.66421053,2.51144262 C4.66421053,4.01748429 3.40568421,5.10623429 1.99894737,4.55248429 C0.858315789,4.10331762 0,2.35456762 0,2.35456762 C0,2.35456762 0.368,0.0762342893 2.28168421,0.00123428928 C2.72610526,-0.0162657107 3.02,0.158109289 3.02,0.158109289" fill="#1A528A"></path>
                        </g>
                        <g transform="translate(0.000000, 23.240625)">
                            <path d="M31.4566316,5.3825 L31.4566316,13.6535417 L0,13.6535417 L0,5.3825 C0,4.14375 0.766736842,3.02854167 1.93284211,2.58083333 L8.56505263,0 L13.7423158,5.62958333 L15.3673684,2.35395833 L15.3673684,2.34770833 L15.7284211,1.615 L16.0949474,2.34770833 L17.7206316,5.62958333 L22.8909474,0 L29.5296842,2.58083333 C30.6898947,3.03541667 31.4566316,4.14375 31.4566316,5.3825" fill="#72A6D9"></path>
                        </g>
                        <g transform="translate(11.071874, 19.490667)">
                            <path d="M9.29635789,2.7770625 L9.30267368,2.7770625 L9.30267368,0.1114375 C8.95846316,0.6270625 8.55909474,1.1520625 8.09383158,1.6758125 L7.45130526,2.37622917 C6.8612,3.0114375 6.02288421,3.38060417 5.15130526,3.38060417 L4.16814737,3.38060417 C3.29656842,3.38060417 2.45762105,3.0114375 1.86814737,2.37622917 L1.22541053,1.6758125 C0.755726316,1.1470625 0.351936842,0.616229167 0.00562105263,0.0943541667 L0.00562105263,2.7720625 L0.0165684211,2.7770625 L4.05993684,5.03352083 L4.65656842,5.36497917 L5.25235789,5.03352083 L9.29635789,2.7770625 Z" fill="#E8C2B1"></path>
                        </g>
                        <g transform="translate(13.808716, 19.490667)" fill-opacity="0.1">
                            <path d="M0.262021053,3.1445 C0.2576,3.14241667 0.254442105,3.14179167 0.249810526,3.14054167 C0.243494737,3.13825 0.236547368,3.13616667 0.230021053,3.13366667 C0.222863158,3.13116667 0.215284211,3.12991667 0.206863158,3.12741667 L2.67802105,4.943875 L6.55949474,2.777625 L6.56349474,2.777625 L6.56517895,0.125541667 C6.55886316,0.135541667 5.64412632,1.32116667 5.35696842,1.6745 L4.71444211,2.37616667 C4.12517895,3.01075 3.28602105,3.381375 2.41444211,3.381375 L1.43128421,3.381375 C1.2336,3.381375 1.03886316,3.35908333 0.847494737,3.31991667 C0.646021053,3.28054167 0.451284211,3.22095833 0.262021053,3.1445" fill="#40596B"></path>
                        </g>
                        <g transform="translate(8.124505, 11.990667)">
                            <path d="M3.00421053,2.18014583 C3.10715789,3.34410417 2.53621053,4.3449375 1.72989474,4.41452083 C0.922315789,4.48410417 0.184421053,3.59702083 0.0812631579,2.43285417 C-0.0216842105,1.2686875 0.549263158,0.2686875 1.35684211,0.198270833 C2.16336842,0.1286875 2.90189474,1.01535417 3.00421053,2.18014583" fill="#E8C2B1"></path>
                        </g>
                        <g transform="translate(20.124505, 11.990667)">
                            <path d="M3.13269474,2.43283333 C3.02953684,3.59741667 2.29164211,4.48408333 1.48469474,4.4145 C0.677536842,4.34429167 0.1068,3.34408333 0.209747368,2.180125 C0.312273684,1.01595833 1.0508,0.128666667 1.85774737,0.19825 C2.66469474,0.268041667 3.23564211,1.26866667 3.13269474,2.43283333" fill="#E8C2B1"></path>
                        </g>
                        <g transform="translate(8.756084, 3.865667)">
                            <path d="M13.6600421,10.309625 C13.5352,11.6123333 12.9124632,14.4856667 10.4097263,17.30025 L9.7672,18.0006667 C9.17688421,18.635875 8.33877895,19.0056667 7.46698947,19.0056667 L6.48383158,19.0056667 C5.61225263,19.0056667 4.77330526,18.635875 4.18383158,18.0006667 L3.54130526,17.30025 C1.03772632,14.4856667 0.421936842,11.6123333 0.290778947,10.309625 C0.113305263,8.51275 0.185726316,6.229625 0.290778947,5.63941667 C0.8872,2.18275 3.8752,0.0362916667 6.97541053,0.0362916667 C10.0749895,0.0362916667 13.0636211,2.18275 13.6600421,5.63941667 C13.7644632,6.229625 13.8368842,8.51275 13.6600421,10.309625" fill="#FCCFB5"></path>
                        </g>
                        <g transform="translate(15.703453, 22.199000)">
                            <polygon fill="#F2F2F2" points="7.1876 1.041625 2.35117895 7.31975 0.0250736842 2.656625 0.621494737 2.32516667 4.66486316 0.0687083333 4.67117895 0.0687083333 4.67749474 0.0624583333"></polygon>
                        </g>
                        <g transform="translate(8.545558, 22.199000)">
                            <polygon fill="#F2F2F2" points="0.0194105263 1.041625 4.86277895 7.31975 7.18277895 2.656625 6.58614737 2.32516667 2.54277895 0.0687083333 2.52951579 0.0624583333"></polygon>
                        </g>
                        <g transform="translate(13.408316, 24.855625)">
                            <polygon fill="#1A528A" points="0 12.3433333 1.32357895 5.59854167 0.753263158 4.748125 0.334105263 4.01458333 1.95915789 0.750416667 2.32021053 0 2.68673684 0.750416667 2.68673684 0.756875 4.31221053 4.01458333 3.88610526 4.74166667 3.31578947 5.59854167 4.64631579 12.3433333"></polygon>
                        </g>
                        <g transform="translate(13.742505, 24.855521)">
                            <polygon fill="#143352" points="3.97810526 4.01458333 3.552 4.63020833 1.99221053 1.4725 0.419157895 4.63645833 0 4.01458333 1.62484211 0.732708333 1.98589474 0 2.35242105 0.732708333 2.35242105 0.738958333"></polygon>
                        </g>
                        <g transform="translate(7.959067, 2.638264)">
                            <path d="M13.5425751,14.9065697 C13.5425751,14.9065697 15.3747856,7.6857364 9.70194352,5.23365306 C9.70194352,5.23365306 7.71878563,8.7757364 4.19436457,9.04865306 C4.19436457,9.04865306 2.83731194,9.07781973 1.9345751,8.2676114 C1.9345751,8.2676114 -1.25826701,12.5365697 0.559627731,5.23365306 C0.559627731,5.23365306 1.82636457,-1.08905527 10.1973119,0.164486398 C10.1973119,0.164486398 15.5402593,1.0913614 15.429733,8.1763614 C15.429733,8.1763614 14.5554172,13.8536531 13.5425751,14.9065697" fill="#1A528A"></path>
                        </g>
                        <g transform="translate(8.076357, 2.638363)">
                            <path d="M13.496843,7.14828306 C13.496843,7.14828306 16.6896851,12.5364081 14.8717904,5.23369973 C14.8717904,5.23369973 13.6054746,-1.08921694 5.23410617,0.164533059 C5.23410617,0.164533059 -0.108630671,1.09119973 0.00168511838,8.17640806 C0.00168511838,8.17640806 0.869053539,13.8541164 1.88168512,14.9070331 C1.88168512,14.9070331 0.0566324868,7.68557473 5.72947459,5.23369973 C5.72947459,5.23369973 8.12189564,5.21599139 10.9810535,6.40703306 L13.496843,7.14828306 Z" fill="#1A528A"></path>
                        </g>
                        <g transform="translate(6.914593, 0.000000)">
                            <path d="M1.64216442,8.92789583 C1.64216442,8.92789583 0.849532846,7.09789583 1.5099539,6.02602083 C2.17058548,4.95414583 10.2015328,1.7645625 10.2015328,1.7645625 L15.9874276,5.92414583 C15.9874276,5.92414583 16.6377434,8.3526875 15.4853223,8.95414583 C13.4758486,10.0024792 1.64216442,8.92789583 1.64216442,8.92789583" fill="#4D8CC9"></path>
                            <path d="M1.29860653,7.90839583 L16.1457644,7.90839583 L16.1457644,8.88277083 C16.1457644,8.88277083 14.1996592,11.2286042 8.72218548,11.2286042 C3.80850127,11.2286042 1.29860653,9.0631875 1.29860653,9.0631875 L1.29860653,7.90839583 Z" fill="#72A6D9"></path>
                            <path d="M17.1633223,4.36083333 C15.8898486,3.03645833 10.7826907,0 8.72205916,0 C6.66163811,0 1.55448021,3.03645833 0.281217056,4.36083333 C-0.0728882067,4.72895833 -0.093730312,5.295625 0.225217056,5.69354167 L1.24648021,6.9675 C1.27953285,7.00854167 1.32963811,7.0325 1.38269074,7.0325 L8.72205916,7.0325 L16.0618486,7.0325 C16.1149013,7.0325 16.1650065,7.00854167 16.1980592,6.9675 L17.2193223,5.69354167 C17.5380592,5.295625 17.5174276,4.72895833 17.1633223,4.36083333" fill="#72A6D9"></path>
                            <path d="M8.70877495,2.3843125 C8.20393285,2.6168125 8.31824864,2.7718125 7.17888021,2.9074375 C7.17888021,4.0736875 7.5043539,5.0968125 8.70877495,5.8330625 C9.91298548,5.0968125 10.2386697,4.0736875 10.2386697,2.9074375 C9.09909074,2.77139583 9.21340653,2.61639583 8.70877495,2.3843125" fill="#FFFFFF"></path>
                        </g>
                    </g>
                </g>
            </g>
        </g>
    </g>
</svg>