<svg viewBox="0 0 29 29" version="1.1" xmlns="http://www.w3.org/2000/svg" xmlns:xlink="http://www.w3.org/1999/xlink">
        <g stroke="none" stroke-width="1" fill="none" fill-rule="evenodd">
        <g transform="translate(-869.000000, -1697.000000)" fill="currentColor">
            <g transform="translate(869.916667, 1697.334746)">
                <path d="M5.73894103,17.5 C5.58882603,17.5 5.44416415,17.4437289 5.33350625,17.3422925 C5.12413077,17.150365 5.08209625,16.8441007 5.21536733,16.6066867 L5.29664855,16.4945652 L12.5256917,8.60833631 C12.5648457,8.56562291 12.6058373,8.52463123 12.6485507,8.48547728 C13.400155,7.79650668 14.5359554,7.79037784 15.2932984,8.43393192 L15.4743083,8.60833631 L22.7033515,16.4945652 C22.8047879,16.6052231 22.861059,16.749885 22.861059,16.9 C22.861059,17.1840322 22.6636988,17.4219684 22.3986335,17.4841536 L22.261059,17.5 L16.5,17.5 L16.5,27 C16.5,27.5522847 16.0522847,28 15.5,28 L12.5,28 C11.9477153,28 11.5,27.5522847 11.5,27 L11.5,17.5 L5.73894103,17.5 Z M24,0 C24.8284271,0 25.5,0.671572875 25.5,1.5 C25.5,2.32842712 24.8284271,3 24,3 L4,3 C3.17157288,3 2.5,2.32842712 2.5,1.5 C2.5,0.671572875 3.17157288,0 4,0 L24,0 Z"></path>
            </g>
        </g>
    </g>
</svg>