<svg viewBox="0 0 29 29" version="1.1" xmlns="http://www.w3.org/2000/svg" xmlns:xlink="http://www.w3.org/1999/xlink">
        <g stroke="none" stroke-width="1" fill="none" fill-rule="evenodd">
        <g transform="translate(-1195.000000, -719.000000)" fill="currentColor" fill-rule="nonzero">
            <g transform="translate(1195.966683, 719.756682)">
                <path d="M26.1455922,24.9471686 C26.9692784,24.9471686 27.6370079,25.6148981 27.6370079,26.4385843 C27.6370079,27.1189312 27.1788955,27.7012129 26.5338053,27.8773443 L26.3349401,27.9176911 L26.1455922,27.93 L1.85423424,27.93 C1.03054809,27.93 0.362818534,27.2622704 0.362818534,26.4385843 C0.362818534,25.7582374 0.820930948,25.1759557 1.46602115,24.9998243 L1.66488641,24.9594775 L1.85423424,24.9471686 L26.1455922,24.9471686 Z M24.4105448,0.07 C25.9946005,0.07 27.3256508,1.21687849 27.590075,2.74847699 L27.6269564,3.03997407 L27.6371815,3.29663665 L27.6371815,18.9639466 C27.6371815,20.5480022 26.490303,21.8790525 24.9587045,22.1434767 L24.6672074,22.1803581 L24.4105448,22.1905832 L3.58962871,22.1905832 C2.00462494,22.1905832 0.674308739,21.0442546 0.410062352,19.5122408 L0.373207252,19.2206542 L0.362992056,18.9639466 L0.362992056,3.29663665 C0.362992056,1.71194704 1.50906861,0.381393666 3.04118303,0.117086238 L3.33279281,0.0802219336 L3.58962871,0.07 L24.4105448,0.07 Z M24.404,3.052 L3.58962871,3.05283142 C3.50403465,3.05283142 3.42767713,3.09692847 3.3856589,3.155901 L3.35601682,3.21874973 L3.34582347,3.29663665 L3.34582347,18.9639466 C3.34582347,19.049517 3.38991275,19.1258821 3.44887116,19.167906 L3.51170371,19.1975519 L3.58962871,19.2077518 L24.4105448,19.2077518 C24.4955406,19.2077518 24.5721356,19.1633051 24.6143426,19.1042519 L24.6441245,19.041435 L24.65435,18.9639466 L24.65435,3.29663665 C24.65435,3.21164083 24.6099033,3.13504586 24.5508501,3.09283884 L24.4880333,3.06305696 L24.404,3.052 Z M19.0315547,7.39524972 C19.618428,6.81728899 20.5627125,6.82451405 21.1406733,7.41138735 C21.6090405,7.88697718 21.6973408,8.60532348 21.3814909,9.17976954 L21.2612061,9.36539153 L21.1245356,9.52050594 L15.8685514,14.69667 C15.4048539,15.1533255 14.7092846,15.2493564 14.140933,14.9591854 L13.9344658,14.8322181 L13.7789627,14.7000001 L11.18,12.156 L8.81355715,14.5002043 C8.39165443,14.9173858 7.7773365,15.0346564 7.24212995,14.8345521 L7.04566616,14.7446018 L6.85980102,14.6246931 L6.70441021,14.488337 C6.23508099,14.0136964 6.14532651,13.2955303 6.46001266,12.720446 L6.57992143,12.5345808 L6.71627754,12.37919 L10.1277219,9.00592051 C10.5911514,8.54767692 11.2877232,8.45068622 11.8569436,8.7410058 L12.0637276,8.8680817 L12.2195167,9.00052502 L14.816,11.544 L19.0315547,7.39524972 Z"></path>
            </g>
        </g>
    </g>
</svg>