<svg viewBox="0 0 29 29" version="1.1" xmlns="http://www.w3.org/2000/svg" xmlns:xlink="http://www.w3.org/1999/xlink">
        <g stroke="none" stroke-width="1" fill="none" fill-rule="evenodd">
        <g transform="translate(-651.000000, -410.000000)" fill="currentColor" fill-rule="nonzero">
            <g transform="translate(651.700000, 410.500000)">
                <path d="M19.6893229,0.0129791613 C20.51775,0.0129791613 21.1893229,0.684552037 21.1893229,1.51297916 L21.188,2.77697916 L26,2.77792905 C27.1045695,2.77792905 28,3.67335955 28,4.77792905 L28,25.9870208 C28,27.0915903 27.1045695,27.9870208 26,27.9870208 L2,27.9870208 C0.8954305,27.9870208 0,27.0915903 0,25.9870208 L0,4.77792905 C0,3.67335955 0.8954305,2.77792905 2,2.77792905 L6.81,2.77697916 L6.81067711,1.51297916 C6.81067711,0.684552037 7.48224999,0.0129791613 8.31067711,0.0129791613 C9.13910423,0.0129791613 9.81067711,0.684552037 9.81067711,1.51297916 L9.81,2.77697916 L18.188,2.77697916 L18.1893229,1.51297916 C18.1893229,0.684552037 18.8608958,0.0129791613 19.6893229,0.0129791613 Z M25,12.6589792 L3,12.6589792 L3,24.9870208 L25,24.9870208 L25,12.6589792 Z M6.81,5.77697916 L3,5.77702084 L3,9.65897916 L25,9.65897916 L25,5.77702084 L21.188,5.77697916 L21.1893229,6.90225689 C21.1893229,7.73068402 20.51775,8.40225689 19.6893229,8.40225689 C18.8608958,8.40225689 18.1893229,7.73068402 18.1893229,6.90225689 L18.188,5.77697916 L9.81,5.77697916 L9.81067711,6.90225689 C9.81067711,7.73068402 9.13910423,8.40225689 8.31067711,8.40225689 C7.48224999,8.40225689 6.81067711,7.73068402 6.81067711,6.90225689 L6.81,5.77697916 Z"></path>
                <path d="M15.68,14.4157607 L14.624,14.4157607 C14.5610116,14.4026044 14.5140837,14.4026044 14.4832163,14.4157607 C14.4499604,14.4299349 14.4007033,14.4709307 14.3354451,14.5387479 C14.0787226,14.8061672 13.7489853,15.0617136 13.33542,15.3144479 C12.9468379,15.5299338 12.5709413,15.6847148 12.2229857,15.7717037 C12.0449189,15.8162204 11.92,15.9762136 11.92,16.1597607 L11.92,17.5517607 C11.92,17.8178452 12.1749575,18.0097603 12.4306574,17.9361497 L12.841523,17.803397 C13.1075702,17.707501 13.3579152,17.596791 13.5927031,17.4711156 L13.876,17.302 L13.876,23.3837607 C13.876,23.6046746 14.0550861,23.7837607 14.276,23.7837607 L15.68,23.7837607 C15.9009139,23.7837607 16.08,23.6046746 16.08,23.3837607 L16.08,14.8157607 C16.08,14.5948468 15.9009139,14.4157607 15.68,14.4157607 Z"></path>
            </g>
        </g>
    </g>
</svg>