<svg viewBox="0 0 29 29" version="1.1" xmlns="http://www.w3.org/2000/svg" xmlns:xlink="http://www.w3.org/1999/xlink">
        <g stroke="none" stroke-width="1" fill="none" fill-rule="evenodd">
        <g transform="translate(-326.000000, -1233.000000)" fill="currentColor">
            <g transform="translate(326.550000, 1233.482073)">
                <path d="M1.82862425,20.4166667 C2.65705137,20.4166667 3.32862425,21.0882395 3.32862425,21.9166667 C3.32862425,22.7450938 2.65705137,23.4166667 1.82862425,23.4166667 C1.00019712,23.4166667 0.328624246,22.7450938 0.328624246,21.9166667 C0.328624246,21.0882395 1.00019712,20.4166667 1.82862425,20.4166667 Z M26.1713758,20.4166667 C26.9998029,20.4166667 27.6713758,21.0882395 27.6713758,21.9166667 C27.6713758,22.7450938 26.9998029,23.4166667 26.1713758,23.4166667 L7.00209139,23.4166667 C6.17366426,23.4166667 5.50209139,22.7450938 5.50209139,21.9166667 C5.50209139,21.0882395 6.17366426,20.4166667 7.00209139,20.4166667 L26.1713758,20.4166667 Z M1.82862425,12.5 C2.65705137,12.5 3.32862425,13.1715729 3.32862425,14 C3.32862425,14.8284271 2.65705137,15.5 1.82862425,15.5 C1.00019712,15.5 0.328624246,14.8284271 0.328624246,14 C0.328624246,13.1715729 1.00019712,12.5 1.82862425,12.5 Z M26.1713758,12.5 C26.9998029,12.5 27.6713758,13.1715729 27.6713758,14 C27.6713758,14.8284271 26.9998029,15.5 26.1713758,15.5 L7.00209139,15.5 C6.17366426,15.5 5.50209139,14.8284271 5.50209139,14 C5.50209139,13.1715729 6.17366426,12.5 7.00209139,12.5 L26.1713758,12.5 Z M1.82862425,4.58333333 C2.65705137,4.58333333 3.32862425,5.25490621 3.32862425,6.08333333 C3.32862425,6.91176046 2.65705137,7.58333333 1.82862425,7.58333333 C1.00019712,7.58333333 0.328624246,6.91176046 0.328624246,6.08333333 C0.328624246,5.25490621 1.00019712,4.58333333 1.82862425,4.58333333 Z M26.1713758,4.58333333 C26.9998029,4.58333333 27.6713758,5.25490621 27.6713758,6.08333333 C27.6713758,6.91176046 26.9998029,7.58333333 26.1713758,7.58333333 L7.00209139,7.58333333 C6.17366426,7.58333333 5.50209139,6.91176046 5.50209139,6.08333333 C5.50209139,5.25490621 6.17366426,4.58333333 7.00209139,4.58333333 L26.1713758,4.58333333 Z"></path>
            </g>
        </g>
    </g>
</svg>