<svg viewBox="0 0 29 29" version="1.1" xmlns="http://www.w3.org/2000/svg" xmlns:xlink="http://www.w3.org/1999/xlink">
        <g stroke="none" stroke-width="1" fill="none" fill-rule="evenodd">
        <g transform="translate(-1086.000000, -1130.000000)" fill="currentColor" fill-rule="nonzero">
            <g transform="translate(1086.716667, 1130.578064)">
                <path d="M20.1773055,0.811587792 C20.4755393,0.295031759 21.0998285,0.0840895048 21.6401144,0.288635964 L21.816536,0.372357308 L25.6487568,2.58489101 C26.1653128,2.88312478 26.376255,3.50741403 26.1717086,4.04769993 L26.0879872,4.22412149 L20.5930429,13.7393874 L21.9639247,14.5304591 C22.3034681,14.7264945 22.522173,15.0733724 22.5585512,15.4558925 L22.5612618,15.6495894 C22.2598272,20.1667285 20.362728,24.1171283 16.9054542,27.4522388 C16.5684674,27.7773182 16.0787751,27.8727872 15.6511591,27.7123319 L15.4723219,27.6278198 L2.36121677,20.0581198 L2.05184453,19.6786117 C1.75951307,19.3043495 1.69947608,19.1353712 1.78967155,18.8098876 L1.83728542,18.6597579 L1.96630515,18.3170613 L2.19299834,18.0648234 C2.22309343,18.0352246 2.24635555,18.0166843 2.27616028,17.9960475 L2.54115375,17.8314078 L3.46907694,17.3336503 L4.22005602,16.9016595 C5.07351661,16.3906755 5.95308679,15.7939678 6.88902651,15.0678769 L7.45759676,14.616347 L7.85468336,14.2844925 C8.45032086,13.7587006 9.28832835,12.8698148 10.3557179,11.627856 L11.101151,10.7476864 L11.8434397,9.84952713 C12.174381,9.44494416 12.7225841,9.30650588 13.1979839,9.48723326 L13.3722797,9.57007047 L14.6830429,10.3273874 L20.1773055,0.811587792 Z M10.2783558,15.2830912 C10.0663211,15.4990954 9.86775068,15.6933328 9.68244378,15.8659585 L9.41440596,16.1087074 L9.20990723,16.2831964 L8.35571492,16.9675786 C7.74750575,17.4392644 7.15928273,17.8618773 6.5845324,18.2451046 L6.01403173,18.6155622 L5.35784657,19.0153258 L7.61904287,20.3193874 L8.15965638,20.0213497 C8.27946419,19.9523889 8.38107002,19.8914883 8.46405933,19.838944 L8.57452908,19.7664319 C9.07391695,19.4236554 9.41420821,19.1372703 9.61441702,18.9401568 L9.7686359,18.7740182 C10.0783813,18.3931508 10.610444,18.2995826 11.0257884,18.5282288 L11.1754092,18.6291432 C11.6038851,18.9776068 11.6687479,19.6074406 11.3202843,20.0359165 C11.0894281,20.3197806 10.6597367,20.7286493 10.0021887,21.2065093 L9.61704287,21.4733874 L11.4490429,22.5313874 L11.5782624,22.4646508 C11.9677554,22.2526874 12.246077,22.0892504 12.4067499,21.9789656 C12.9061377,21.6361891 13.246429,21.349804 13.4466378,21.1526905 L13.6008567,20.9865519 C13.9106021,20.6056845 14.4426648,20.5121163 14.8580092,20.7407625 L15.00763,20.8416769 C15.4361059,21.1901405 15.5009687,21.8199743 15.1525051,22.2484502 C14.8886695,22.5728663 14.3651307,23.0605538 13.5385681,23.6279009 L13.4470429,23.6853874 L15.8696629,25.0843258 L16.199119,24.7314093 C17.4285515,23.3625445 18.3725496,21.8974418 19.0343763,20.3316375 L10.2783558,15.2830912 Z M14.5030843,12.9949886 L13.0508407,12.1546692 L12.5205879,12.7885266 C12.2223948,13.1402835 11.9387126,13.4691002 11.6693307,13.7751393 L19.6933314,18.4040637 C19.7874253,18.0491043 19.8684746,17.689385 19.9365121,17.3248612 L20.0288135,16.7744665 L20.0985554,16.2236692 L14.5030843,12.9949886 L14.5030843,12.9949886 Z M21.6557388,3.05014248 L16.7617388,11.5267991 L18.5145742,12.5387991 L23.4085742,4.06214248 L21.6557388,3.05014248 Z"></path>
            </g>
        </g>
    </g>
</svg>