<svg viewBox="0 0 29 29" version="1.1" xmlns="http://www.w3.org/2000/svg" xmlns:xlink="http://www.w3.org/1999/xlink">
        <g stroke="none" stroke-width="1" fill="none" fill-rule="evenodd">
        <g transform="translate(-652.000000, -719.000000)" fill="currentColor" fill-rule="nonzero">
            <g transform="translate(652.883333, 719.756682)">
                <path d="M14,0 C21.7319865,0 28,6.2680135 28,14 C28,21.7319865 21.7319865,28 14,28 C6.2680135,28 0,21.7319865 0,14 C0,6.2680135 6.2680135,0 14,0 Z M14,3 C7.92486775,3 3,7.92486775 3,14 C3,20.0751322 7.92486775,25 14,25 C20.0751322,25 25,20.0751322 25,14 C25,7.92486775 20.0751322,3 14,3 Z M13.3724831,5.72854943 C14.2009103,5.72854943 14.8724831,6.4001223 14.8724831,7.22854943 L14.872,12.728 L20.3724831,12.7285494 C21.2009103,12.7285494 21.8724831,13.4001223 21.8724831,14.2285494 C21.8724831,15.0569766 21.2009103,15.7285494 20.3724831,15.7285494 L13.3724831,15.7285494 C12.544056,15.7285494 11.8724831,15.0569766 11.8724831,14.2285494 L11.8724831,7.22854943 C11.8724831,6.4001223 12.544056,5.72854943 13.3724831,5.72854943 Z"></path>
            </g>
        </g>
    </g>
</svg>