<svg viewBox="0 0 29 29" version="1.1" xmlns="http://www.w3.org/2000/svg" xmlns:xlink="http://www.w3.org/1999/xlink">
        <g stroke="none" stroke-width="1" fill="none" fill-rule="evenodd">
        <g transform="translate(-761.000000, -1697.000000)" fill="currentColor">
            <g transform="translate(761.400000, 1697.334746)">
                <path d="M14,0 C21.7319865,0 28,6.2680135 28,14 C28,21.7319865 21.7319865,28 14,28 C6.2680135,28 0,21.7319865 0,14 C0,6.2680135 6.2680135,0 14,0 Z M10.6412428,8.51992245 C10.3483496,8.22702923 9.87347584,8.22702923 9.58058262,8.51992245 L9.58058262,8.51992245 L8.51992245,9.58058262 C8.22702923,9.87347584 8.22702923,10.3483496 8.51992245,10.6412428 L8.51992245,10.6412428 L11.8789127,13.9999127 L8.51992245,17.3587572 C8.22702923,17.6516504 8.22702923,18.1265242 8.51992245,18.4194174 L8.51992245,18.4194174 L9.58058262,19.4800776 C9.87347584,19.7729708 10.3483496,19.7729708 10.6412428,19.4800776 L10.6412428,19.4800776 L13.9999127,16.1209127 L17.3587572,19.4800776 C17.6516504,19.7729708 18.1265242,19.7729708 18.4194174,19.4800776 L18.4194174,19.4800776 L19.4800776,18.4194174 C19.7729708,18.1265242 19.7729708,17.6516504 19.4800776,17.3587572 L19.4800776,17.3587572 L16.1209127,13.9999127 L19.4800776,10.6412428 C19.7729708,10.3483496 19.7729708,9.87347584 19.4800776,9.58058262 L19.4800776,9.58058262 L18.4194174,8.51992245 C18.1265242,8.22702923 17.6516504,8.22702923 17.3587572,8.51992245 L17.3587572,8.51992245 L13.9999127,11.8789127 Z"></path>
            </g>
        </g>
    </g>
</svg>