<svg viewBox="0 0 29 29" version="1.1" xmlns="http://www.w3.org/2000/svg" xmlns:xlink="http://www.w3.org/1999/xlink">
        <g stroke="none" stroke-width="1" fill="none" fill-rule="evenodd">
        <g transform="translate(-327.000000, -1028.000000)" fill="currentColor" fill-rule="nonzero">
            <g transform="translate(327.333333, 1028.026727)">
                <path d="M4.01689232,0.689189766 L13.9982412,10.6710411 L23.9831077,0.689189766 C24.9020274,-0.229729922 26.3918905,-0.229729922 27.3108102,0.689189766 C28.2297299,1.60810945 28.2297299,3.09797264 27.3108102,4.01689232 L17.3277943,13.9982412 L27.3108102,23.9831077 C28.2297299,24.9020274 28.2297299,26.3918905 27.3108102,27.3108102 C26.3918905,28.2297299 24.9020274,28.2297299 23.9831077,27.3108102 L13.9982412,17.3277943 L4.01689232,27.3108102 C3.09797264,28.2297299 1.60810945,28.2297299 0.689189766,27.3108102 C-0.229729922,26.3918905 -0.229729922,24.9020274 0.689189766,23.9831077 L10.6710411,13.9982412 L0.689189766,4.01689232 C-0.229729922,3.09797264 -0.229729922,1.60810945 0.689189766,0.689189766 C1.60810945,-0.229729922 3.09797264,-0.229729922 4.01689232,0.689189766 Z"></path>
            </g>
        </g>
    </g>
</svg>