<svg viewBox="0 0 29 29" version="1.1" xmlns="http://www.w3.org/2000/svg" xmlns:xlink="http://www.w3.org/1999/xlink">
        <g stroke="none" stroke-width="1" fill="none" fill-rule="evenodd">
        <g transform="translate(-652.000000, -925.000000)" fill="currentColor" fill-rule="nonzero">
            <g transform="translate(652.883333, 925.667373)">
                <path d="M14,0 C21.7319865,0 28,6.2680135 28,14 C28,21.7319865 21.7319865,28 14,28 C6.2680135,28 0,21.7319865 0,14 C0,6.2680135 6.2680135,0 14,0 Z M14,3 C7.92486775,3 3,7.92486775 3,14 C3,20.0751322 7.92486775,25 14,25 C20.0751322,25 25,20.0751322 25,14 C25,7.92486775 20.0751322,3 14,3 Z M11.1715729,9.05025253 L14,11.88 L16.8284271,9.05025253 C17.4142136,8.46446609 18.363961,8.46446609 18.9497475,9.05025253 C19.5355339,9.63603897 19.5355339,10.5857864 18.9497475,11.1715729 L16.12,14 L18.9497475,16.8284271 C19.5355339,17.4142136 19.5355339,18.363961 18.9497475,18.9497475 C18.363961,19.5355339 17.4142136,19.5355339 16.8284271,18.9497475 L14,16.12 L11.1715729,18.9497475 C10.5857864,19.5355339 9.63603897,19.5355339 9.05025253,18.9497475 C8.46446609,18.363961 8.46446609,17.4142136 9.05025253,16.8284271 L11.88,14 L9.05025253,11.1715729 C8.46446609,10.5857864 8.46446609,9.63603897 9.05025253,9.05025253 C9.63603897,8.46446609 10.5857864,8.46446609 11.1715729,9.05025253 Z"></path>
            </g>
        </g>
    </g>
</svg>