<svg viewBox="0 0 29 29" version="1.1" xmlns="http://www.w3.org/2000/svg" xmlns:xlink="http://www.w3.org/1999/xlink">
        <g stroke="none" stroke-width="1" fill="none" fill-rule="evenodd">
        <g transform="translate(-1086.000000, -925.000000)" fill="currentColor" fill-rule="nonzero">
            <g transform="translate(1086.950000, 925.667373)">
                <path d="M26,23.4728685 C26.8284271,23.4728685 27.5,24.1444413 27.5,24.9728685 C27.5,25.73226 26.9356922,26.3598504 26.2035411,26.4591752 L26,26.4728685 L2,26.4728685 C1.17157288,26.4728685 0.5,25.8012956 0.5,24.9728685 C0.5,24.2134769 1.06430776,23.5858865 1.79645889,23.4865617 L2,23.4728685 L26,23.4728685 Z M26.7365461,9.61377637 C26.7984372,9.68620813 26.832443,9.77835232 26.832443,9.87362495 L26.832443,18.1263751 C26.832443,18.3472889 26.6533569,18.5263751 26.432443,18.5263751 C26.3371703,18.5263751 26.2450261,18.4923693 26.1725944,18.4304782 L21.3434607,14.3041031 C21.1755091,14.1605927 21.1556957,13.9081029 21.2992061,13.7401514 L21.3434607,13.6958969 L26.1725944,9.56952182 C26.3405459,9.42601141 26.5930357,9.44582484 26.7365461,9.61377637 Z M17.1666545,12.5 C17.9950816,12.5 18.6666545,13.1715729 18.6666545,14 C18.6666545,14.7593915 18.1023467,15.3869819 17.3701956,15.4863068 L17.1666545,15.5 L2,15.5 C1.17157288,15.5 0.5,14.8284271 0.5,14 C0.5,13.2406085 1.06430776,12.6130181 1.79645889,12.5136932 L2,12.5 L17.1666545,12.5 Z M26,1.52713154 C26.8284271,1.52713154 27.5,2.19870442 27.5,3.02713154 C27.5,3.78652307 26.9356922,4.41411346 26.2035411,4.51343831 L26,4.52713154 L2,4.52713154 C1.17157288,4.52713154 0.5,3.85555867 0.5,3.02713154 C0.5,2.26774001 1.06430776,1.64014962 1.79645889,1.54082477 L2,1.52713154 L26,1.52713154 Z"></path>
            </g>
        </g>
    </g>
</svg>