<svg viewBox="0 0 29 29" version="1.1" xmlns="http://www.w3.org/2000/svg" xmlns:xlink="http://www.w3.org/1999/xlink">
        <g stroke="none" stroke-width="1" fill="none" fill-rule="evenodd">
        <g transform="translate(-435.000000, -1233.000000)" fill="currentColor" fill-rule="nonzero">
            <g transform="translate(435.100000, 1233.482073)">
                <path d="M9.182,8.60772532 L1.42036994,9.73812264 L1.21109081,9.78312828 C0.13724077,10.0926523 -0.248568386,11.4797472 0.589104581,12.2964944 L6.204,17.7717253 L4.88034545,25.5035757 L4.85891261,25.7048732 C4.81267928,26.8279189 6.01740264,27.6309119 7.05662642,27.0847364 L14,23.4337253 L20.9433736,27.0847364 L21.1281957,27.1673246 C22.1819888,27.5583353 23.3179605,26.6607138 23.1196546,25.5035757 L21.794,17.7717253 L27.4108954,12.2964944 L27.5537521,12.1370728 C28.2405814,11.2554694 27.7373936,9.90651312 26.5796301,9.73812264 L18.816,8.60772532 L15.3450156,1.57569746 C14.7947283,0.46106794 13.2052717,0.46106794 12.6549844,1.57569746 L9.182,8.60772532 Z M14,5.62772532 L16.4763526,10.644091 L16.582063,10.8251535 C16.816826,11.1694846 17.1868308,11.4035556 17.6054729,11.4644449 L23.14,12.2677253 L19.135943,16.1747475 L18.9964086,16.3312355 C18.7414761,16.6609125 18.633199,17.0851399 18.7046575,17.502108 L19.648,23.0137253 L14.6978347,20.4132352 L14.5058873,20.3288875 C14.1135674,20.188308 13.6766437,20.2164239 13.3021653,20.4132352 L8.35,23.0137253 L9.29534254,17.502108 L9.31624695,17.2934903 C9.32871243,16.8769305 9.16695578,16.4700796 8.86405698,16.1747475 L4.858,12.2677253 L10.3945271,11.4644449 C10.8829429,11.3934074 11.3051579,11.0866503 11.5236474,10.644091 L14,5.62772532 Z"></path>
            </g>
        </g>
    </g>
</svg>