<svg viewBox="0 0 29 28" version="1.1" xmlns="http://www.w3.org/2000/svg" xmlns:xlink="http://www.w3.org/1999/xlink">
        <g stroke="none" stroke-width="1" fill="none" fill-rule="evenodd">
        <g transform="translate(-759.000000, -720.000000)" fill="currentColor">
            <g transform="translate(759.883333, 719.756682)">
                <path d="M25.999,0.5 C27.026,0.5 27.8702041,1.27084694 27.9855649,2.26649344 L27.999,2.5 L27.999,18.012 C27.999,19.0371429 27.2281531,19.8829388 26.2325066,19.9985364 L25.999,20.012 L15.5004,20.0116 L15.499,24.498 L20.8994,24.5 C21.6584,24.5 22.2863167,25.0646667 22.3856986,25.7965486 L22.3994,26 C22.3994,26.759 21.8347333,27.3869167 21.1028514,27.4862986 L20.8994,27.5 L7.1014,27.5 C6.2714,27.5 5.6014,26.828 5.6014,26 C5.6014,25.241 6.16438611,24.6130833 6.89752847,24.5137014 L7.1014,24.5 L12.499,24.498 L12.5004,20.0116 L2.001,20.012 C0.974,20.012 0.129795918,19.2394286 0.0144351312,18.245137 L0.001,18.012 L0.001,2.5 C0.001,1.473 0.771846939,0.628795918 1.76749344,0.513435131 L2.001,0.5 L25.999,0.5 Z M24.999,3.5 L3.001,3.5 L3.001,17.012 L24.999,17.012 L24.999,3.5 Z M19.5008,12.5 L8.5008,12.5 L8.27644277,12.5181211 C7.52308829,12.6529117 7.0008,13.2721919 7.0008,14 C7.0008,14.8281424 7.67265763,15.5 8.5008,15.5 L19.5008,15.5 L19.7247608,15.4818672 C20.4773882,15.3469056 21.0008,14.7274047 21.0008,14 C21.0008,13.1723927 20.3274786,12.5 19.5008,12.5 Z"></path>
            </g>
        </g>
    </g>
</svg>