<svg viewBox="0 0 29 29" version="1.1" xmlns="http://www.w3.org/2000/svg" xmlns:xlink="http://www.w3.org/1999/xlink">
        <g stroke="none" stroke-width="1" fill="none" fill-rule="evenodd">
        <g transform="translate(-542.000000, -514.000000)" fill="currentColor" fill-rule="nonzero">
            <g transform="translate(542.658325, 514.308018)">
                <path d="M22.8,0.5 C24.7125782,0.5 26.3305078,1.88390975 26.4875193,3.70839896 L26.5,4 L26.5,15.6014143 C26.5,16.4298414 25.8284271,17.1014143 25,17.1014143 C24.2406085,17.1014143 23.6130181,16.5371066 23.5136932,15.8049554 L23.5,15.6014143 L23.5,4 C23.5,3.792094 23.291944,3.57325135 22.9700168,3.51496785 L22.8,3.5 L5.2,3.5 C4.84273197,3.5 4.58363771,3.6891418 4.51690196,3.89592957 L4.5,4 L4.5,24 C4.5,24.207906 4.70805598,24.4267487 5.02998317,24.4850321 L5.2,24.5 L14.5283534,24.5 C15.3567805,24.5 16.0283534,25.1715729 16.0283534,26 C16.0283534,26.7593915 15.4640456,27.3869819 14.7318945,27.4863068 L14.5283534,27.5 L5.2,27.5 C3.28742181,27.5 1.66949218,26.1160903 1.51248066,24.291601 L1.5,24 L1.5,4 C1.5,2.1317471 3.02230072,0.65442471 4.90063261,0.511363103 L5.2,0.5 L22.8,0.5 Z" transform="translate(14.000000, 14.000000) scale(1, -1) translate(-14.000000, -14.000000) "></path>
                <path d="M22.0897194,0.544624646 L21.9140965,0.563204553 L21.7120469,0.62077099 C21.1271903,0.831565678 20.7409146,1.3752085 20.7409146,1.98142273 L20.7408021,3.61887096 L19.1327819,3.62045044 C18.754632,3.62045044 18.3899127,3.77794286 18.126704,4.05247239 C17.8644601,4.33177867 17.7241336,4.70032035 17.7352211,5.08006775 L17.7509082,5.26546779 C17.854566,5.93402571 18.45376,6.46688388 19.1527728,6.46688388 L20.7368021,6.46687096 L20.7372799,8.1222678 C20.7372799,8.50310078 20.8908056,8.87380934 21.1601108,9.13744496 C21.4217455,9.39627597 21.7700829,9.54184981 22.1405057,9.54184981 L22.3788807,9.51567923 L22.5782667,9.45838843 C23.1559272,9.24828727 23.5419141,8.70415774 23.5419141,8.09682482 L23.5408021,6.46287096 L25.1536815,6.46324917 C25.5339567,6.46324917 25.900182,6.30402079 26.1615619,6.02559434 C26.4199002,5.75322546 26.5623412,5.38376929 26.5512423,5.00363186 L26.5349427,4.8176125 C26.4293824,4.14719664 25.831877,3.61681573 25.1318732,3.61681573 L23.5448021,3.61487096 L23.5455488,1.96143181 C23.5455488,1.58142333 23.3926746,1.21154238 23.1246233,0.94631261 C22.8577634,0.685120151 22.5121421,0.541849806 22.142323,0.541849806 L22.0897194,0.544624646 Z"></path>
                <path d="M18.5,17.2644883 C19.3284271,17.2644883 20,17.9360612 20,18.7644883 C20,19.5238799 19.4356922,20.1514703 18.7035411,20.2507951 L18.5,20.2644883 L9.5,20.2644883 C8.67157288,20.2644883 8,19.5929155 8,18.7644883 C8,18.0050968 8.56430776,17.3775064 9.29645889,17.2781816 L9.5,17.2644883 L18.5,17.2644883 Z"></path>
                <path d="M15.2849372,10.3589473 C16.1133644,10.3589473 16.7849372,11.0305202 16.7849372,11.8589473 C16.7849372,12.6183388 16.2206295,13.2459292 15.4884784,13.3452541 L15.2849372,13.3589473 L9.5,13.3589473 C8.67157288,13.3589473 8,12.6873744 8,11.8589473 C8,11.0995558 8.56430776,10.4719654 9.29645889,10.3726405 L9.5,10.3589473 L15.2849372,10.3589473 Z"></path>
            </g>
        </g>
    </g>
</svg>