<svg viewBox="0 0 29 29" version="1.1" xmlns="http://www.w3.org/2000/svg" xmlns:xlink="http://www.w3.org/1999/xlink">
        <g stroke="none" stroke-width="1" fill="none" fill-rule="evenodd">
        <g transform="translate(-760.000000, -616.000000)" fill="currentColor" fill-rule="nonzero">
            <g transform="translate(760.383333, 616.859355)">
                <path d="M23.8309785,0.314337964 C25.6116691,0.314337964 27.0729492,1.68189743 27.2218355,3.42403325 L27.2343278,3.71768726 L27.2343278,24.2823127 C27.2343278,26.0630034 25.8667683,27.5242834 24.1246325,27.6731697 L23.8309785,27.685662 L5.42800125,27.685662 C3.6473106,27.685662 2.18603057,26.3181026 2.03714428,24.5759667 L2.02465196,24.2823127 L2.02465196,22.2866881 C2.02465196,21.458261 2.69622484,20.7866881 3.52465196,20.7866881 C4.28404349,20.7866881 4.91163388,21.3509959 5.01095873,22.083147 L5.02465196,22.2866881 L5.02465196,24.2823127 C5.02465196,24.4679491 5.15005865,24.6242952 5.32077503,24.671254 L5.42800125,24.685662 L23.8309785,24.685662 C24.0166149,24.685662 24.172961,24.5602553 24.2199198,24.389539 L24.2343278,24.2823127 L24.2343278,3.71768726 C24.2343278,3.53205087 24.1089211,3.37570479 23.9382047,3.32874599 L23.8309785,3.31433796 L5.42800125,3.31433796 C5.24236487,3.31433796 5.08601878,3.43974465 5.03905999,3.61046104 L5.02465196,3.71768726 L5.02465196,5.35499382 C5.02465196,6.18342094 4.35307908,6.85499382 3.52465196,6.85499382 C2.76526043,6.85499382 2.13767004,6.29068605 2.03834519,5.55853493 L2.02465196,5.35499382 L2.02465196,3.71768726 C2.02465196,1.9369966 3.39221143,0.475716577 5.13434725,0.326830288 L5.42800125,0.314337964 L23.8309785,0.314337964 Z M5.13663356,14.36089 C5.96506068,14.36089 6.63663356,15.0324628 6.63663356,15.86089 C6.63663356,16.6202815 6.0723258,17.2478719 5.34017467,17.3471967 L5.13663356,17.36089 L2.26567222,17.36089 C1.4372451,17.36089 0.765672223,16.6893171 0.765672223,15.86089 C0.765672223,15.1014984 1.32997999,14.473908 2.06213111,14.3745832 L2.26567222,14.36089 L5.13663356,14.36089 Z M14.6294899,6.25854616 C17.0768799,6.25854616 19.0608815,8.24254777 19.0608815,10.6899378 C19.0608815,11.4564882 18.8651312,12.1928783 18.5048418,12.8408667 L18.3111301,13.1572245 L18.218,13.282 L18.4003778,13.4150444 C19.661998,14.3967963 20.5004267,15.8392191 20.7142304,17.4449118 L20.7545517,17.8495643 L20.7681476,18.2599871 C20.7681476,19.0884142 20.0965747,19.7599871 19.2681476,19.7599871 C18.508756,19.7599871 17.8811656,19.1956793 17.7818408,18.4635282 L17.7681476,18.2599871 C17.7681476,16.5265543 16.3629226,15.1213294 14.6294899,15.1213294 C12.8960571,15.1213294 11.4908322,16.5265543 11.4908322,18.2599871 C11.4908322,19.0884142 10.8192593,19.7599871 9.99083217,19.7599871 C9.16240505,19.7599871 8.49083217,19.0884142 8.49083217,18.2599871 C8.49083217,16.4701152 9.26353737,14.8141491 10.5536711,13.668952 L10.8604632,13.4139142 L11.042,13.28 L10.9500431,13.157935 C10.6037383,12.6445222 10.3685093,12.0622486 10.2623625,11.4450931 L10.2143084,11.0708858 L10.1980982,10.6899378 C10.1980982,8.24254777 12.1820999,6.25854616 14.6294899,6.25854616 Z M5.13663356,9.66299958 C5.96506068,9.66299958 6.63663356,10.3345725 6.63663356,11.1629996 C6.63663356,11.9223911 6.0723258,12.5499815 5.34017467,12.6493063 L5.13663356,12.6629996 L2.26567222,12.6629996 C1.4372451,12.6629996 0.765672223,11.9914267 0.765672223,11.1629996 C0.765672223,10.403608 1.32997999,9.77601766 2.06213111,9.67669281 L2.26567222,9.66299958 L5.13663356,9.66299958 Z M14.6294899,9.25854616 C13.8389541,9.25854616 13.1980982,9.89940202 13.1980982,10.6899378 C13.1980982,11.4804736 13.8389541,12.1213294 14.6294899,12.1213294 C15.4200256,12.1213294 16.0608815,11.4804736 16.0608815,10.6899378 C16.0608815,9.89940202 15.4200256,9.25854616 14.6294899,9.25854616 Z"></path>
            </g>
        </g>
    </g>
</svg>