<svg viewBox="0 0 29 29" version="1.1" xmlns="http://www.w3.org/2000/svg" xmlns:xlink="http://www.w3.org/1999/xlink">
        <g stroke="none" stroke-width="1" fill="none" fill-rule="evenodd">
        <g transform="translate(-761.000000, -925.000000)" fill="currentColor" fill-rule="nonzero">
            <g transform="translate(761.400000, 925.667373)">
                <path d="M17.9050454,0 C18.3544699,0 18.7486866,0.299820045 18.8687194,0.732918819 L19.886,4.41 L26.5,4.41036095 C27.3284271,4.41036095 28,5.08193383 28,5.91036095 C28,6.73878808 27.3284271,7.41036095 26.5,7.41036095 L25,7.41 L25,26 C25,27.1045695 24.1045695,28 23,28 L5,28 C3.8954305,28 3,27.1045695 3,26 L3,7.41 L1.5,7.41036095 C0.671572875,7.41036095 0,6.73878808 0,5.91036095 C0,5.08193383 0.671572875,4.41036095 1.5,4.41036095 L8.112,4.41 L9.13128059,0.732918819 C9.25131343,0.299820045 9.64553007,0 10.0949546,0 L17.9050454,0 Z M22,7.41 L6,7.41 L6,24.998 L22,24.998 L22,7.41 Z M16.382,2.998 L11.616,2.998 L11.224,4.41 L16.774,4.41 L16.382,2.998 Z M9,10.0869188 C8.17157288,10.0869188 7.5,10.7584917 7.5,11.5869188 L7.5,20.2584525 C7.5,21.0868796 8.17157288,21.7584525 9,21.7584525 C9.82842712,21.7584525 10.5,21.0868796 10.5,20.2584525 L10.5,11.5869188 C10.5,10.7584917 9.82842712,10.0869188 9,10.0869188 Z M14,10.0869188 C13.1715729,10.0869188 12.5,10.7584917 12.5,11.5869188 L12.5,20.2584525 C12.5,21.0868796 13.1715729,21.7584525 14,21.7584525 C14.8284271,21.7584525 15.5,21.0868796 15.5,20.2584525 L15.5,11.5869188 C15.5,10.7584917 14.8284271,10.0869188 14,10.0869188 Z M19,10.0869188 C18.1715729,10.0869188 17.5,10.7584917 17.5,11.5869188 L17.5,20.2584525 C17.5,21.0868796 18.1715729,21.7584525 19,21.7584525 C19.8284271,21.7584525 20.5,21.0868796 20.5,20.2584525 L20.5,11.5869188 C20.5,10.7584917 19.8284271,10.0869188 19,10.0869188 Z"></path>
            </g>
        </g>
    </g>
</svg>