<svg viewBox="0 0 29 29" version="1.1" xmlns="http://www.w3.org/2000/svg" xmlns:xlink="http://www.w3.org/1999/xlink">
        <g stroke="none" stroke-width="1" fill="none" fill-rule="evenodd">
        <g transform="translate(-978.000000, -1028.000000)" fill="currentColor">
            <g transform="translate(978.200000, 1028.026727)">
                <path d="M23.24,0.262 C24.5508009,0.262 25.6292407,1.25515948 25.7589254,2.52792932 L25.772,2.786 L25.772,15.588 L25.8024523,15.5932105 C26.7918573,15.7946797 27.5718276,16.5702029 27.7744843,17.5555358 L27.8129082,17.8060292 L27.826,18.064 L27.826,25.216 C27.826,26.5211433 26.8275989,27.5957445 25.5508481,27.7249714 L25.292,27.738 L2.706,27.738 C1.39555817,27.738 0.316804146,26.7451763 0.187078807,25.4737816 L0.174,25.216 L0.174,18.064 C0.174,16.9315624 0.92233603,15.9744218 1.95304546,15.6553064 L2.19570194,15.5932009 L2.224,15.588 L2.226,2.786 C2.226,1.566784 3.09513278,0.548758499 4.24816698,0.313302375 L4.49937789,0.275037466 L4.758,0.262 L23.24,0.262 Z M9.682,18.552 L3.188,18.552 L3.188,24.74 L24.814,24.74 L24.814,18.552 L18.316,18.552 L18.2232083,18.8031118 C17.4114086,20.764955 15.3150674,21.9245256 13.1901198,21.5421157 L12.8713201,21.4730969 C11.4678421,21.114968 10.3321516,20.1237697 9.7835618,18.8165302 L9.682,18.552 Z M22.76,3.274 L5.238,3.274 L5.238,15.55 L12.426,15.55 L12.426,17.05 C12.426,17.9125604 13.1307572,18.614 14,18.614 C14.7968059,18.614 15.4553982,18.0245959 15.5596302,17.2619707 L15.574,17.05 L15.574,15.55 L22.76,15.55 L22.76,3.274 Z M18.128,10.3022683 L9.87,10.3022683 C9.04239267,10.3022683 8.37,10.9755897 8.37,11.8022683 C8.37,12.6304107 9.04185763,13.3022683 9.87,13.3022683 L18.128,13.3022683 C18.9561424,13.3022683 19.628,12.6304107 19.628,11.8022683 C19.628,10.9755897 18.9556073,10.3022683 18.128,10.3022683 Z M18.128,5.45004737 L9.87,5.45004737 C9.04239267,5.45004737 8.37,6.12336877 8.37,6.95004737 C8.37,7.77818975 9.04185763,8.45004737 9.87,8.45004737 L18.128,8.45004737 C18.9561424,8.45004737 19.628,7.77818975 19.628,6.95004737 C19.628,6.12336877 18.9556073,5.45004737 18.128,5.45004737 Z"></path>
            </g>
        </g>
    </g>
</svg>