<svg viewBox="0 0 30 29" version="1.1" xmlns="http://www.w3.org/2000/svg" xmlns:xlink="http://www.w3.org/1999/xlink">
        <g stroke="none" stroke-width="1" fill="none" fill-rule="evenodd">
        <g transform="translate(-109.000000, -410.000000)" fill="currentColor">
            <g transform="translate(109.500000, 410.000000)">
                <path d="M23.8214286,0.517857143 L5.17857143,0.517857143 C3.17653921,0.517857143 1.55357143,2.14082492 1.55357143,4.14285714 L1.55357143,24.8571429 C1.55357143,26.8591751 3.17653921,28.4821429 5.17857143,28.4821429 L23.8214286,28.4821429 C25.8234608,28.4821429 27.4464286,26.8591751 27.4464286,24.8571429 L27.4464286,4.14285714 C27.4464286,2.14082492 25.8234608,0.517857143 23.8214286,0.517857143 Z M5.17857143,3.625 L23.8214286,3.625 C24.1074332,3.625 24.3392857,3.85685254 24.3392857,4.14285714 L24.3392857,24.8571429 C24.3392857,25.1431475 24.1074332,25.375 23.8214286,25.375 L5.17857143,25.375 C4.89256683,25.375 4.66071429,25.1431475 4.66071429,24.8571429 L4.66071429,4.14285714 C4.66071429,3.85685254 4.89256683,3.625 5.17857143,3.625 Z" fill-rule="nonzero"></path>
                <polygon points="10.4525235 12.3068841 8.62619075 13.3291869 9.03409064 11.2763323 7.49745504 9.85529559 9.57588378 9.60886447 10.4525235 7.70831268 11.3291632 9.60886447 13.407592 9.85529559 11.8709564 11.2763323 12.2788562 13.3291869"></polygon>
                <path d="M20.1838508,9.2618841 C21.0418646,9.2618841 21.7374222,9.95744173 21.7374222,10.8154555 C21.7374222,11.6019682 21.1529606,12.2519725 20.3946613,12.3548447 L20.1838508,12.369027 L16.0409937,12.369027 C15.1829799,12.369027 14.4874222,11.6734693 14.4874222,10.8154555 C14.4874222,10.0289429 15.0718839,9.37893854 15.8301832,9.27606638 L16.0409937,9.2618841 L20.1838508,9.2618841 Z" fill-rule="nonzero"></path>
                <path d="M20.1838508,17.3184421 C21.0418646,17.3184421 21.7374222,18.0139997 21.7374222,18.8720135 C21.7374222,19.6585261 21.1529606,20.3085305 20.3946613,20.4114026 L20.1838508,20.4255849 L9.04310506,20.4255849 C8.18509125,20.4255849 7.48953363,19.7300273 7.48953363,18.8720135 C7.48953363,18.0855008 8.07399524,17.4354965 8.83229462,17.3326243 L9.04310506,17.3184421 L20.1838508,17.3184421 Z" fill-rule="nonzero"></path>
            </g>
        </g>
    </g>
</svg>