<svg viewBox="0 0 30 29" version="1.1" xmlns="http://www.w3.org/2000/svg" xmlns:xlink="http://www.w3.org/1999/xlink">
        <g stroke="none" stroke-width="1" fill="none" fill-rule="evenodd">
        <g transform="translate(-217.000000, -410.000000)" fill="currentColor" fill-rule="nonzero">
            <g transform="translate(217.500000, 410.000000)">
                <path d="M1.96994624,17.141093 C2.66062026,17.141093 3.25433804,17.5975583 3.44827406,18.2452402 L3.49769727,18.4678524 L3.51316173,18.6843085 L3.51316173,24.9276136 C3.51316173,25.1076456 3.95614291,25.3915222 4.52644712,25.4523833 L4.74566294,25.464114 L24.1632529,25.464114 C24.7617327,25.464114 25.2700765,25.2006323 25.3756532,24.9994854 L25.3957541,24.9276136 L25.3957541,18.6864042 C25.3957541,17.9959773 25.8520844,17.4034527 26.4998705,17.2099762 L26.7225269,17.1606767 L26.9503877,17.1456375 L27.1646662,17.1618983 C27.8415352,17.2618544 28.3655512,17.7953313 28.4635857,18.4602735 L28.4801121,18.6863757 L28.4801121,24.9296808 C28.4801121,26.8694348 26.7536486,28.4005223 24.5026209,28.5419416 L24.1611827,28.5526093 L4.74359273,28.5526093 C2.44606958,28.5526093 0.609259923,27.1131074 0.439535473,25.2173443 L0.426730742,24.9296808 L0.426730742,18.6843085 C0.426730742,17.8320141 1.11765188,17.141093 1.96994624,17.141093 Z M14.2469443,0.482192554 L14.4565201,0.468122833 L14.6678267,0.484286289 C15.2761147,0.566790938 15.7723882,1.0039208 15.9404719,1.58123818 L15.9876972,1.80388467 L16.0017997,2.01342646 L16.0017857,14.8728571 L20.301172,10.5754436 C20.7830576,10.0859725 21.5118554,9.9870644 22.09347,10.2817972 L22.3039066,10.41078 L22.4776848,10.558447 C22.7745681,10.8507297 22.940286,11.2508936 22.9370492,11.6662951 C22.9370492,11.9937782 22.8326293,12.3100395 22.6421087,12.5722172 L22.4833501,12.75804 L15.5427666,19.694445 C14.9925849,20.231729 14.144004,20.2805731 13.5385731,19.8399916 L13.3647799,19.6931334 L6.42388698,12.7500157 C5.8422254,12.1270575 5.87570307,11.1505204 6.49866145,10.568859 C7.03316688,10.0697861 7.83355359,10.0206683 8.42299845,10.4235313 L8.61101333,10.5745617 L12.9153571,14.877 L12.9153748,2.01133833 C12.9153748,1.30030681 13.3930449,0.702650393 14.0460763,0.523182465 L14.2469443,0.482192554 Z"></path>
            </g>
        </g>
    </g>
</svg>