<svg viewBox="0 0 29 29" version="1.1" xmlns="http://www.w3.org/2000/svg" xmlns:xlink="http://www.w3.org/1999/xlink">
        <g stroke="none" stroke-width="1" fill="none" fill-rule="evenodd">
        <g transform="translate(-1301.000000, -925.000000)" fill="currentColor" fill-rule="nonzero">
            <g transform="translate(1301.783333, 925.667373)">
                <path d="M15.444413,0.40801529 L15.6714691,0.584862997 L23.5691903,7.54978251 C24.5382751,8.4044085 24.6310624,9.88281823 23.7764364,10.8519031 C22.9875508,11.7464429 21.6671573,11.894315 20.7064763,11.2395849 L20.4743158,11.0591491 L16.3386724,7.412 L16.339546,25.660454 C16.339546,26.9525496 15.2920956,28 14,28 C12.800197,28 11.811338,27.0968412 11.6761938,25.9332945 L11.660454,25.660454 L11.6596724,7.523 L7.49865693,11.0826321 C6.59214542,11.8577313 5.2640616,11.8190183 4.40466542,11.0360639 L4.2000959,10.8248605 C3.42499668,9.91834904 3.4637097,8.59026522 4.2466641,7.73086904 L4.45786747,7.52629951 L12.6036371,0.561379998 C13.4155614,-0.132843797 14.5823539,-0.182282372 15.444413,0.40801529 Z" transform="translate(14.000000, 14.000000) scale(1, -1) translate(-14.000000, -14.000000) "></path>
            </g>
        </g>
    </g>
</svg>