<svg viewBox="0 0 29 29" version="1.1" xmlns="http://www.w3.org/2000/svg" xmlns:xlink="http://www.w3.org/1999/xlink">
        <g stroke="none" stroke-width="1" fill="none" fill-rule="evenodd">
        <g transform="translate(-544.000000, -1697.000000)" fill="currentColor">
            <g transform="translate(544.366667, 1697.334746)">
                <path d="M9,21 C10.6568542,21 12,22.3431458 12,24 C12,25.6568542 10.6568542,27 9,27 C7.34314575,27 6,25.6568542 6,24 C6,22.3431458 7.34314575,21 9,21 Z M19,21 C20.6568542,21 22,22.3431458 22,24 C22,25.6568542 20.6568542,27 19,27 C17.3431458,27 16,25.6568542 16,24 C16,22.3431458 17.3431458,21 19,21 Z M9,11 C10.6568542,11 12,12.3431458 12,14 C12,15.6568542 10.6568542,17 9,17 C7.34314575,17 6,15.6568542 6,14 C6,12.3431458 7.34314575,11 9,11 Z M19,11 C20.6568542,11 22,12.3431458 22,14 C22,15.6568542 20.6568542,17 19,17 C17.3431458,17 16,15.6568542 16,14 C16,12.3431458 17.3431458,11 19,11 Z M9,1 C10.6568542,1 12,2.34314575 12,4 C12,5.65685425 10.6568542,7 9,7 C7.34314575,7 6,5.65685425 6,4 C6,2.34314575 7.34314575,1 9,1 Z M19,1 C20.6568542,1 22,2.34314575 22,4 C22,5.65685425 20.6568542,7 19,7 C17.3431458,7 16,5.65685425 16,4 C16,2.34314575 17.3431458,1 19,1 Z"></path>
            </g>
        </g>
    </g>
</svg>