<svg viewBox="0 0 29 29" version="1.1" xmlns="http://www.w3.org/2000/svg" xmlns:xlink="http://www.w3.org/1999/xlink">
        <g stroke="none" stroke-width="1" fill="none" fill-rule="evenodd">
        <g transform="translate(-1193.000000, -616.000000)" fill="currentColor">
            <g transform="translate(1193.950000, 616.859355)">
                <path d="M13.6930223,0.0890143633 C18.2172168,0.0890143633 21.8810223,3.83742045 21.8810223,8.45101436 C21.8810223,12.9244769 18.4362065,16.5831434 14.1018922,16.8007729 L13.6930223,16.8110144 C8.62697507,16.8110144 4.51502228,21.0148479 4.51497087,26.2012263 C4.52725428,27.1316944 3.78240742,27.8955425 2.83720019,27.9109856 C1.90339785,27.9017705 1.1558646,27.1390662 1.16480427,26.2110144 C1.16480427,21.4071926 3.77809669,17.101624 7.79907831,14.9119308 L8.23896443,14.6826144 L7.92889162,14.3853529 C6.60172993,13.0425228 5.76239464,11.2870667 5.55524603,9.40265387 L5.51671297,8.92902823 L5.50502228,8.45101436 C5.50502228,3.83810361 9.17016177,0.0890143633 13.6930223,0.0890143633 Z M24.2965941,18.2504805 C24.832337,17.7147376 25.6829451,17.6683249 26.2725222,18.1351971 L26.2725222,18.1351971 L26.4019365,18.2504805 C26.9376794,18.7862234 26.9840921,19.6368314 26.499685,20.2472788 L26.499685,20.2472788 L26.4019365,20.3558229 L19.9189574,26.838802 C19.3832145,27.3745449 18.5326065,27.4209576 17.9221592,26.9365504 L17.9221592,26.9365504 L17.813615,26.838802 L14.2774446,23.3026316 C13.6960704,22.7212573 13.6960704,21.7786634 14.2774446,21.1972892 C14.8131875,20.6615463 15.6637955,20.6151336 16.2742429,21.0995407 L16.2742429,21.0995407 L16.382787,21.1972892 L18.8653133,23.68 Z M13.6750223,3.08701436 C10.813148,3.08701436 8.49302228,5.40658475 8.49302228,8.26701436 C8.49302228,11.1291664 10.8128703,13.4490144 13.6750223,13.4490144 C16.5371743,13.4490144 18.8570223,11.1291664 18.8570223,8.26701436 C18.8570223,5.40658475 16.5368966,3.08701436 13.6750223,3.08701436 Z"></path>
            </g>
        </g>
    </g>
</svg>