<svg viewBox="0 0 29 29" version="1.1" xmlns="http://www.w3.org/2000/svg" xmlns:xlink="http://www.w3.org/1999/xlink">
        <g stroke="none" stroke-width="1" fill="none" fill-rule="evenodd">
        <g transform="translate(-218.000000, -822.000000)" fill="currentColor" fill-rule="nonzero">
            <g transform="translate(218.816667, 822.770046)">
                <path d="M13.1487141,0.2 C20.2919979,0.2 26.0822446,5.99024671 26.0822446,13.1335305 C26.0822446,15.964315 25.16982,18.6553787 23.5158211,20.8681473 L23.266,21.184 L27.3496952,25.2639276 C27.8185127,25.7327451 27.9084878,26.4369451 27.6196204,26.9961114 L27.4935369,27.1982573 L27.3496952,27.3648788 C26.8222755,27.8922984 25.9969498,27.9402457 25.4153654,27.5087205 L25.248744,27.3648788 L21.164,23.28 L20.8514351,23.5243941 C18.9597078,24.9294002 16.7214003,25.7939062 14.3465471,26.0122344 L13.7501106,26.0532932 L13.1487141,26.067061 C6.00543028,26.067061 0.215183571,20.2768143 0.215183571,13.1335305 C0.215183571,5.99024671 6.00543028,0.2 13.1487141,0.2 Z M13.1487141,3.1687449 C7.65298317,3.1687449 3.18392848,7.6384167 3.18392848,13.1335305 C3.18392848,18.6286443 7.65298317,23.0983161 13.1487141,23.0983161 C18.6431199,23.0983161 23.1134997,18.6279363 23.1134997,13.1335305 C23.1134997,7.63912468 18.6431199,3.1687449 13.1487141,3.1687449 Z M13.0528398,6.88626951 C13.8049396,6.88626951 14.4265038,7.44515873 14.5248749,8.17032894 L14.5384366,8.37193033 L14.536,11.598 L17.7666948,11.6001246 C18.4504219,11.6001246 19.0262683,12.0620165 19.1992247,12.6907909 L19.2387299,12.8841347 L19.2522917,13.0857214 C19.2522917,13.8378212 18.6934025,14.4593854 17.9682292,14.5577565 L17.7666268,14.5713182 L14.536,14.57 L14.5384366,17.7995764 C14.5384366,18.4833035 14.0765447,19.0591499 13.4477703,19.2321063 L13.2544265,19.2716115 L13.0528398,19.2851733 C12.30074,19.2851733 11.6791758,18.726284 11.5808047,18.0012124 L11.567243,17.7996404 L11.566,14.57 L8.33898476,14.5713182 C7.6552577,14.5713182 7.07941128,14.1094263 6.90645489,13.4806519 L6.86694968,13.2873081 L6.85338793,13.0857214 C6.85338793,12.3336216 7.41227715,11.7120574 8.13734566,11.6136863 L8.33891672,11.6001246 L11.566,11.598 L11.567243,8.37186634 C11.567243,7.68813928 12.0291349,7.11229286 12.6579093,6.93933647 L12.8512531,6.89983126 L13.0528398,6.88626951 Z" transform="translate(14.000000, 14.000000) rotate(-360.000000) translate(-14.000000, -14.000000) "></path>
            </g>
        </g>
    </g>
</svg>