<svg viewBox="0 0 29 29" version="1.1" xmlns="http://www.w3.org/2000/svg" xmlns:xlink="http://www.w3.org/1999/xlink">
        <g stroke="none" stroke-width="1" fill="none" fill-rule="evenodd">
        <g transform="translate(-1301.000000, -1130.000000)" fill="currentColor" fill-rule="nonzero">
            <g transform="translate(1301.783333, 1130.578064)">
                <path d="M24.1647,0.618 C26.0024058,0.618 27.5072206,2.03092952 27.6531078,3.83075193 L27.6647,4.118 L27.6647,23.882 C27.6647,25.7197058 26.2517705,27.2245206 24.4519481,27.3704078 L24.1647,27.382 L5.5267,27.382 C3.69045799,27.382 2.1843258,25.9686566 2.03830318,24.169186 L2.0267,23.882 L2.0267,19.622 C2.0267,18.7935729 2.69827288,18.122 3.5267,18.122 C4.28609153,18.122 4.91368192,18.6863078 5.01300677,19.4184589 L5.0267,19.622 L5.0267,23.882 C5.0267,24.1191287 5.19090713,24.317098 5.41194329,24.3688213 L5.5267,24.382 L24.1647,24.382 C24.4026196,24.382 24.600024,24.2185842 24.6515697,23.9970958 L24.6647,23.882 L24.6647,4.118 C24.6647,3.88008039 24.5012842,3.68267603 24.2797958,3.63113029 L24.1647,3.618 L5.5267,3.618 C5.28970356,3.618 5.09163979,3.78209373 5.03988681,4.00319469 L5.0267,4.118 L5.0267,8.38 C5.0267,9.20842712 4.35512712,9.88 3.5267,9.88 C2.76730847,9.88 2.13971808,9.31569224 2.04039323,8.58354111 L2.0267,8.38 L2.0267,4.118 C2.0267,2.28072985 3.44102009,0.775522985 5.23966051,0.629595474 L5.5267,0.618 L24.1647,0.618 Z M17.3875749,8.93971437 L17.57019,9.06639879 L22.23219,12.8343988 C23.2770396,13.6788847 22.7619975,15.325455 21.4954144,15.4880008 L21.2893,15.501 L1.8353,15.501 C1.00687288,15.501 0.3353,14.8294271 0.3353,14.001 C0.3353,13.2416085 0.899607763,12.6140181 1.63175889,12.5146932 L1.8353,12.501 L17.048,12.5 L15.68441,11.3996012 C15.0986863,10.9261978 14.9626627,10.1026227 15.3340144,9.47272509 L15.4606988,9.29010996 C15.9341022,8.70438628 16.7576773,8.56836271 17.3875749,8.93971437 Z"></path>
            </g>
        </g>
    </g>
</svg>