<svg viewBox="0 0 29 29" version="1.1" xmlns="http://www.w3.org/2000/svg" xmlns:xlink="http://www.w3.org/1999/xlink">
        <g stroke="none" stroke-width="1" fill="none" fill-rule="evenodd">
        <g transform="translate(-1301.000000, -1028.000000)" fill="currentColor">
            <g transform="translate(1301.783333, 1028.026727)">
                <path d="M25.45345,24.96045 C26.2815924,24.96045 26.95345,25.6323076 26.95345,26.46045 C26.95345,27.2398781 26.3583097,27.8808671 25.5978655,27.9535806 L25.45345,27.96045 L14.57345,27.96045 C13.8911299,27.96045 13.3041956,27.5014076 13.1224302,26.8232823 L13.0915711,26.6848072 L13.07345,26.46045 C13.07345,25.6810219 13.6685903,25.0400329 14.4290345,24.9673194 L14.57345,24.96045 L25.45345,24.96045 Z M15.5144034,0.478496609 C15.9906238,0.952272979 16.0794501,1.67147319 15.7808822,2.23842149 L24.6872809,11.1439801 C25.2190968,10.8300177 25.9031335,10.8728681 26.3947471,11.2721008 L26.508898,11.3747935 L26.6541922,11.5437889 C27.0610202,12.0938603 27.0460184,12.8550632 26.6097396,13.3865826 L26.5098034,13.4968034 L25.7234836,14.2843865 C25.720306,14.2876372 25.7171108,14.2908772 25.713898,14.2941065 L25.70355,14.30255 L20.6824836,19.3253865 C20.679306,19.3286372 20.6761108,19.3318772 20.672898,19.3351065 L20.66455,19.34155 L19.8898034,20.1168034 C19.4115132,20.5950936 18.6756599,20.6863864 18.0691016,20.3430982 L17.9412448,20.2628673 L17.7686966,20.1168034 C17.2797398,19.6278466 17.1992816,18.8825092 17.5273531,18.309146 L13.95455,14.73555 L3.60660339,25.0836034 C3.12655017,25.5636566 2.39115268,25.6553678 1.78474728,25.3100741 L1.6569177,25.2293761 L1.48549661,25.0836034 C0.936813348,24.5349201 0.902520644,23.6651545 1.3826185,23.076336 L1.48549661,22.9624966 L11.83155,12.61455 L8.62779247,9.41122093 C8.17450615,9.66886588 7.60731065,9.67210357 7.12254728,9.39607415 L6.9947177,9.31537606 L6.82329661,9.16960339 C6.27461335,8.62092013 6.24032064,7.75115453 6.7204185,7.16233598 L6.82329661,7.04849661 L12.63955,1.23055 L12.6456966,1.22409661 L12.65655,1.21355 L13.3932966,0.478496609 C13.9785588,-0.106765536 14.9291412,-0.106765536 15.5144034,0.478496609 Z M13.70755,4.40655 L10.78655,7.32755 L19.61155,16.15055 L22.53255,13.23155 L13.70755,4.40655 Z"></path>
            </g>
        </g>
    </g>
</svg>