<svg viewBox="0 0 50 51" version="1.1" xmlns="http://www.w3.org/2000/svg" xmlns:xlink="http://www.w3.org/1999/xlink">
        <g stroke="none" stroke-width="1" fill="none" fill-rule="evenodd">
        <g transform="translate(-98.000000, -1909.000000)">
            <g transform="translate(98.000000, 1909.764423)">
                <path d="M5,0 L45,0 C47.7614237,0 50,2.23857625 50,5 L50,45 C50,47.7614237 47.7614237,50 45,50 L5,50 C2.23857625,50 0,47.7614237 0,45 L0,5 C0,2.23857625 2.23857625,0 5,0 Z" fill="#09BB07"></path>
                <path d="M24.714,23.104 L20.6711343,17.2247209 L20.6102928,17.1465514 C20.3163238,16.81547 19.8294166,16.7545654 19.4692993,17.0021288 L19.3771244,17.075069 C19.0619084,17.3612137 18.9988199,17.8434009 19.2466952,18.2039719 L23.664,24.631 L19.0021158,31.4154645 L18.950927,31.5002595 C18.7470936,31.8933049 18.8646156,32.3697255 19.2247328,32.6172888 L19.325847,32.6772255 C19.7059048,32.8690482 20.1787007,32.7552558 20.426576,32.3946847 L24.714,26.157 L29.0021343,32.3946929 L29.0629784,32.4728661 C29.3569474,32.8039476 29.8438546,32.8648522 30.2039719,32.6172888 L30.2961468,32.5443486 C30.6113628,32.2582039 30.6744513,31.7760167 30.426576,31.4154456 L25.763,24.631 L30.1820085,18.2039735 L30.2332114,18.1191581 C30.4370448,17.7261127 30.3195228,17.2496921 29.9594055,17.0021288 C29.5660553,16.7317194 29.0279717,16.8313826 28.7575623,17.2247328 L24.714,23.104 Z" fill="#FFFFFF" fill-rule="nonzero"></path>
            </g>
        </g>
    </g>
</svg>