<svg viewBox="0 0 29 29" version="1.1" xmlns="http://www.w3.org/2000/svg" xmlns:xlink="http://www.w3.org/1999/xlink">
        <g stroke="none" stroke-width="1" fill="none" fill-rule="evenodd">
        <g transform="translate(-1195.000000, -925.000000)" fill="currentColor" fill-rule="nonzero">
            <g transform="translate(1195.466667, 925.667373)">
                <path d="M26,23.4728685 C26.8284271,23.4728685 27.5,24.1444413 27.5,24.9728685 C27.5,25.73226 26.9356922,26.3598504 26.2035411,26.4591752 L26,26.4728685 L2,26.4728685 C1.17157288,26.4728685 0.5,25.8012956 0.5,24.9728685 C0.5,24.2134769 1.06430776,23.5858865 1.79645889,23.4865617 L2,23.4728685 L26,23.4728685 Z M21.6311666,9.61377637 C21.7459749,9.47941515 21.9305301,9.43986231 22.085751,9.50289295 L22.1951183,9.56952182 L27.0242521,13.6958969 L27.0685066,13.7401514 C27.1833149,13.8745126 27.193596,14.0629783 27.1071249,14.2064675 L27.0242521,14.3041031 L22.1951183,18.4304782 C22.1226866,18.4923693 22.0305424,18.5263751 21.9352697,18.5263751 C21.7511748,18.5263751 21.596127,18.4020097 21.5495581,18.2327109 L21.5352697,18.1263751 L21.5352697,9.87362495 C21.5352697,9.77835232 21.5692755,9.68620813 21.6311666,9.61377637 Z M17.1666545,12.5 C17.9950816,12.5 18.6666545,13.1715729 18.6666545,14 C18.6666545,14.7593915 18.1023467,15.3869819 17.3701956,15.4863068 L17.1666545,15.5 L2,15.5 C1.17157288,15.5 0.5,14.8284271 0.5,14 C0.5,13.2406085 1.06430776,12.6130181 1.79645889,12.5136932 L2,12.5 L17.1666545,12.5 Z M26,1.52713154 C26.8284271,1.52713154 27.5,2.19870442 27.5,3.02713154 C27.5,3.78652307 26.9356922,4.41411346 26.2035411,4.51343831 L26,4.52713154 L2,4.52713154 C1.17157288,4.52713154 0.5,3.85555867 0.5,3.02713154 C0.5,2.26774001 1.06430776,1.64014962 1.79645889,1.54082477 L2,1.52713154 L26,1.52713154 Z"></path>
            </g>
        </g>
    </g>
</svg>