<svg viewBox="0 0 29 29" version="1.1" xmlns="http://www.w3.org/2000/svg" xmlns:xlink="http://www.w3.org/1999/xlink">
        <g stroke="none" stroke-width="1" fill="none" fill-rule="evenodd">
        <g transform="translate(-1195.000000, -1028.000000)" fill="currentColor">
            <g transform="translate(1195.466667, 1028.026727)">
                <path d="M13.998,0.079 C21.6788132,0.079 27.922,6.32088884 27.922,13.999 C27.922,16.6741216 27.1744233,19.2386303 25.74915,21.4741583 L25.598,21.7 L27.1779144,25.9140589 C27.3182506,26.2916908 27.2985699,26.7047559 27.1336898,27.0613175 L27.0174563,27.2677385 L26.8906307,27.4305324 C26.6032593,27.7452726 26.2046354,27.921 25.784,27.921 C25.7047073,27.921 25.6309,27.9149088 25.5465733,27.9011983 L25.4101933,27.8747272 L20.106,26.506 L19.7392576,26.6841533 C18.3421917,27.3166176 16.8436083,27.7134645 15.3126104,27.858608 L14.6546854,27.9053551 L13.994,27.921 C6.32023949,27.921 0.078,21.6761639 0.078,13.999 C0.078,6.32153776 6.32053776,0.079 13.998,0.079 Z M13.998,3.053 C7.96516961,3.053 3.054,7.9647549 3.054,13.999 C3.054,20.0345378 7.96446224,24.945 13.998,24.945 C15.8225181,24.945 17.6255852,24.4880484 19.3216142,23.5778427 L19.2757833,23.5925666 C19.5442479,23.4583343 19.8397595,23.4097183 20.121758,23.4450924 L20.3300895,23.4873458 L23.388,24.276 L22.572929,22.1028716 C22.3826476,21.682411 22.3975954,21.1953238 22.6130451,20.7876239 L22.7374566,20.5910655 C24.1819259,18.6802121 24.944,16.4022361 24.944,13.999 C24.944,7.96375479 20.0338304,3.053 13.998,3.053 Z M8.034,12.6998 C8.5,12.4318 9.076,12.4318 9.536,12.6998 C9.998,12.9698 10.286,13.4618 10.286,13.9998 C10.286,14.5378 9.998,15.0358 9.536,15.2998 C9.07,15.5678 8.496,15.5678 8.034,15.2998 C7.572,15.0298 7.286,14.5378 7.286,13.9998 C7.286,13.4618 7.572,12.9698 8.034,12.6998 Z M13.2488,12.6998 C13.7148,12.4318 14.2888,12.4318 14.7508,12.6998 C15.2128,12.9698 15.4988,13.4618 15.4988,13.9998 C15.4988,14.5378 15.2128,15.0358 14.7508,15.2998 C14.2848,15.5678 13.7108,15.5678 13.2488,15.2998 C12.7868,15.0298 12.4988,14.5378 12.4988,13.9998 C12.4988,13.4618 12.7868,12.9698 13.2488,12.6998 Z M18.4638,12.6998 C18.9298,12.4318 19.5038,12.4318 19.9658,12.6998 C20.4278,12.9698 20.7138,13.4618 20.7138,13.9998 C20.7138,14.5378 20.4278,15.0358 19.9658,15.2998 C19.4998,15.5678 18.9238,15.5678 18.4638,15.2998 C18.0018,15.0298 17.7138,14.5378 17.7138,13.9998 C17.7138,13.4618 18.0018,12.9698 18.4638,12.6998 Z"></path>
            </g>
        </g>
    </g>
</svg>