<svg viewBox="0 0 30 29" version="1.1" xmlns="http://www.w3.org/2000/svg" xmlns:xlink="http://www.w3.org/1999/xlink">
        <g stroke="none" stroke-width="1" fill="none" fill-rule="evenodd">
        <g transform="translate(-434.000000, -410.000000)" fill="currentColor" fill-rule="nonzero">
            <g transform="translate(434.600000, 410.000000)">
                <path d="M17.8198492,0.000416517056 L17.9333428,0.00447682274 L17.9333428,0.00447682274 L18.1342461,0.0317917912 L18.1342461,0.0317917912 L18.3224577,0.0828125595 L18.3224577,0.0828125595 L18.4704533,0.141949802 L18.4704533,0.141949802 L18.5702593,0.191611788 L18.5702593,0.191611788 L18.6730499,0.253820198 L18.6730499,0.253820198 L18.8040255,0.348482389 L18.8040255,0.348482389 L18.9252847,0.457626148 L26.8652045,8.39879551 L26.943438,8.48297089 L26.943438,8.48297089 L27.0515898,8.62426716 L27.0515898,8.62426716 L27.0959365,8.6923981 L27.0959365,8.6923981 L27.1754902,8.8412077 L27.1754902,8.8412077 L27.242257,9.00759477 L27.242257,9.00759477 L27.2747264,9.11768599 L27.2747264,9.11768599 L27.2883557,9.1760356 C27.3116663,9.28379121 27.3235189,9.39374431 27.3235189,9.50491921 L27.3235189,27.438061 C27.3235189,28.2288099 26.7359093,28.8823151 25.9735258,28.9857413 L25.7615799,29 L3.23842011,29 C2.4476713,29 1.79416604,28.4123905 1.69073981,27.6500069 L1.67648115,27.438061 L1.67648115,1.56193896 C1.67648115,0.771190147 2.26409067,0.117684893 3.02647424,0.0142586617 L3.23842011,0 L17.8198492,0.000416517056 Z M16.2566607,3.12179533 L4.79931777,3.12283662 L4.79931777,25.8750808 L24.1985996,25.8750808 L24.1975583,11.0647756 L17.8198492,11.0651921 C17.0291004,11.0651921 16.3755951,10.4775826 16.2721689,9.71519901 L16.2579102,9.50325314 L16.2566607,3.12179533 Z M19.3805386,5.32933573 L19.3815799,7.93985637 L21.990018,7.93881508 L19.3805386,5.32933573 Z M19.7050054,19.512013 L9.29207899,19.512013 C8.43126464,19.512013 7.73014004,20.2121706 7.73014004,21.073952 C7.73014004,21.9357334 8.43126464,22.6358909 9.29207899,22.6358909 L19.7050054,22.6358909 C20.5673439,22.6358909 21.2669443,21.9362905 21.2669443,21.073952 C21.2669443,20.2116134 20.5673439,19.512013 19.7050054,19.512013 Z M19.7050054,13.9793537 L9.29207899,13.9793537 C8.43126464,13.9793537 7.73014004,14.6795112 7.73014004,15.5412926 C7.73014004,16.4030741 8.43126464,17.1032316 9.29207899,17.1032316 L19.7050054,17.1032316 C20.5673439,17.1032316 21.2669443,16.4036312 21.2669443,15.5412926 C21.2669443,14.6789541 20.5673439,13.9793537 19.7050054,13.9793537 Z"></path>
            </g>
        </g>
    </g>
</svg>