<svg viewBox="0 0 29 29" version="1.1" xmlns="http://www.w3.org/2000/svg" xmlns:xlink="http://www.w3.org/1999/xlink">
        <g stroke="none" stroke-width="1" fill="none" fill-rule="evenodd">
        <g transform="translate(-869.000000, -1028.000000)" fill="currentColor" fill-rule="nonzero">
            <g transform="translate(869.916667, 1028.026727)">
                <path d="M3.73288588,17.1706493 C4.28729239,17.7862181 4.23771056,18.7346704 3.62214177,19.2890769 C3.27618397,19.6006607 3.1483,19.8377708 3.1483,19.9984911 C3.1483,21.1279873 6.78124659,22.7475561 11.8403455,23.1067638 L11.7261397,22.978081 C11.3962466,22.6145253 11.3838486,22.0744401 11.6724201,21.6982532 L11.7947101,21.5655307 C12.1582658,21.2356376 12.698351,21.2232396 13.0745379,21.5118111 L13.2072603,21.6341011 L15.3632603,24.0101011 C15.6996492,24.3808155 15.705083,24.9333377 15.4019613,25.309098 L15.2738709,25.4410221 L12.6398709,27.7010221 C12.2207249,28.0606539 11.5894007,28.0124081 11.2297689,27.593262 C10.9100962,27.2206877 10.9126972,26.6804665 11.2116015,26.3124362 L11.3375291,26.18316 L11.4483,26.0858911 L11.4016198,26.0827999 C4.97802526,25.5898744 0.1483,23.370497 0.1483,19.9984911 C0.1483,18.892731 0.68565068,17.8964273 1.61445823,17.0599052 C2.23002701,16.5054987 3.17847938,16.5550805 3.73288588,17.1706493 Z M26.9180512,17.4780839 C27.4890535,18.1721199 27.8517,19.1471184 27.8517,19.9990911 C27.8517,22.862541 24.4513143,24.8433416 19.4682581,25.7222875 C18.652425,25.8661898 17.8744058,25.3214823 17.7305035,24.5056492 C17.5866012,23.6898161 18.1313088,22.9117968 18.9471419,22.7678946 C22.6080468,22.1221588 24.8517,20.8151807 24.8517,19.9990911 C24.8517,19.8913479 24.7879155,19.6929234 24.6982447,19.530217 L24.6013488,19.3840982 C24.0750175,18.7443585 24.1669532,17.7990712 24.8066929,17.2727399 C25.4464326,16.7464086 26.3917199,16.8383443 26.9180512,17.4780839 Z M19.9901,0.0578910503 C21.8259058,0.0578910503 23.3324306,1.47262557 23.4784935,3.27091373 L23.4901,3.55789105 L23.4901,16.9018911 C23.4901,18.7391612 22.0757799,20.2443681 20.2771395,20.3902956 L19.9901,20.4018911 L8.0101,20.4018911 C6.17239423,20.4018911 4.66757942,18.9889615 4.52169221,17.1891391 L4.5101,16.9018911 L4.5101,3.55789105 C4.5101,1.72164904 5.92344335,0.21551685 7.722914,0.0694942353 L8.0101,0.0578910503 L19.9901,0.0578910503 Z M19.9901,3.05789105 L8.0101,3.05789105 C7.77297126,3.05789105 7.57500199,3.22209818 7.52327871,3.44313434 L7.5101,3.55789105 L7.5101,16.9018911 C7.5101,17.1398107 7.67351585,17.337215 7.89500417,17.3887608 L8.0101,17.4018911 L19.9901,17.4018911 C20.2270964,17.4018911 20.4251602,17.2377973 20.4769132,17.0166964 L20.4901,16.9018911 L20.4901,3.55789105 C20.4901,3.32168573 20.3252148,3.12305688 20.1045661,3.07112629 L19.9901,3.05789105 Z M17.0721,11.3726913 L10.9281,11.3726913 C10.0984934,11.3726913 9.4281,12.044012 9.4281,12.8726913 C9.4281,13.7013707 10.0984934,14.3726913 10.9281,14.3726913 L17.0721,14.3726913 C17.9002424,14.3726913 18.5721,13.7008337 18.5721,12.8726913 C18.5721,12.0445489 17.9002424,11.3726913 17.0721,11.3726913 Z M17.0721,6.08709078 L10.9281,6.08709078 C10.0984934,6.08709078 9.4281,6.75841143 9.4281,7.58709078 C9.4281,8.41430756 10.0990273,9.08709078 10.9281,9.08709078 L17.0721,9.08709078 C17.8997073,9.08709078 18.5721,8.41376939 18.5721,7.58709078 C18.5721,6.7589484 17.9002424,6.08709078 17.0721,6.08709078 Z"></path>
            </g>
        </g>
    </g>
</svg>