<svg viewBox="0 0 29 29" version="1.1" xmlns="http://www.w3.org/2000/svg" xmlns:xlink="http://www.w3.org/1999/xlink">
        <g stroke="none" stroke-width="1" fill="none" fill-rule="evenodd">
        <g transform="translate(-218.000000, -1697.000000)" fill="currentColor" fill-rule="nonzero">
            <g transform="translate(218.816667, 1697.334746)">
                <path d="M19.197285,0.872403164 L19.197285,8.67737678 L18.2384959,8.64791045 C17.909833,5.89620837 15.7497242,4.01942968 14.5212048,3.70663323 C13.3628179,3.41223658 11.1985131,3.55956039 10.9478973,3.71208092 L10.9240456,3.74063285 L10.953512,22.7917498 C10.953512,23.7161906 11.9840289,24.1943446 12.301111,24.3195886 L12.392829,24.3534654 L14.3104072,24.3851984 L14.3398735,27.1275968 L4.85741151,27.1275968 L4.88687784,24.3851984 L6.80445606,24.3534654 L6.89617403,24.3195886 C7.21325615,24.1943446 8.24377305,23.7161906 8.24377305,22.7917498 L8.27323938,3.74063285 C8.27323938,3.57970134 5.90686625,3.39383678 4.67608023,3.70663323 C3.44756085,4.01942968 1.28745205,5.89620837 0.958789112,8.64791045 L0,8.67737678 L0,0.872403164 L19.197285,0.872403164 Z M28,14.5998995 L28,19.0714116 L27.5077989,19.0562849 C27.3390775,17.6436793 26.2301704,16.6802218 25.5995014,16.5196456 C25.0203215,16.3724507 23.9512919,16.4403594 23.7771424,16.5163346 L23.7528745,16.5370995 L23.7680013,24.4920387 C23.7680013,24.9282579 24.2149801,25.1709036 24.4136374,25.2572045 L24.5068847,25.2937564 L25.491287,25.3100467 L25.5064137,27.1275968 L20.2022449,27.1275968 L20.2173716,25.3100467 L21.2017739,25.2937564 L21.2950212,25.2572045 C21.4936784,25.1709036 21.9406573,24.9282579 21.9406573,24.4920387 L21.9557841,16.5370995 C21.9557841,16.4544842 20.7409898,16.3590693 20.1091572,16.5196456 C19.4784881,16.6802218 18.3695811,17.6436793 18.2008597,19.0562849 L17.7086586,19.0714116 L17.7086586,14.5998995 L28,14.5998995 Z"></path>
            </g>
        </g>
    </g>
</svg>