<svg viewBox="0 0 51 51" version="1.1" xmlns="http://www.w3.org/2000/svg" xmlns:xlink="http://www.w3.org/1999/xlink">
        <g stroke="none" stroke-width="1" fill="none" fill-rule="evenodd">
        <g transform="translate(-987.000000, -1909.000000)">
            <g transform="translate(987.120833, 1909.764423)">
                <path d="M5,0 L45,0 C47.7614237,0 50,2.23857625 50,5 L50,45 C50,47.7614237 47.7614237,50 45,50 L5,50 C2.23857625,50 0,47.7614237 0,45 L0,5 C0,2.23857625 2.23857625,0 5,0 Z" fill="#00BD97"></path>
                <path d="M18.288,31.224 C19.28,31.224 20.192,31.096 21.024,30.84 C21.808,30.584 22.496,30.232 23.088,29.768 L23.088,24.968 L18.192,24.968 L18.192,26.456 L21.344,26.456 L21.344,28.936 C20.96,29.176 20.544,29.368 20.064,29.496 C19.568,29.624 19.04,29.704 18.48,29.704 C17.056,29.704 16,29.304 15.328,28.504 C14.688,27.768 14.384,26.712 14.384,25.336 C14.384,23.928 14.72,22.824 15.424,22.024 C16.08,21.256 16.96,20.888 18.064,20.888 C18.96,20.888 19.696,21.08 20.24,21.48 C20.784,21.864 21.136,22.44 21.296,23.208 L23.056,23.208 C22.848,21.928 22.336,20.984 21.52,20.344 C20.672,19.672 19.52,19.352 18.064,19.352 C16.384,19.352 15.04,19.928 14.048,21.112 C13.104,22.216 12.64,23.624 12.64,25.336 C12.64,27.032 13.104,28.424 14.048,29.496 C15.056,30.648 16.464,31.224 18.288,31.224 Z M26.944,31 L26.944,19.576 L25.216,19.576 L25.216,31 L26.944,31 Z M30.96,31 L30.96,25.88 L36.64,25.88 L36.64,24.392 L30.96,24.392 L30.96,21.064 L36.976,21.064 L36.976,19.576 L29.216,19.576 L29.216,31 L30.96,31 Z" fill="#FFFFFF" fill-rule="nonzero"></path>
            </g>
        </g>
    </g>
</svg>