<svg viewBox="0 0 29 29" version="1.1" xmlns="http://www.w3.org/2000/svg" xmlns:xlink="http://www.w3.org/1999/xlink">
        <g stroke="none" stroke-width="1" fill="none" fill-rule="evenodd">
        <g transform="translate(-542.000000, -1130.000000)" fill="currentColor">
            <g transform="translate(542.658325, 1130.578064)">
                <path d="M18.9914,0.0477 C20.2384085,0.0477 21.2654401,0.996793616 21.388948,2.21143386 L21.4014,2.4577 L21.4,4.1137 L25.464,4.1143 C26.7110085,4.1143 27.7380401,5.06339362 27.861548,6.27803386 L27.874,6.5243 L27.874,25.5403 C27.874,26.7888175 26.9252493,27.8162866 25.7103304,27.9398432 L25.464,27.9523 L2.536,27.9523 C1.28862573,27.9523 0.261914153,27.0028633 0.138447762,25.7868539 L0.126,25.5403 L0.126,6.5243 C0.126,5.27729152 1.07509362,4.25025988 2.28973386,4.12675205 L2.536,4.1143 L6.596,4.1137 L6.5974,2.4577 C6.5974,1.20975402 7.54561471,0.18354269 8.76261702,0.0601410628 L9.0094,0.0477 L18.9914,0.0477 Z M24.964,15.5817 L20.317,15.5817 L20.3171064,16.3525315 C20.3171064,17.144837 19.7108124,17.795148 18.9388581,17.8649594 L18.8010009,17.8711638 L9.19899913,17.8711638 C8.3600874,17.8711638 7.68289359,17.1914432 7.68289359,16.3525315 L7.68289359,16.3525315 L7.682,15.5817 L3.036,15.5817 L3.036,24.7763 C3.036,24.8929861 3.11161112,24.9919344 3.21653467,25.0268463 L3.3,25.0403 L24.7,25.0403 C24.8166861,25.0403 24.9156344,24.9646889 24.9505463,24.8597653 L24.964,24.7763 L24.964,15.5817 Z M17.7902638,12.8174787 L10.2097362,12.8174787 L10.2097362,15.3443213 L17.7902638,15.3443213 L17.7902638,12.8174787 Z M24.7,7.0243 L3.3,7.0243 C3.1833139,7.0243 3.08436556,7.09991112 3.04945367,7.20483467 L3.036,7.2883 L3.036,12.5787 L7.682,12.5787 L7.68289359,11.8067417 C7.68289359,11.0168226 8.28693374,10.3666442 9.06076628,10.2968402 L9.19899913,10.2906362 L18.8010009,10.2906362 C19.6373858,10.2906362 20.3171064,10.9703568 20.3171064,11.8067417 L20.3171064,11.8067417 L20.317,12.5787 L24.964,12.5787 L24.964,7.2883 C24.964,7.14244237 24.8458576,7.0243 24.7,7.0243 Z M18.4902,2.9575 L9.5082,2.9575 L9.5082,3.9575 L18.4902,3.9575 L18.4902,2.9575 Z"></path>
            </g>
        </g>
    </g>
</svg>