<svg viewBox="0 0 29 29" version="1.1" xmlns="http://www.w3.org/2000/svg" xmlns:xlink="http://www.w3.org/1999/xlink">
        <g stroke="none" stroke-width="1" fill="none" fill-rule="evenodd">
        <g transform="translate(-218.000000, -719.000000)" fill="currentColor">
            <g transform="translate(218.816667, 719.756682)">
                <path d="M14,0 C21.73,0 28,6.268 28,14 C28,21.732 21.73,28 14,28 C6.268,28 0,21.732 0,14 C0,6.268 6.268,0 14,0 Z M14,3 C7.934,3 3,7.936 3,14 C3,20.066 7.934,25 14,25 C20.064,25 25,20.066 25,14 C25,7.936 20.064,3 14,3 Z M14.072,18.4886 C14.4851453,18.4886 14.8787772,18.6361639 15.1469848,18.9016152 C15.4131753,19.1678056 15.56,19.5607881 15.56,19.9786 C15.56,20.3959999 15.4132709,20.7872994 15.1454421,21.0551196 C14.8786441,21.3191672 14.4849501,21.4666 14.072,21.4666 C13.6574603,21.4666 13.2617773,21.318347 12.9970152,21.0535848 C12.7299761,20.7865458 12.582,20.3941876 12.582,19.9786 C12.582,19.5624154 12.7302109,19.1684194 12.9970152,18.9016152 C13.2617773,18.636853 13.6574603,18.4886 14.072,18.4886 Z M14.2308992,6.7621756 C15.4182541,6.7621756 16.4693318,7.12388271 17.2286701,7.79062212 C18.1453946,8.50596095 18.5293251,9.53492086 18.3420618,10.705377 C18.3420618,11.8083152 17.6910693,12.9336141 16.449853,14.0259889 L16.449853,14.0259889 L15.902163,14.4913679 C15.4032289,14.9515327 15.1311697,15.4386598 15.0731165,15.9417447 L15.0731165,15.9417447 L15.0590248,16.1823 L15.0590248,16.4333762 C15.0590248,17.0926876 14.5393735,17.5974244 13.893245,17.5974244 C13.3288013,17.5974244 12.8479315,17.2045401 12.7445761,16.6215839 L12.7445761,16.6215839 L12.7292164,16.4299456 L12.7336999,16.0423414 C12.755535,15.3107217 12.8544131,14.7219643 13.0176029,14.395429 C13.1944827,13.9568392 13.5067067,13.5415747 14.0002164,13.0817784 L14.0002164,13.0817784 L14.2497135,12.8590248 L14.8118032,12.3796879 C15.5293845,11.6604645 15.8460041,11.1056311 15.8460041,10.6205306 C15.8460041,10.1219699 15.7098964,9.78801646 15.3984866,9.53636524 C15.0883012,9.22490336 14.7181336,9.09027208 14.1460527,9.09027208 C12.7327117,9.09027208 12.1101788,9.800063 12.1101788,11.4638001 C12.1101788,12.1564508 11.5536641,12.7126948 10.8612842,12.7126948 C10.1681715,12.7126948 9.61238953,12.1574532 9.61238953,11.4638001 C9.61238953,10.0828748 10.0249735,8.9298419 10.8521225,8.00190862 C11.6873277,7.16670346 12.8064231,6.7621756 14.2308992,6.7621756 Z"></path>
            </g>
        </g>
    </g>
</svg>