<svg viewBox="0 0 29 29" version="1.1" xmlns="http://www.w3.org/2000/svg" xmlns:xlink="http://www.w3.org/1999/xlink">
        <g stroke="none" stroke-width="1" fill="none" fill-rule="evenodd">
        <g transform="translate(-978.000000, -925.000000)" fill="currentColor" fill-rule="nonzero">
            <g transform="translate(978.433333, 925.667373)">
                <path d="M24.0298075,7.52270228 C21.252121,11.4480878 17.9460191,13.3627204 13.996145,13.3627204 C10.0465297,13.3627204 6.74239838,11.4483643 3.9681046,7.52335953 C3.4843255,6.83892038 2.53729748,6.67625327 1.85285833,7.16003237 C1.16841917,7.64381148 1.00575206,8.59083949 1.48953117,9.27527864 L1.98872377,9.95571321 C2.49430749,10.6193767 3.0190374,11.232683 3.56266878,11.7952362 L3.90472364,12.1359716 L1.14744025,15.2348551 L1.02365365,15.3949887 C0.600933779,16.0383127 0.708244454,16.8756951 1.27197867,17.3774851 L1.45043163,17.5143001 C2.06913083,17.9199002 2.90797704,17.8220708 3.41458413,17.2529248 L6.25472364,14.0579716 L6.58307822,14.2763888 C7.32394159,14.7435963 8.09154075,15.1341973 8.88513283,15.447641 L9.20472364,15.5639716 L8.01557795,19.1186759 L7.96792352,19.2981926 C7.82224529,20.0595582 8.25082327,20.7977907 8.97298732,21.0395198 L9.17266578,21.0917484 C9.90700219,21.2315809 10.6499564,20.810684 10.893831,20.0821104 L12.1647236,16.2799716 L11.9162196,16.2510124 C12.5944663,16.348946 13.2879117,16.3979382 13.996145,16.3979382 L14.7644516,16.378426 C15.0185804,16.3654188 15.2707293,16.3459093 15.5208783,16.3199001 L16.0107236,16.2539716 L17.291858,20.0820316 C17.5579293,20.876918 18.4179204,21.3055648 19.212728,21.0395198 L19.4036115,20.9610161 C20.0741526,20.6305956 20.4140121,19.8472498 20.1701375,19.1186761 L18.9567236,15.4999716 L19.365646,15.3427453 C20.0406761,15.0599415 20.6966119,14.7205898 21.332991,14.3250395 L21.7407236,14.0559716 L24.5828169,17.2528728 C25.140131,17.8789854 26.0994081,17.9347529 26.7254686,17.3774851 L26.8820408,17.2160882 C27.3566023,16.6485571 27.356636,15.8040256 26.8500289,15.2348796 L24.0887236,12.1339716 L23.8838286,12.3396858 C24.8108413,11.4589986 25.6857584,10.4371402 26.5074513,9.27593589 C26.9915934,8.59175346 26.8294286,7.64463929 26.1452462,7.1604972 C25.4610638,6.6763551 24.5139496,6.83851984 24.0298075,7.52270228 Z"></path>
            </g>
        </g>
    </g>
</svg>