<svg viewBox="0 0 29 29" version="1.1" xmlns="http://www.w3.org/2000/svg" xmlns:xlink="http://www.w3.org/1999/xlink">
        <g stroke="none" stroke-width="1" fill="none" fill-rule="evenodd">
        <g transform="translate(-868.000000, -410.000000)" fill="currentColor" fill-rule="nonzero">
            <g transform="translate(858.600000, 400.500000)">
                <g transform="translate(10.000000, 10.000000)">
                    <path d="M23.607176,4.53872357 L5.89282404,4.53872357 C3.95982742,4.53872357 2.39282404,6.10572695 2.39282404,8.03872357 L2.39282404,25.4140533 C2.39282404,26.7947652 3.51211217,27.9140533 4.89282404,27.9140533 L23.107176,27.9140533 C24.4878878,27.9140533 25.607176,26.7947652 25.607176,25.4140533 L25.607176,6.53872357 C25.607176,5.43415407 24.7117455,4.53872357 23.607176,4.53872357 Z M22.606,7.538 L22.606,24.914 L5.392,24.914 L5.39282404,8.03872357 C5.39282404,7.7625812 5.61668167,7.53872357 5.89282404,7.53872357 L22.606,7.538 Z"></path>
                    <path d="M13.6508048,10.7044638 C16.5072505,10.7044638 18.8226672,13.0198806 18.8226672,15.8763263 C18.8226672,16.8290665 18.5635892,17.7503309 18.0708762,18.5613972 L18.0112201,18.6462673 L19.1977876,19.8324548 C19.4200033,20.0554316 19.5332202,20.354526 19.5200217,20.6685844 L19.4967935,20.8583259 L19.4423896,21.0487233 L19.3712171,21.194293 L19.2773913,21.3317894 L19.1970668,21.4225883 C18.8454116,21.7742435 18.3127934,21.8475766 17.8656265,21.6112467 L17.7024648,21.5080463 L17.6054053,21.4224862 L16.42122,20.2382673 L16.3426898,20.2933197 C15.9045305,20.5608534 15.4295819,20.760912 14.9295726,20.8879334 L14.55005,20.969418 L14.1622292,21.0229924 L13.8907374,21.0425694 L13.6508048,21.0481888 C10.794359,21.0481888 8.47894229,18.732772 8.47894229,15.8763263 C8.47894229,13.0198806 10.794359,10.7044638 13.6508048,10.7044638 Z M13.6508048,12.953935 C12.0395463,12.953935 10.7284135,14.2651239 10.7284135,15.8763263 C10.7284135,17.4875287 12.0395463,18.7987176 13.6508048,18.7987176 C15.2616832,18.7987176 16.573196,17.4872048 16.573196,15.8763263 C16.573196,14.2654478 15.2616832,12.953935 13.6508048,12.953935 Z"></path>
                    <path d="M20.2912259,0.07591982 C21.5856433,0.07591982 22.6502937,1.05966915 22.7783187,2.32030934 L22.7904455,2.63602264 L22.6026776,5.55752556 L19.6089964,5.36291547 L19.758,3.074 L5.392,3.074 L5.39282404,9.46022051 L2.39282404,9.46022051 L2.39282404,2.57591982 C2.39282404,1.28150244 3.37657337,0.216852022 4.63721357,0.0888270382 L4.89282404,0.07591982 L20.2912259,0.07591982 Z"></path>
                </g>
            </g>
        </g>
    </g>
</svg>