<svg viewBox="0 0 29 29" version="1.1" xmlns="http://www.w3.org/2000/svg" xmlns:xlink="http://www.w3.org/1999/xlink">
        <g stroke="none" stroke-width="1" fill="none" fill-rule="evenodd">
        <g transform="translate(-1195.000000, -822.000000)" fill="currentColor">
            <g transform="translate(1195.466667, 822.770046)">
                <path d="M13.999,0.116 C14.4947996,0.116 14.9774686,0.266758024 15.38499,0.5518012 L15.619989,0.738809541 L16.5984406,1.62276362 C16.7331702,1.55948049 16.8788492,1.51565078 17.0318589,1.49489323 L17.2354,1.4812 L24.5834,1.4812 C25.3427915,1.4812 25.9703819,2.04550776 26.0697068,2.77765889 L26.0834,2.9812 L26.0834,10.1092 L26.079,10.178 L27.4335204,11.4001973 C27.6871717,11.63102 27.8510428,11.9419553 27.8986206,12.2767269 L27.913,12.48 L27.913,25.468 C27.913,26.7187585 26.9621486,27.7477823 25.7439927,27.8715245 L25.497,27.884 L16.873,27.884 C16.1353837,27.884 15.524939,27.3358143 15.4283205,26.6239223 L15.415,26.426 L15.415,22.594 C15.415,21.8121424 14.7808576,21.178 13.999,21.178 C13.2834235,21.178 12.6899039,21.7115035 12.5959533,22.4020564 L12.583,22.594 L12.583,26.426 C12.583,27.1649638 12.0352585,27.7742856 11.3230334,27.8707076 L11.125,27.884 L2.503,27.884 C1.25224152,27.884 0.22321769,26.9331486 0.0994754866,25.7149927 L0.087,25.468 L0.087,12.482 C0.087,12.1386198 0.208387466,11.8088299 0.426056569,11.5471837 L0.568010981,11.3988095 L12.3801814,0.738655778 C12.8297404,0.333315687 13.4057261,0.116 13.999,0.116 Z M13.998,3.204 L3.15552042,12.9918027 C3.0908099,13.0506892 3.04459322,13.1255445 3.02097216,13.2067149 L3.003,13.332 L3.003,24.51 C3.003,24.7207147 3.14545998,24.8982938 3.33811888,24.9516336 L3.459,24.968 L9.209,24.968 C9.42054802,24.968 9.59757156,24.8262345 9.65070308,24.6320709 L9.667,24.51 L9.667,22.594 C9.667,19.9290719 12.0554923,17.8812728 14.7280963,18.3226204 C16.7145438,18.6491309 18.1783616,20.4214604 18.3197773,22.4823647 L18.331,22.81 L18.331,24.51 C18.331,24.720961 18.4736652,24.8983759 18.6685363,24.9516542 L18.791,24.968 L24.539,24.968 C24.7495917,24.968 24.9272528,24.825643 24.9806234,24.6317752 L24.997,24.51 L24.997,13.332 C24.997,13.246928 24.9723535,13.1633442 24.9276238,13.0913206 L24.8460374,12.9932143 L13.998,3.204 Z M23.082,4.48 L19.765,4.48 L23.083,7.474 L23.082,4.48 Z"></path>
            </g>
        </g>
    </g>
</svg>