<svg viewBox="0 0 29 29" version="1.1" xmlns="http://www.w3.org/2000/svg" xmlns:xlink="http://www.w3.org/1999/xlink">
        <g stroke="none" stroke-width="1" fill="none" fill-rule="evenodd">
        <g transform="translate(-1193.000000, -514.000000)" fill="currentColor">
            <g transform="translate(1183.716667, 504.308018)">
                <g transform="translate(10.000000, 10.000000)">
                    <path d="M13.945,0.705 C15.0237505,0.705 15.8711267,1.46677496 15.9793158,2.7696181 L15.991,3.057 L15.991,24.931 C15.991,26.4157081 15.1057265,27.295 13.953,27.295 C13.2345056,27.295 12.4963552,26.9389664 11.7385027,26.2587192 L11.4533843,25.9884911 L5.922,20.456 L3.561,20.457 C1.83763246,20.457 0.403715361,19.2007886 0.127170134,17.5547212 L0.0905589343,17.2603681 L0.079,16.975 L0.079,11.011 C0.079,9.18815818 1.48915243,7.68621082 3.27590261,7.54057319 L3.561,7.529 L5.922,7.528 L11.4514466,2.00144661 C12.111271,1.34162226 12.7626317,0.923921171 13.4010539,0.770860162 L13.6738583,0.721530687 L13.945,0.705 Z M23.3033629,3.68728941 L23.4617065,3.84214861 L23.9178314,4.37313883 C26.5810794,7.53971636 27.921,10.3782013 27.921,13.9932 C27.921,17.8110506 26.4271672,20.763465 23.4616259,24.1443426 C23.2769677,24.3532489 23.0428493,24.5038757 22.763548,24.587534 L22.5456671,24.6375854 L22.339,24.6532 C21.9787352,24.6532 21.6303155,24.5218544 21.3549739,24.2828098 C20.7347344,23.7378422 20.6714421,22.7931122 21.216773,22.1758775 C23.7568836,19.2739859 24.933,16.9747053 24.933,13.9932 C24.933,11.0111212 23.7552259,8.70942836 21.2174993,5.81535034 C20.6718485,5.19474752 20.7349137,4.25340785 21.3540683,3.7063878 C21.9152856,3.21087396 22.7463357,3.21731693 23.3033629,3.68728941 Z M13.002,4.676 L7.60055339,10.0785534 C7.37562807,10.3034787 7.08813049,10.4491293 6.77964735,10.4983926 L6.545,10.517 L3.561,10.517 C3.32797918,10.517 3.13148385,10.6802066 3.08009785,10.8980361 L3.067,11.011 L3.067,16.975 C3.067,17.20901 3.22958459,17.4047988 3.44776949,17.4559627 L3.561,17.469 L6.545,17.469 C6.86099105,17.469 7.16677992,17.5707152 7.42059236,17.7555378 L7.60055339,17.9094466 L13.002,23.31 L13.002,4.676 Z M20.0310471,7.16268866 L20.1730667,7.3335809 L21.0656973,8.53411738 C22.4211465,10.4037908 22.9502,11.7418447 22.9502,13.9922 C22.9502,16.0146808 22.402198,17.4715689 21.2126037,19.2172612 L20.9017844,19.6601955 L20.1732689,20.6545359 C19.9917377,20.9090539 19.7403739,21.0945548 19.4310562,21.1975724 L19.1883871,21.2591595 L18.9582,21.2782 C18.6446364,21.2782 18.3377971,21.1787903 18.0867199,20.9964504 C17.4780287,20.5597212 17.2968302,19.7502591 17.6306134,19.0994452 L17.7462853,18.9094918 L18.4295845,17.9729478 C19.6107409,16.3295245 19.9622,15.4865497 19.9622,13.9922 C19.9622,12.7404006 19.7052627,11.8910634 19.0906872,10.9257585 L18.7569383,10.4358729 L17.7459496,9.07568008 C17.2651169,8.40551946 17.4163614,7.47392778 18.0851906,6.99105125 C18.635133,6.59332508 19.3604711,6.62440553 19.8698059,7.01811299 L20.0310471,7.16268866 Z"></path>
                </g>
            </g>
        </g>
    </g>
</svg>