<svg viewBox="0 0 51 51" version="1.1" xmlns="http://www.w3.org/2000/svg" xmlns:xlink="http://www.w3.org/1999/xlink">
        <g stroke="none" stroke-width="1" fill="none" fill-rule="evenodd">
        <g transform="translate(-825.000000, -1909.000000)">
            <g transform="translate(825.462500, 1909.764423)">
                <path d="M5,0 L45,0 C47.7614237,0 50,2.23857625 50,5 L50,45 C50,47.7614237 47.7614237,50 45,50 L5,50 C2.23857625,50 0,47.7614237 0,45 L0,5 C0,2.23857625 2.23857625,0 5,0 Z" fill="#2688E8"></path>
                <path d="M20.08,31.136 L20.08,29.6 L14,26.992 L20.08,24.384 L20.08,22.848 L12,26.352 L12,27.616 L20.08,31.136 Z M22.832,32.72 L28.416,18 L26.944,18 L21.344,32.72 L22.832,32.72 Z M29.68,31.136 L37.76,27.616 L37.76,26.352 L29.68,22.848 L29.68,24.384 L35.76,26.992 L29.68,29.6 L29.68,31.136 Z" fill="#FFFFFF" fill-rule="nonzero"></path>
            </g>
        </g>
    </g>
</svg>