<svg viewBox="0 0 51 51" version="1.1" xmlns="http://www.w3.org/2000/svg" xmlns:xlink="http://www.w3.org/1999/xlink">
        <g stroke="none" stroke-width="1" fill="none" fill-rule="evenodd">
        <g transform="translate(-259.000000, -1909.000000)">
            <g transform="translate(259.658333, 1909.764423)">
                <path d="M5,0 L45,0 C47.7614237,0 50,2.23857625 50,5 L50,45 C50,47.7614237 47.7614237,50 45,50 L5,50 C2.23857625,50 0,47.7614237 0,45 L0,5 C0,2.23857625 2.23857625,0 5,0 Z" fill="#FAAD14"></path>
                <path d="M17.1428571,32.6190476 C16.3538789,32.6190476 15.7142857,31.9794544 15.7142857,31.1904762 L15.7142857,31.1904762 L15.7142857,19.2857143 C15.7142857,18.4967361 16.3538789,17.8571429 17.1428571,17.8571429 L17.1428571,17.8571429 L32.8571429,17.8571429 C33.6461211,17.8571429 34.2857143,18.4967361 34.2857143,19.2857143 L34.2857143,19.2857143 L34.2857143,31.1904762 C34.2857143,31.9794544 33.6461211,32.6190476 32.8571429,32.6190476 L32.8571429,32.6190476 Z M29.8564286,23.4457143 L26.627547,28.2003975 C26.4271314,28.4954814 26.0436356,28.5940445 25.72955,28.4440465 L25.6526208,28.4013385 L22.5507143,26.4235714 L18.8412857,31.1901429 L32.8571429,31.1904762 L32.8562857,26.0401429 L29.8564286,23.4457143 Z M32.8571429,19.2857143 L17.1428571,19.2857143 L17.1422857,31.0461429 L21.8229434,25.0329664 C22.0319054,24.764417 22.3978252,24.6833657 22.6973466,24.8283702 L22.7707144,24.8693531 L25.835,26.8235714 L29.1256668,21.979633 C29.3497654,21.6496793 29.7956662,21.5710746 30.116944,21.7893228 L30.1837555,21.8406505 L32.8562857,24.1511429 L32.8571429,19.2857143 Z" fill="#FFFFFF" fill-rule="nonzero"></path>
            </g>
        </g>
    </g>
</svg>