<svg viewBox="0 0 29 29" version="1.1" xmlns="http://www.w3.org/2000/svg" xmlns:xlink="http://www.w3.org/1999/xlink">
        <g stroke="none" stroke-width="1" fill="none" fill-rule="evenodd">
        <g transform="translate(-980.000000, -719.000000)" fill="currentColor">
            <g transform="translate(980.450000, 719.756682)">
                <path d="M26.5,25 C27.3284271,25 28,25.6715729 28,26.5 C28,27.3284271 27.3284271,28 26.5,28 L1.5,28 C0.671572875,28 0,27.3284271 0,26.5 C0,25.6715729 0.671572875,25 1.5,25 L26.5,25 Z M26.5,0 C27.3284271,-1.52179594e-16 28,0.671572875 28,1.5 L28,20.5 C28,21.3284271 27.3284271,22 26.5,22 L1.5,22 C0.671572875,22 5.07265313e-17,21.3284271 0,20.5 L0,1.5 C-1.01453063e-16,0.671572875 0.671572875,1.01453063e-16 1.5,0 L26.5,0 Z M24.5,3 L3.5,3 C3.25454011,3 3.05039163,3.17687516 3.00805567,3.41012437 L3,3.5 L3,18.5 C3,18.7454599 3.17687516,18.9496084 3.41012437,18.9919443 L3.5,19 L24.5,19 C24.7454599,19 24.9496084,18.8231248 24.9919443,18.5898756 L25,18.5 L25,3.5 C25,3.22385763 24.7761424,3 24.5,3 Z M13.1037585,4.63870603 C13.4709442,3.89679472 14.5290558,3.89679472 14.8962415,4.63870603 L14.8962415,4.63870603 L16.406,7.688 L19.7729962,8.18187578 C20.5335577,8.29325896 20.8698156,9.16891256 20.4398772,9.75659914 L20.4398772,9.75659914 L20.3269039,9.88662833 L17.892,12.262 L18.4641493,15.6195974 C18.5939061,16.3812396 17.8568591,16.9737966 17.1619362,16.7368938 L17.1619362,16.7368938 L17.0140002,16.6731924 L14,15.092 L10.9859998,16.6731924 C10.3017321,17.0319588 9.51041677,16.5140956 9.5209818,15.7799778 L9.5209818,15.7799778 L9.53585065,15.6195974 L10.106,12.262 L7.67309608,9.88662833 C7.12325831,9.34947063 7.36591625,8.44340457 8.05917721,8.22066758 L8.05917721,8.22066758 L8.22700376,8.18187578 L11.592,7.688 Z M14,7.336 L13.1541534,9.04578805 C13.0085122,9.34006116 12.7276909,9.54408976 12.402815,9.5916674 L12.402815,9.5916674 L10.514,9.866 L11.880053,11.2005632 C12.0679448,11.3841219 12.1741723,11.6321138 12.1809143,11.8896912 L12.1809143,11.8896912 L12.1670388,12.0838145 L11.846,13.962 L13.5356473,13.0781668 C13.7682838,12.9561939 14.0369642,12.9317993 14.2840182,13.0049831 L14.2840182,13.0049831 L14.4643527,13.0781668 L16.152,13.962 L15.8329612,12.0838145 C15.7888467,11.8248724 15.8486728,11.5618038 15.9946187,11.3494565 L15.9946187,11.3494565 L16.119947,11.2005632 L17.484,9.866 L15.597185,9.5916674 C15.3372843,9.55360529 15.1055785,9.41541456 14.9487239,9.21099292 L14.9487239,9.21099292 L14.8458466,9.04578805 L14,7.336 Z"></path>
            </g>
        </g>
    </g>
</svg>