<svg viewBox="0 0 28 28" version="1.1" xmlns="http://www.w3.org/2000/svg" xmlns:xlink="http://www.w3.org/1999/xlink">
        <g stroke="none" stroke-width="1" fill="none" fill-rule="evenodd">
        <g transform="translate(-110.000000, -1130.000000)" fill="currentColor">
            <g transform="translate(110.000000, 1130.000000)">
                <path d="M7.879,8.92718902 L10.6918,14.915389 L10.7107925,15.1101356 C10.7820661,16.0748339 10.8173429,20.295389 5.9778,20.295389 C1.07118889,20.295389 0.926570062,16.3060526 0.981047299,15.1979036 L1.0038,14.915389 L3.983,8.92718902 L1.587,8.92858902 C0.771389404,8.92858902 0.113,8.26926441 0.113,7.45458902 C0.113,6.70639756 0.665837266,6.08964045 1.38656464,5.99204337 L1.587,5.97858902 L12.523,5.97718902 L12.5248,1.60318902 C12.5248,0.786980154 13.182722,0.127189022 13.9988,0.127189022 C14.7468715,0.127189022 15.362048,0.681596849 15.4593825,1.40268681 L15.4728,1.60318902 L15.471,5.97718902 L26.411,5.97858902 C27.2271424,5.97858902 27.887,6.63844665 27.887,7.45458902 C27.887,8.20131479 27.3321433,8.81761276 26.61139,8.91514349 L26.411,8.92858902 L23.993,8.92718902 L26.8032,14.915389 L26.8230234,15.1216006 C26.8913528,16.0758378 26.9084944,20.0275174 22.5406539,20.2824645 L22.0872,20.295389 C17.3405333,20.295389 17.0522,16.5592779 17.0879407,15.3139075 L17.1152,14.915389 L20.095,8.92718902 L15.471,8.92718902 L15.471,24.922811 L18.6746,24.922811 C19.490678,24.922811 20.1486,25.5826021 20.1486,26.398811 C20.1486,27.1455967 19.59537,27.7618447 18.8749372,27.8593667 L18.6746,27.872811 L9.3246,27.872811 C8.51039265,27.872811 7.8486,27.2128904 7.8486,26.398811 C7.8486,25.6511678 8.40429646,25.0339538 9.12441995,24.9362767 L9.3246,24.922811 L12.523,24.922811 L12.523,8.92718902 L7.879,8.92718902 Z M22.0417066,10.9402438 L19.5111767,16.0274725 C19.5399624,16.5220642 19.665573,17.2024549 20.0005346,17.571436 C20.3943761,18.0087833 21.2670671,18.1195512 21.8805483,18.1404096 L22.125447,18.1445343 C22.6462076,18.1445343 23.5725856,18.0843459 23.9441836,17.6682608 C24.216776,17.3629573 24.3494377,16.7977823 24.396687,16.2937893 L24.4152233,16.0013036 L22.0417066,10.9402438 Z M5.92960882,10.944084 L3.40177668,16.0258893 C3.43053175,16.5199537 3.55600842,17.199619 3.89061288,17.5682067 C4.28403454,18.0050877 5.15579516,18.1157376 5.77037353,18.1365738 L6.01587404,18.140694 C6.53607941,18.140694 7.46931217,18.0779557 7.84051399,17.6544719 C8.12370787,17.3277098 8.24352067,16.7467992 8.28769407,16.2732966 L8.30582332,16.0049765 L5.92960882,10.944084 Z"></path>
            </g>
        </g>
    </g>
</svg>