<svg viewBox="0 0 29 29" version="1.1" xmlns="http://www.w3.org/2000/svg" xmlns:xlink="http://www.w3.org/1999/xlink">
        <g stroke="none" stroke-width="1" fill="none" fill-rule="evenodd">
        <g transform="translate(-435.000000, -1130.000000)" fill="currentColor" fill-rule="nonzero">
            <g transform="translate(435.850000, 1130.578064)">
                <path d="M23.9509592,17.3289095 C24.6206382,16.8428142 25.5575784,16.9916381 26.0436737,17.6613171 C26.4375961,18.2040123 26.4175563,18.9308378 26.0172606,19.4544332 L25.8697914,19.6209066 L25.7112661,19.7540316 L14.8815139,27.6149499 C14.4828836,27.9043009 13.9730146,27.9760399 13.508098,27.8153324 L13.3120556,27.7321831 L13.1212992,27.6150167 L2.28981594,19.7540985 C1.62010002,19.2680541 1.47120486,18.3311252 1.95724929,17.6614093 C2.35113049,17.1186842 3.04837646,16.9124684 3.67025458,17.130772 L3.87423636,17.2193835 L4.04994496,17.3288473 L13.9984949,24.5487127 L23.9509592,17.3289095 Z M23.9509592,12.4094738 C24.6206382,11.9233785 25.5575784,12.0722024 26.0436737,12.7418814 C26.4375961,13.2845766 26.4175563,14.0114021 26.0172606,14.5349975 L25.8697914,14.701471 L25.7112661,14.8345959 L14.8815139,22.6955142 C14.4828836,22.9848652 13.9730146,23.0566042 13.508098,22.8958968 L13.3120556,22.8127475 L13.1212992,22.695581 L2.28981594,14.8346628 C1.62010002,14.3486184 1.47120486,13.4116895 1.95724929,12.7419736 C2.35113049,12.1992485 3.04837646,11.9930327 3.67025458,12.2113363 L3.87423636,12.2999479 L4.04994131,12.4094089 L13.9984949,19.6287127 L23.9509592,12.4094738 Z M13.9999756,0.100712658 C14.1080125,0.100712658 14.2150207,0.117577908 14.3214344,0.152896294 L14.4806633,0.219912212 L14.6073649,0.298120488 L25.3434927,8.09142073 C25.7974794,8.42034688 25.8958821,9.03825476 25.5969351,9.49609496 L25.4825122,9.64216395 L25.3436206,9.76377048 L14.6086469,17.554494 C14.4316749,17.6851161 14.2196209,17.7528402 13.9999756,17.7528402 C13.8921983,17.7528402 13.785882,17.7362335 13.6800065,17.7010723 L13.5213965,17.6341713 L13.3943345,17.5554448 L2.65818956,9.76386323 C2.20420295,9.43493708 2.10580019,8.8170292 2.40474719,8.359189 L2.51917014,8.21312001 L2.65804457,8.09152589 L13.3951968,0.297485754 C13.5746435,0.168706351 13.7847053,0.100712658 13.9999756,0.100712658 Z M14.0004949,3.55671266 L6.60649489,8.92671266 L13.9984949,14.2927127 L21.3964949,8.92471266 L14.0004949,3.55671266 Z"></path>
            </g>
        </g>
    </g>
</svg>