<svg viewBox="0 0 29 29" version="1.1" xmlns="http://www.w3.org/2000/svg" xmlns:xlink="http://www.w3.org/1999/xlink">
        <g stroke="none" stroke-width="1" fill="none" fill-rule="evenodd">
        <g transform="translate(-1193.000000, -410.000000)" fill="currentColor" fill-rule="nonzero">
            <g transform="translate(1183.716667, 400.500000)">
                <g transform="translate(10.000000, 10.000000)">
                    <path d="M17.4895425,10.7956314 C19.9404191,13.246508 20.0249321,17.1676544 17.7430815,19.719929 L17.4895425,19.9880196 L11.5387096,25.9388525 C9.087833,28.3897291 5.16668656,28.4742421 2.61441205,26.1923915 L2.34632143,25.9388525 L2.0642541,25.6567852 C-0.386622485,23.2059086 -0.471135471,19.2847621 1.81071515,16.7324876 L2.0642541,16.464397 L3.72651511,14.802136 C4.31230155,14.2163496 5.26204902,14.2163496 5.84783545,14.802136 C6.38480635,15.3391069 6.42955393,16.1819062 5.98207818,16.7698485 L5.84783545,16.9234564 L4.18557445,18.5857174 C2.88708118,19.8842106 2.82215651,21.9491452 3.99080046,23.3242826 L4.18557445,23.5354648 L4.46764178,23.8175322 C5.76613505,25.1160254 7.83106959,25.1809501 9.20620699,24.0123061 L9.41738925,23.8175322 L15.3682222,17.8666992 C16.6667154,16.568206 16.7316401,14.5032714 15.5629962,13.128134 L15.3682222,12.9169518 L15.0861548,12.6348844 C14.5003684,12.049098 14.5003684,11.0993505 15.0861548,10.5135641 C15.6231257,9.97659318 16.465925,9.93184561 17.0538673,10.3793214 L17.2074752,10.5135641 L17.4895425,10.7956314 Z M25.9493292,2.33584471 C28.4002058,4.7867213 28.4847188,8.70786774 26.2028682,11.2601422 L25.9493292,11.5282329 L24.2870682,13.1904939 C23.7012818,13.7762803 22.7515343,13.7762803 22.1657479,13.1904939 C21.628777,12.653523 21.5840294,11.8107237 22.0315051,11.2227814 L22.1657479,11.0691735 L23.8280089,9.40691252 C25.1265021,8.10841925 25.1914268,6.04348471 24.0227829,4.66834732 L23.8280089,4.45716506 L23.5459415,4.17509773 C22.2474483,2.87660446 20.1825137,2.81167979 18.8073763,3.98032374 L18.5961941,4.17509773 L12.6453612,10.1259307 C11.3468679,11.4244239 11.2819432,13.4893585 12.4505872,14.8644959 L12.6453612,15.0756781 L12.9274285,15.3577454 C13.5132149,15.9435319 13.5132149,16.8932794 12.9274285,17.4790658 C12.3904576,18.0160367 11.5476583,18.0607843 10.959716,17.6133085 L10.8061081,17.4790658 L10.5240408,17.1969985 C8.07316422,14.7461219 7.98865123,10.8249754 10.2705019,8.27270093 L10.5240408,8.00461031 L16.4748737,2.05377738 C18.9257503,-0.397099207 22.8468968,-0.481612193 25.3991713,1.80023842 L25.6672619,2.05377738 L25.9493292,2.33584471 Z"></path>
                </g>
            </g>
        </g>
    </g>
</svg>