<svg viewBox="0 0 29 29" version="1.1" xmlns="http://www.w3.org/2000/svg" xmlns:xlink="http://www.w3.org/1999/xlink">
        <g stroke="none" stroke-width="1" fill="none" fill-rule="evenodd">
        <g transform="translate(-327.000000, -1130.000000)" fill="currentColor" fill-rule="nonzero">
            <g transform="translate(327.333333, 1130.578064)">
                <path d="M14,0.0856793287 C17.9230143,0.0856793287 21.1032458,3.2659108 21.1032458,7.18892513 C21.1032458,8.01735226 20.4316729,8.68892513 19.6032458,8.68892513 C18.7748187,8.68892513 18.1032458,8.01735226 18.1032458,7.18892513 C18.1032458,4.92276505 16.2661601,3.08567933 14,3.08567933 C11.8368472,3.08567933 10.0646485,4.75955289 9.90800886,6.88269509 L9.8967542,7.18892513 L9.89671976,10.1096793 L23.0552802,10.1100403 C24.891627,10.1100403 26.3976649,11.5242609 26.5436778,13.3229859 L26.5552802,13.6100403 L26.5552802,24.4143207 C26.5552802,26.2506675 25.1410597,27.7567054 23.3423347,27.9027183 L23.0552802,27.9143207 L4.94471976,27.9143207 C3.10837297,27.9143207 1.60233508,26.5001001 1.45632216,24.7013751 L1.44471976,24.4143207 L1.44471976,13.6100403 C1.44471976,11.7736936 2.85894031,10.2676557 4.65766534,10.1216427 L4.94471976,10.1100403 L6.89671976,10.1096793 L6.8967542,7.18892513 L6.90660026,6.81167918 C7.10270335,3.06404387 10.2035345,0.0856793287 14,0.0856793287 Z M23.0552802,13.1100403 L4.94471976,13.1100403 C4.7080263,13.1100403 4.50974612,13.2745072 4.45792512,13.4953949 L4.44471976,13.6100403 L4.44471976,24.4143207 C4.44471976,24.6510141 4.60918659,24.8492943 4.83007435,24.9011153 L4.94471976,24.9143207 L23.0552802,24.9143207 C23.2919737,24.9143207 23.4902539,24.7498538 23.5420749,24.5289661 L23.5552802,24.4143207 L23.5552802,13.6100403 C23.5552802,13.3733469 23.3908134,13.1750667 23.1699257,13.1232457 L23.0552802,13.1100403 Z M14.0049486,15.1292256 C15.3221387,15.1361566 16.4002801,16.1428885 16.5238699,17.4263918 L16.5356485,17.6865685 L16.5225195,17.971326 C16.452418,18.7184146 16.1009487,19.3622355 15.45272,19.7720567 L15.1956936,19.9145155 L15.1956936,21.7058504 C15.1956936,22.3019246 14.8056459,22.7883861 14.2448163,22.8797176 L14.0518486,22.8951354 L13.9466502,22.8951354 C13.350576,22.8951354 12.8885177,22.4682814 12.8020668,21.9000904 L12.7874926,21.7058504 L12.7874788,19.9145132 C12.034792,19.4779151 11.4643515,18.6358332 11.4643515,17.6865802 C11.4643515,16.3600282 12.4419024,15.2730863 13.7300133,15.1424004 L14.0049486,15.1292256 Z"></path>
            </g>
        </g>
    </g>
</svg>