<svg viewBox="0 0 29 29" version="1.1" xmlns="http://www.w3.org/2000/svg" xmlns:xlink="http://www.w3.org/1999/xlink">
        <g stroke="none" stroke-width="1" fill="none" fill-rule="evenodd">
        <g transform="translate(-326.000000, -514.000000)" fill="currentColor" fill-rule="nonzero">
            <g transform="translate(326.366667, 514.308018)">
                <path d="M22.8,0.5 C24.7125782,0.5 26.3305078,1.88390975 26.4875193,3.70839896 L26.5,4 L26.5,16.7353427 C26.5,17.5637698 25.8284271,18.2353427 25,18.2353427 C24.2406085,18.2353427 23.6130181,17.6710349 23.5136932,16.9388838 L23.5,16.7353427 L23.5,4 C23.5,3.792094 23.291944,3.57325135 22.9700168,3.51496785 L22.8,3.5 L5.2,3.5 C4.84273197,3.5 4.58363771,3.6891418 4.51690196,3.89592957 L4.5,4 L4.5,24 C4.5,24.207906 4.70805598,24.4267487 5.02998317,24.4850321 L5.2,24.5 L12.35,24.5 C13.1784271,24.5 13.85,25.1715729 13.85,26 C13.85,26.7593915 13.2856922,27.3869819 12.5535411,27.4863068 L12.35,27.5 L5.2,27.5 C3.28742181,27.5 1.66949218,26.1160903 1.51248066,24.291601 L1.5,24 L1.5,4 C1.5,2.1317471 3.02230072,0.65442471 4.90063261,0.511363103 L5.2,0.5 L22.8,0.5 Z"></path>
                <path d="M19.0641867,16.9824599 C21.4728927,16.9824599 23.4256519,18.9357846 23.4256519,21.34567 C23.4256519,21.9637037 23.2967815,22.5634493 23.0518847,23.1145448 L22.9573744,23.301779 L25.3415445,25.6893833 C25.6186128,25.9664516 25.6878799,26.3717656 25.5493457,26.7138895 L25.4627619,26.8787993 L25.3415445,27.0278598 L25.1631471,27.2062559 C24.8383362,27.5291334 24.3403376,27.5694931 23.9733358,27.3269607 L23.8249564,27.2056972 L21.5473744,24.925779 L21.4042283,25.0267197 C20.9100471,25.3416394 20.3575338,25.5538245 19.7753007,25.6493655 L19.4226234,25.6925815 L19.0641867,25.7071352 C16.6557634,25.7071352 14.7027215,23.7540932 14.7027215,21.34567 C14.7027215,18.9357846 16.6554807,16.9824599 19.0641867,16.9824599 Z M19.0641867,19.127309 C17.8413312,19.127309 16.8475706,20.1215651 16.8475706,21.34567 C16.8475706,22.5671576 17.8422032,23.562286 19.0641867,23.562286 C20.2861701,23.562286 21.2808027,22.5671576 21.2808027,21.34567 C21.2808027,20.1215651 20.2870421,19.127309 19.0641867,19.127309 Z"></path>
                <path d="M18.5,6.94250879 C19.3284271,6.94250879 20,7.61408167 20,8.44250879 C20,9.20190032 19.4356922,9.82949071 18.7035411,9.92881556 L18.5,9.94250879 L9.5,9.94250879 C8.67157288,9.94250879 8,9.27093592 8,8.44250879 C8,7.68311726 8.56430776,7.05552687 9.29645889,6.95620202 L9.5,6.94250879 L18.5,6.94250879 Z"></path>
                <path d="M15.2849372,13.8460086 C16.1133644,13.8460086 16.7849372,14.5175815 16.7849372,15.3460086 C16.7849372,16.1054001 16.2206295,16.7329905 15.4884784,16.8323154 L15.2849372,16.8460086 L9.5,16.8460086 C8.67157288,16.8460086 8,16.1744357 8,15.3460086 C8,14.5866171 8.56430776,13.9590267 9.29645889,13.8597018 L9.5,13.8460086 L15.2849372,13.8460086 Z"></path>
            </g>
        </g>
    </g>
</svg>