<svg viewBox="0 0 29 29" version="1.1" xmlns="http://www.w3.org/2000/svg" xmlns:xlink="http://www.w3.org/1999/xlink">
        <g stroke="none" stroke-width="1" fill="none" fill-rule="evenodd">
        <g transform="translate(-327.000000, -616.000000)" fill="currentColor" fill-rule="nonzero">
            <g transform="translate(327.833333, 616.859355)">
                <path d="M5.13796272,20.391379 C6.93919138,23.2361809 10.0647059,24.9950958 13.4936903,24.9950958 C15.650255,24.9950958 17.6983099,24.3042337 19.3902334,23.0438398 C20.0545828,22.5489345 20.9943445,22.6862961 21.4892499,23.3506455 C21.9841552,24.014995 21.8467936,24.9547567 21.1824442,25.449662 C18.9769655,27.0926274 16.3016056,27.9950958 13.4936903,27.9950958 C9.02573473,27.9950958 4.94894016,25.7008384 2.60331252,21.9962305 C2.16014502,21.2963061 2.36828754,20.3696471 3.06821187,19.9264796 C3.7681362,19.4833121 4.69479522,19.6914546 5.13796272,20.391379 Z M17.9618803,3.02852913 C22.9771207,4.88339596 26.3752073,9.67786727 26.3752073,15.1135787 C26.3752073,17.2687974 25.844143,19.3506931 24.8441621,21.2092592 C24.4516439,21.938794 23.5420403,22.2119999 22.8125055,21.8194818 C22.0829707,21.4269637 21.8097648,20.51736 22.2022829,19.7878253 C22.968615,18.3635192 23.3752073,16.7695827 23.3752073,15.1135787 C23.3752073,10.9434271 20.7681281,7.26501393 16.9212347,5.84225561 C16.1442456,5.55488927 15.7473279,4.69205868 16.0346942,3.91506957 C16.3220606,3.13808046 17.1848912,2.74116278 17.9618803,3.02852913 Z M14.1559955,3.65381582 C14.2158195,4.48008006 13.5944969,5.19839651 12.7682327,5.25822051 C7.62458351,5.63063611 3.61217322,9.92594258 3.61217322,15.1135787 C3.61217322,15.6271881 3.65122968,16.1353255 3.72839493,16.6352195 C3.85477677,17.4539497 3.29351753,18.2201144 2.47478734,18.3464962 C1.65605714,18.4728781 0.889892457,17.9116188 0.763510619,17.0928886 C0.662989728,16.4416915 0.612173218,15.780552 0.612173218,15.1135787 C0.612173218,8.35039072 5.84198595,2.7518485 12.5515908,2.26605302 C13.3778551,2.20622902 14.0961715,2.82755159 14.1559955,3.65381582 Z"></path>
                <path d="M9.80962768,0.495246388 C10.1097297,0.106735123 10.63928,-0.000139329084 11.0602248,0.218024877 L11.2123279,0.31515741 L14.6113056,2.9406671 C15.0038742,3.24390318 15.1083047,3.78059006 14.8825232,4.20272107 L14.7822943,4.35497069 L12.0420438,7.79637623 C11.6980207,8.22842545 11.0688897,8.2997847 10.6368405,7.95576157 C10.2527967,7.64996323 10.1537426,7.11889452 10.3780903,6.70121256 L10.4774552,6.55055827 L12.584,3.902 L9.98971666,1.89794663 C9.60120539,1.5978446 9.49433094,1.06829427 9.71249515,0.647349522 L9.80962768,0.495246388 Z"></path>
                <path d="M27.8202204,19.9487036 C27.9416102,20.4243786 27.6998046,20.9074685 27.2687294,21.1048622 L27.0985439,21.1649203 L22.9369944,22.2269261 C22.4563518,22.3495836 21.9691429,22.1014586 21.7755041,21.6636505 L21.7172368,21.4909348 L20.6924389,17.2128471 C20.5637813,16.6757571 20.8948811,16.1360621 21.4319711,16.0074044 C21.9093844,15.8930421 22.3888561,16.1419449 22.5798718,16.575884 L22.6374138,16.7469366 L23.4273135,20.0372386 L26.6040036,19.2270271 C27.0796787,19.1056373 27.5627685,19.3474429 27.7601622,19.7785181 L27.8202204,19.9487036 Z"></path>
                <path d="M2.42810331,25.6382149 C1.94159167,25.5725746 1.58426052,25.1674077 1.56272388,24.6937768 L1.57079156,24.5134853 L2.14506079,20.2571295 C2.21138664,19.765537 2.62395587,19.4067541 3.10242279,19.3912211 L3.28438929,19.4018971 L7.63485917,20.0543209 C8.18103634,20.1362291 8.55740073,20.6453928 8.47549257,21.19157 C8.40268532,21.6770608 7.99229339,22.0283786 7.51839636,22.0429288 L7.33824349,22.0322034 L3.99271219,21.5320183 L3.55283286,24.7809031 C3.48719252,25.2674148 3.0820257,25.6247459 2.60839475,25.6462826 L2.42810331,25.6382149 Z"></path>
            </g>
        </g>
    </g>
</svg>