<svg viewBox="0 0 29 29" version="1.1" xmlns="http://www.w3.org/2000/svg" xmlns:xlink="http://www.w3.org/1999/xlink">
        <g stroke="none" stroke-width="1" fill="none" fill-rule="evenodd">
        <g transform="translate(-218.000000, -616.000000)" fill="currentColor" fill-rule="nonzero">
            <g transform="translate(218.316667, 616.859355)">
                <path d="M10.8279643,0.0817317481 C13.6961227,0.0817317481 16.3943316,1.19960479 18.4227804,3.22805361 C21.2426006,6.0495573 22.2571625,10.1528506 21.1103628,13.9372171 L20.9400884,14.4412104 L26.5781177,20.0763411 C28.0215105,21.5213376 28.3130787,23.7210128 27.3894996,25.4728324 L27.202073,25.7957567 L26.9988248,26.0895151 L26.7953394,26.3407647 L26.5768602,26.5752435 C25.7081943,27.4399338 24.551424,27.9182683 23.3279455,27.9182683 C22.3518966,27.9182683 21.417662,27.6137114 20.6318509,27.0430622 L20.3443373,26.8166708 L20.0814467,26.5742259 L14.4420884,20.9352104 L14.284313,20.9960021 C13.9143915,21.1217919 13.5385687,21.2270032 13.1571161,21.3115009 L12.580749,21.4226951 L11.9961408,21.5027174 L11.4098794,21.5505623 L10.8245284,21.5669172 C7.96075764,21.5669172 5.26433625,20.4497462 3.22984383,18.420727 C0.384880744,15.5757639 -0.619398253,11.4246557 0.573794411,7.61506239 L0.734414468,7.14076114 L0.895081936,6.72667563 L1.62900289,4.94322267 L1.76962041,4.65298812 L7.34763207,10.2328683 C7.72589663,10.6124463 8.25089175,10.8310971 8.78357486,10.8310971 C9.3280572,10.8310971 9.85406298,10.6137835 10.2364977,10.23135 C10.6218468,9.84731604 10.8330191,9.33651951 10.8330208,8.7869999 C10.8339187,8.41977072 10.7322746,8.05553855 10.5492941,7.74606387 L10.3971394,7.52503365 L10.2357431,7.34494651 L4.65670257,1.76590596 L4.94894415,1.62758007 L6.72749985,0.893612996 C7.67635731,0.501028213 8.66521853,0.249279072 9.68206545,0.141611255 L10.2954357,0.0943262896 L10.8279643,0.0817317481 Z M10.8279643,3.09182133 L10.3866619,3.104034 L10.2600884,3.1132104 L12.3638064,5.21607177 C13.1316756,5.98552089 13.6235491,6.96223259 13.7842397,8.0275478 L13.8288666,8.43096254 L13.8413905,8.7885249 C13.8413905,10.1353456 13.3156801,11.4054278 12.3628999,12.3601666 C11.4084961,13.3126107 10.1364637,13.8394687 8.79044675,13.8394687 C7.70529798,13.8394687 6.66670361,13.4969127 5.79879023,12.8574532 L5.48156582,12.6038277 L5.21951556,12.3599709 L3.11008838,10.2532104 L3.10693442,10.3053948 C2.98069763,12.2318721 3.58488606,14.1537145 4.79203843,15.6603893 L5.08125754,16.0005268 L5.3594121,16.2933568 C6.81849515,17.7540293 8.75696357,18.5568276 10.8245284,18.5568276 C11.6633236,18.5568276 12.5021246,18.4196291 13.2906654,18.15611 L13.7573565,17.982927 L14.1551663,17.8067947 L14.9670899,17.4255867 L15.1024163,17.3555669 L15.4831384,17.720697 L22.2099689,24.4458114 C22.5103954,24.7474742 22.9045508,24.9116146 23.3279455,24.9116146 C23.7531025,24.9116146 24.1472464,24.7474424 24.4503709,24.4430861 C24.7485008,24.14741 24.9118185,23.7524598 24.9118185,23.3260236 C24.9118185,23.0424313 24.8395661,22.7722019 24.7071447,22.5410498 L24.5967357,22.3754146 L24.4483214,22.2069189 L17.3532305,15.1047528 L17.4234525,14.9687993 L17.8103683,14.1497546 C19.2162268,11.2030116 18.6074051,7.66618079 16.2969967,5.35577227 C14.8349206,3.89528716 12.8940134,3.09182133 10.8279643,3.09182133 Z" transform="translate(14.000000, 14.000000) rotate(-360.000000) translate(-14.000000, -14.000000) "></path>
            </g>
        </g>
    </g>
</svg>