<svg viewBox="0 0 29 29" version="1.1" xmlns="http://www.w3.org/2000/svg" xmlns:xlink="http://www.w3.org/1999/xlink">
        <g stroke="none" stroke-width="1" fill="none" fill-rule="evenodd">
        <g transform="translate(-977.000000, -410.000000)" fill="currentColor" fill-rule="nonzero">
            <g transform="translate(967.200000, 400.500000)">
                <g transform="translate(10.000000, 10.000000)">
                    <path d="M20.6150393,0.083478 C21.9853974,0.083478 23.3025526,0.955162557 23.8054532,2.17052678 L23.8949511,2.41802558 L27.4721497,13.8738162 C27.6227233,14.1935273 27.7170882,14.5282382 27.7488113,14.8727051 L27.7607576,15.1328025 L27.7607576,24.945219 C27.7588192,26.4990517 26.5658404,27.7737092 25.0451837,27.9053189 L24.7888549,27.916522 L3.21053773,27.916522 C1.65670624,27.9145798 0.38205129,26.7215987 0.250444852,25.2009462 L0.239242354,24.9446182 L0.239242354,15.1308126 C0.240688741,14.7820884 0.304158034,14.4371143 0.413014341,14.1447922 L0.502906636,13.9361871 L4.10589171,2.41763345 C4.49735298,1.15944708 5.75370794,0.208856341 7.11299971,0.0949472883 L7.38600479,0.083478 L20.6150393,0.083478 Z M18.4801407,15.0369725 L18.4603802,15.0764089 C17.5235142,16.6344518 15.838059,17.6056713 14.0020815,17.6056713 C12.1659192,17.6056713 10.4796236,16.6342882 9.54273883,15.07638 L9.52160798,15.0369725 L3.21218591,15.0378837 C3.17792464,15.0378837 3.14762061,15.0567908 3.13122473,15.0846071 L3.11830511,15.1317637 L3.11830511,25.0011257 C3.11830511,25.035984 3.13721731,25.066432 3.16501295,25.0828852 L3.21218593,25.0958716 L24.7890321,25.0958716 C24.8238924,25.0958716 24.8543418,25.0769581 24.8707958,25.0491626 L24.8837821,25.0019908 L24.8837821,15.1317637 C24.8837821,15.097866 24.8646561,15.0674408 24.8368398,15.0509237 L24.7899021,15.0378837 L18.4801407,15.0369725 Z M14,17.83119 L15.1231572,20.1069549 L17.6346129,20.4718908 L15.8173064,22.2433268 L16.2463143,24.7446345 L14,23.5636772 L11.7536857,24.7446345 L12.1826936,22.2433268 L10.3653871,20.4718908 L12.8768428,20.1069549 L14,17.83119 Z M20.6150393,2.96046331 L7.38600479,2.96046331 C7.21572355,2.96046331 6.98635781,3.09232909 6.89259564,3.20702242 L6.85416828,3.27258542 L4.07444236,12.1586307 L10.4342987,12.1588237 C10.9812661,12.1589925 11.4743768,12.4681771 11.7170739,12.9458649 L11.7959632,13.132622 C12.1219521,14.0864415 13.0094042,14.7266113 14.0020783,14.7266113 C14.9186272,14.7266113 15.7442182,14.1818307 16.1221237,13.3473822 L16.2070668,13.132883 C16.3837698,12.6148924 16.8360926,12.2479204 17.3667048,12.1729673 L17.5689688,12.1588236 L23.9255576,12.1586307 L21.1479629,3.27481879 C21.1152508,3.17035107 20.9205254,3.0216938 20.7285653,2.97504326 L20.6150393,2.96046331 Z M20.6295762,8.34309548 C21.160752,8.34309548 21.591355,8.77369854 21.591355,9.30487432 C21.591355,9.83605011 21.160752,10.2666532 20.6295762,10.2666532 L7.37042383,10.2666532 C6.83924804,10.2666532 6.40864499,9.83605011 6.40864499,9.30487432 C6.40864499,8.77369854 6.83924804,8.34309548 7.37042383,8.34309548 L20.6295762,8.34309548 Z M18.3639155,4.4093199 C18.8950913,4.4093199 19.3256943,4.83992296 19.3256943,5.37109874 C19.3256943,5.90227453 18.8950913,6.33287758 18.3639155,6.33287758 L9.63647135,6.33287758 C9.10529557,6.33287758 8.67469251,5.90227453 8.67469251,5.37109874 C8.67469251,4.83992296 9.10529557,4.4093199 9.63647135,4.4093199 L18.3639155,4.4093199 Z"></path>
                </g>
            </g>
        </g>
    </g>
</svg>