<svg viewBox="0 0 29 29" version="1.1" xmlns="http://www.w3.org/2000/svg" xmlns:xlink="http://www.w3.org/1999/xlink">
        <g stroke="none" stroke-width="1" fill="none" fill-rule="evenodd">
        <g transform="translate(-652.000000, -1697.000000)" fill="currentColor">
            <g transform="translate(652.883333, 1697.334746)">
                <path d="M4,10.5 C5.93299662,10.5 7.5,12.0670034 7.5,14 C7.5,15.9329966 5.93299662,17.5 4,17.5 C2.06700338,17.5 0.5,15.9329966 0.5,14 C0.5,12.0670034 2.06700338,10.5 4,10.5 Z M14,10.5 C15.9329966,10.5 17.5,12.0670034 17.5,14 C17.5,15.9329966 15.9329966,17.5 14,17.5 C12.0670034,17.5 10.5,15.9329966 10.5,14 C10.5,12.0670034 12.0670034,10.5 14,10.5 Z M24,10.5 C25.9329966,10.5 27.5,12.0670034 27.5,14 C27.5,15.9329966 25.9329966,17.5 24,17.5 C22.0670034,17.5 20.5,15.9329966 20.5,14 C20.5,12.0670034 22.0670034,10.5 24,10.5 Z"></path>
            </g>
        </g>
    </g>
</svg>