<svg viewBox="0 0 29 29" version="1.1" xmlns="http://www.w3.org/2000/svg" xmlns:xlink="http://www.w3.org/1999/xlink">
        <g stroke="none" stroke-width="1" fill="none" fill-rule="evenodd">
        <g transform="translate(-1301.000000, -514.000000)" fill="currentColor" fill-rule="nonzero">
            <g transform="translate(1291.783333, 504.308018)">
                <g transform="translate(10.000000, 10.000000)">
                    <path d="M14.002524,0.2711 C14.8611246,0.2711 15.5587079,0.968683302 15.5587079,1.82902649 L15.5556089,1.92800241 L15.5463649,2.02592865 L15.5146062,2.182 L15.7781088,2.23113919 C16.0957703,2.29766444 16.4130434,2.38229213 16.7276851,2.4852529 L17.1973936,2.65347271 L17.6614725,2.84936514 C19.7284705,3.79059572 21.1663784,5.4349186 21.8224384,7.71726841 C21.9302412,8.09256178 21.992801,8.42937602 22.032547,8.87001048 L22.0584294,9.22217606 L22.074793,9.5512118 L22.1123876,10.7265383 C22.2683012,14.6367012 23.1739554,16.9868821 26.0973832,20.698926 C26.5382354,21.2587012 26.5168171,22.0380028 26.0726756,22.5784907 L25.9090263,22.7491796 L25.6365424,22.9496071 L25.3100199,23.1678735 L25.0009689,23.3533706 C24.5583144,23.6006915 24.1311094,23.7568687 23.674974,23.828643 L23.3267546,23.8667534 L22.5404062,23.9082076 L21.1608989,23.9542938 L20.0944163,23.9754124 L18.0266062,23.992 L18.0199495,24.1185233 C17.8263501,25.9436658 16.4209843,27.4000726 14.6293874,27.6801656 L14.309382,27.7172185 L13.9997359,27.7289 C11.9819189,27.7289 10.2942752,26.2431455 10.0026984,24.2799692 L9.96860623,23.99 L9.73675741,23.9928864 C8.52857673,23.9876875 7.4615609,23.9724142 6.54546571,23.9466706 L5.51921777,23.9107273 L4.67372405,23.8666071 C4.09256855,23.8297733 3.5727907,23.6687324 3.02111537,23.3638772 L2.68553627,23.1635495 L2.36450333,22.9490309 L2.07995503,22.7393978 C1.49510777,22.2160758 1.41331682,21.3215664 1.90397124,20.6987481 C4.68140912,17.173173 5.63769956,14.8764726 5.86041464,11.3047947 L5.88964255,10.7298852 L5.91579971,9.87322484 C5.94951985,8.80859106 6.0085147,8.31457413 6.18059496,7.71700247 C6.83656658,5.43496034 8.27416577,3.79067601 10.3405681,2.84943515 C10.9547567,2.56967385 11.5885171,2.36411893 12.2258597,2.23023917 L12.4866062,2.182 L12.4573884,2.02886052 L12.4445975,1.82902649 C12.4445975,0.967812011 13.1413096,0.2711 14.002524,0.2711 Z M14.0984056,4.56570799 L13.9189113,4.56588597 C13.1362901,4.57675385 12.2504616,4.76690553 11.4474134,5.13269189 C10.1000177,5.74642713 9.21527535,6.76287527 8.78201588,8.27012942 C8.73876456,8.42032554 8.70823853,8.57536134 8.68519104,8.7708858 L8.66444207,8.9812268 L8.64669309,9.24000518 L8.59406968,10.7368629 C8.43786491,14.5296945 7.67366608,17.1867217 5.69726769,20.2909224 L5.31234002,20.8785868 L5,21.328913 L6.08959151,21.3716363 L7.13333825,21.3967151 L9.51808115,21.4229669 L11.7869399,21.4220531 L13.9632896,21.4017603 L17.3546164,21.425158 L18.7625856,21.4216288 L20.9395128,21.3952128 L22.4281731,21.354706 L23,21.3268008 L22.6623007,20.8342779 C20.6488744,17.8329563 19.7640102,15.296182 19.4853502,11.9522975 L19.4375461,11.2723823 L19.4089131,10.681212 L19.3817983,9.79231162 C19.3554902,8.95765007 19.3173546,8.59494888 19.2238424,8.26940509 C18.7907912,6.76287454 17.9057972,5.74649567 16.5580102,5.13276582 C16.0025266,4.87982018 15.4066979,4.71011424 14.8347192,4.62630272 L14.4112101,4.57959076 L14.0984056,4.56570799 Z M11.542696,23.8028052 C11.3179029,23.8028052 11.1349319,23.9857763 11.1349319,24.2105693 C11.1349319,25.0348104 11.6803599,26.5926782 13.745319,26.5926782 C13.970112,26.5926782 14.1530831,26.4097072 14.1530831,26.1849142 C14.1530831,25.9601211 13.970112,25.7754075 13.745319,25.7754075 C12.0236485,25.7754075 11.9539452,24.3761145 11.9522026,24.2088267 C11.9522026,23.9840337 11.767489,23.8028052 11.542696,23.8028052 Z"></path>
                </g>
            </g>
        </g>
    </g>
</svg>