<svg viewBox="0 0 29 29" version="1.1" xmlns="http://www.w3.org/2000/svg" xmlns:xlink="http://www.w3.org/1999/xlink">
        <g stroke="none" stroke-width="1" fill="none" fill-rule="evenodd">
        <g transform="translate(-1302.000000, -616.000000)" fill="currentColor">
            <g transform="translate(1302.466667, 616.859355)">
                <path d="M17.5,0.4873 C18.606,0.4873 19.5,1.3833 19.5,2.4873 L19.5,2.4873 L19.5,9.4873 C19.5,10.5933 18.606,11.4873 17.5,11.4873 L17.5,11.4873 L15,11.4873 L15.001,12.9993 L22.501,13.0003 C23.0138358,13.0003 23.4365072,13.3863402 23.4942723,13.8836789 L23.501,14.0003 L23.5,16.5123 L26,16.5127 C27.0557273,16.5127 27.9182893,17.3272744 27.9945227,18.3632599 L28,18.5127 L28,25.5127 C28,26.6167 27.106,27.5127 26,27.5127 L26,27.5127 L19,27.5127 C17.896,27.5127 17,26.6167 17,25.5127 L17,25.5127 L17,18.5127 C17,17.4067 17.896,16.5127 19,16.5127 L19,16.5127 L21.5,16.5123 L21.501,14.9993 L15.001,14.9993 L15.001,15.0003 L13.001,15.0003 L13.001,14.9993 L6.501,14.9993 L6.5,16.5123 L9,16.5127 C10.0557273,16.5127 10.9182893,17.3272744 10.9945227,18.3632599 L11,18.5127 L11,25.5127 C11,26.6167 10.106,27.5127 9,27.5127 L9,27.5127 L2,27.5127 C0.896,27.5127 0,26.6167 0,25.5127 L0,25.5127 L0,18.5127 C0,17.4067 0.896,16.5127 2,16.5127 L2,16.5127 L4.5,16.5123 L4.501,14.0003 C4.501,13.4874642 4.88704019,13.0647928 5.38437887,13.0070277 L5.501,13.0003 L13.001,12.9993 L13,11.4873 L10.5,11.4873 C9.44618182,11.4873 8.5818843,10.6727256 8.50548911,9.63674008 L8.5,9.4873 L8.5,2.4873 C8.5,1.3833 9.396,0.4873 10.5,0.4873 L10.5,0.4873 Z M8,19.5127 L3,19.5127 L3,24.5127 L8,24.5127 L8,19.5127 Z M25,19.5127 L20,19.5127 L20,24.5127 L25,24.5127 L25,19.5127 Z M16.5,3.4873 L11.5,3.4873 L11.5,8.4873 L16.5,8.4873 L16.5,3.4873 Z"></path>
            </g>
        </g>
    </g>
</svg>