<svg viewBox="0 0 29 29" version="1.1" xmlns="http://www.w3.org/2000/svg" xmlns:xlink="http://www.w3.org/1999/xlink">
        <g stroke="none" stroke-width="1" fill="none" fill-rule="evenodd">
        <g transform="translate(-869.000000, -822.000000)" fill="currentColor" fill-rule="nonzero">
            <g transform="translate(869.916667, 822.770046)">
                <path d="M25.2996217,1.9 C26.7907905,1.9 27.9996217,3.10883118 27.9996217,4.6 L27.9996217,4.6 L27.9996217,23.4 C27.9996217,24.8911688 26.7907905,26.1 25.2996217,26.1 L25.2996217,26.1 L2.70037829,26.1 C1.20920947,26.1 0.00037829143,24.8911688 0.00037829143,23.4 L0.00037829143,23.4 L0.00037829143,4.6 C0.00037829143,3.10883118 1.20920947,1.9 2.70037829,1.9 L2.70037829,1.9 Z M19.2233783,4.902 L3,4.902 L3,23.102 L19.2233783,23.102 L19.2233783,4.902 Z M24.998,4.902 L21.6033783,4.902 L21.6033783,23.102 L24.998,23.102 L24.998,4.902 Z M23.3429348,13 C23.8952188,13 24.3429348,13.447716 24.3429348,14 L24.3429348,14 L24.3362071,14.116621 C24.2784419,14.6139592 23.85577,15 23.3429348,15 C22.7906508,15 22.3429348,14.552284 22.3429348,14 L22.3429348,14 L22.3496626,13.883379 C22.4074278,13.3860408 22.8300997,13 23.3429348,13 Z"></path>
            </g>
        </g>
    </g>
</svg>