<svg viewBox="0 0 29 29" version="1.1" xmlns="http://www.w3.org/2000/svg" xmlns:xlink="http://www.w3.org/1999/xlink">
        <g stroke="none" stroke-width="1" fill="none" fill-rule="evenodd">
        <g transform="translate(-652.000000, -514.000000)" fill="currentColor">
            <g transform="translate(652.116667, 514.308018)">
                <path d="M16.425,0.058 C17.2039458,0.058 17.9473391,0.396861245 18.4608445,0.986534731 C18.9092559,1.50393242 19.1447675,2.16513674 19.1257815,2.83030746 L19.09741,3.15255688 L18.786,5.204 L25.089,5.204 C26.4676925,5.204 27.6182425,6.19293612 27.8698779,7.49986103 L27.9080207,7.76528706 L27.921,8.038 L27.921,25.11 C27.921,26.5802516 26.7961434,27.7915936 25.3614391,27.9290171 L25.089,27.942 L2.911,27.942 C1.4420433,27.942 0.229558727,26.816591 0.0919963786,25.3823416 L0.079,25.11 L0.079,8.038 C0.079,6.56680718 1.20474239,5.35452403 2.63871721,5.21699311 L2.911,5.204 L9.416,5.204 L9.01586984,3.27576121 C8.90069857,2.67248313 8.98839438,2.06489589 9.25723332,1.53641927 L9.40664747,1.27915971 L9.58564871,1.03740248 C10.0357874,0.492948961 10.6731534,0.151434077 11.3653656,0.0745624416 L11.665,0.058 L16.425,0.058 Z M25,8.124 L2.996,8.124 L2.996,25.022 L25,25.022 L25,8.124 Z M10.5658,10.6886 C10.89655,10.6886 11.1706438,10.9228812 11.2339992,11.2333422 L11.2478,11.3706 L11.2478,14.7486 C11.2478,15.0811 11.0119875,15.3538812 10.7024836,15.4168812 L10.5658,15.4306 L7.8838,15.4306 C7.55655,15.4306 7.27983125,15.1963187 7.21576484,14.8858578 L7.2018,14.7486 L7.2018,11.3706 C7.2018,11.0381 7.4376125,10.7653187 7.74711641,10.7023187 L7.8838,10.6886 L10.5658,10.6886 Z M19.9914,18.5976935 C20.7453775,18.5976935 21.3174,19.2890864 21.3174,20.0976935 C21.3174,20.806612 20.8830145,21.4325385 20.1941607,21.5806663 L20.1941607,21.5806663 L19.9914,21.5996935 L8.0294,21.5996935 C7.27198597,21.5996935 6.7014,20.9090845 6.7014,20.0976935 C6.7014,19.3902713 7.1378301,18.7646584 7.82660427,18.6167144 L7.82660427,18.6167144 L8.0294,18.5976935 Z M19.8996,11.5596 C20.6904413,11.5596 21.3176,12.2413761 21.3176,13.0596 C21.3176,13.779255 20.8362759,14.4026921 20.1134227,14.5431142 L20.1134227,14.5431142 L19.8996,14.5616 L15.0856,14.5616 C14.2913228,14.5616 13.6676,13.8805774 13.6676,13.0596 C13.6676,12.3413403 14.1493017,11.718396 14.8717855,11.5780823 L14.8717855,11.5780823 L15.0856,11.5596 Z M16.172,2.982 L15.834,5.208 L12.398,5.208 L11.932,2.982 L16.172,2.982 Z"></path>
            </g>
        </g>
    </g>
</svg>