<svg viewBox="0 0 51 51" version="1.1" xmlns="http://www.w3.org/2000/svg" xmlns:xlink="http://www.w3.org/1999/xlink">
        <g stroke="none" stroke-width="1" fill="none" fill-rule="evenodd">
        <g transform="translate(-178.000000, -1909.000000)">
            <g transform="translate(178.829167, 1909.764423)">
                <path d="M5,0 L45,0 C47.7614237,0 50,2.23857625 50,5 L50,45 C50,47.7614237 47.7614237,50 45,50 L5,50 C2.23857625,50 0,47.7614237 0,45 L0,5 C0,2.23857625 2.23857625,0 5,0 Z" fill="#EC5D78"></path>
                <path d="M22.0378213,14.4791066 C22.5236174,13.5075142 23.5388967,13.2426588 24.6327903,13.7896056 C25.5980338,14.2722273 25.8443728,15.3786131 25.5194377,17.4556866 L25.4378862,17.9333778 C25.422747,18.0157031 25.4068392,18.0993952 25.3901702,18.1844717 L25.2810827,18.7116845 L25.1540878,19.2729691 L25.0095457,19.8691717 L24.8478162,20.5011381 L24.7670588,20.802682 C25.8764262,22.9237313 27.1899641,25.108638 28.3811562,26.7681474 L28.4956941,26.9252305 C30.4595736,26.3454207 31.9557895,26.1349487 32.9334402,26.3793614 C34.8378645,26.8554675 35.4980502,28.2638637 34.6655295,29.5958969 C33.9382607,30.759527 32.3506358,31.3790879 30.9134908,30.9000396 C30.0573544,30.6146608 29.0582487,29.6546778 27.8862605,28.1173638 L28.0475895,28.3208856 C26.2816195,28.8952818 24.2163456,29.7299379 22.1430372,30.6832078 L21.7318636,30.875407 C19.7483707,36.2816531 17.3000359,37.5924622 15.5167414,35.8091677 C14.6439429,34.9363692 14.7634798,34.2297249 15.6635772,33.1756094 L15.9159524,32.8924029 L16.2029052,32.5914058 C16.2535657,32.5396445 16.3056321,32.4870574 16.359087,32.4336025 C16.4212911,32.3713985 16.5198585,32.2937378 16.6506493,32.2028394 L16.8704855,32.0568408 L17.1355516,31.8926498 L17.4427426,31.7119304 L17.9757209,31.4135013 L18.3746395,31.198742 L19.263143,30.7387764 L19.9966276,30.3737139 L20.7759884,29.9976735 C20.8960979,29.6421224 21.0185069,29.2671062 21.1407006,28.8735 L22.6323882,23.9158215 L23.1290419,22.2188356 L23.4493205,21.0813428 L23.4873341,20.9407796 L23.1967402,20.3640908 L22.9311462,19.8182684 L22.6929843,19.3085838 L22.4846867,18.8403086 L22.3086857,18.4187144 C22.2291647,18.220466 22.162667,18.0416999 22.1105608,17.8853812 C21.6587131,16.529838 21.6264002,15.3019487 22.0378213,14.4791066 Z M20.0980624,31.7528601 L20.145,31.638 L19.4775053,31.9767869 L19.0646351,32.1917144 L18.5034084,32.4919967 L18.0237427,32.7588924 L17.6389885,32.9846886 L17.4418069,33.1085775 L17.2966973,33.2084866 C17.2574456,33.2375391 17.2275318,33.2622141 17.2076152,33.2821307 L16.9367746,33.5574706 L16.7116751,33.7973672 C16.1368225,34.4305732 16.0889206,34.6842906 16.3652695,34.9606395 C17.1396237,35.7349937 18.2045257,35.4435286 19.4330673,33.1556931 L19.6515416,32.7310445 C19.7616023,32.508169 19.8728788,32.2693247 19.9852841,32.0138722 L20.0980624,31.7528601 Z M32.6423974,27.5435324 C32.0609858,27.3981795 31.0650549,27.4985458 29.7531573,27.8255759 L29.282,27.949 L29.3719489,28.0587205 C30.0542891,28.8791717 30.6446791,29.4330506 31.0853643,29.669867 L31.1923833,29.7224364 L31.2929641,29.7616196 C32.1911988,30.0610312 33.2076345,29.6643733 33.6479315,28.9598981 C34.0300432,28.3485195 33.7868172,27.8296373 32.6423974,27.5435324 Z M24.308,22.484 L24.2983242,22.519847 L24.293,22.51 L23.7830131,24.2565019 L22.3452187,29.0394276 L22.269,29.282 L22.2996702,29.2682171 L22.2880619,29.2984278 C23.6688372,28.6801547 25.0342078,28.118937 26.3050295,27.6545742 L26.8436479,27.4616075 L27.283,27.311 L27.2741998,27.2991737 L27.285,27.296 L27.1222576,27.065625 C26.362279,25.9732644 25.5701661,24.7050357 24.8182707,23.3929197 L24.498703,22.8282821 L24.308,22.484 Z M24.096134,14.8629182 C23.5655038,14.5976031 23.2834203,14.6711901 23.1111339,15.0157629 C22.8644724,15.5090859 22.8885666,16.4246654 23.2489808,17.5059079 C23.2785977,17.5947587 23.3140279,17.6930858 23.3549069,17.8000637 L23.493526,18.1461239 L23.6626518,18.5391351 L23.945,19.157 L23.9841749,18.9932556 C24.0288751,18.7999494 24.0702193,18.6139249 24.1082622,18.4350667 L24.2125413,17.9198757 C24.2597835,17.6729144 24.2997207,17.4418179 24.3325373,17.2261972 L24.3887311,16.8154747 C24.5135556,15.7746249 24.4393396,15.1665956 24.1940764,14.9323602 L24.1460919,14.892807 L24.096134,14.8629182 Z" fill="#FFFFFF" fill-rule="nonzero"></path>
            </g>
        </g>
    </g>
</svg>