<svg viewBox="0 0 29 29" version="1.1" xmlns="http://www.w3.org/2000/svg" xmlns:xlink="http://www.w3.org/1999/xlink">
        <g stroke="none" stroke-width="1" fill="none" fill-rule="evenodd">
        <g transform="translate(-1195.000000, -1130.000000)" fill="currentColor">
            <g transform="translate(1195.466667, 1130.578064)">
                <path d="M20.5433005,0.499 C21.2481945,0.499 21.9173263,0.73892371 22.4549525,1.18026182 L22.6770331,1.38162594 L26.6188539,5.32744661 C27.1899278,5.89852056 27.5040711,6.66113505 27.4994496,7.465 C27.4994496,8.16987618 27.2593982,8.83901054 26.8181648,9.37652697 L26.6168539,9.59855339 L10.1108539,26.1045534 C9.92447877,26.2909285 9.69126152,26.4254268 9.43783801,26.4948335 L9.24439788,26.5344775 L2.2148571,27.4864151 C2.12073679,27.4977568 2.07903844,27.501 2.0133005,27.501 C1.61282939,27.501 1.23013711,27.3419386 0.945321937,27.0601212 C0.664830939,26.7821125 0.50842874,26.4096138 0.500550422,26.0205598 L0.513841777,25.7857642 L1.4673744,18.7593031 C1.50092618,18.4980785 1.60576148,18.2485773 1.76571823,18.0398611 L1.89576853,17.8914252 L18.4070036,1.38219171 C18.9740251,0.812777653 19.7351565,0.499 20.5433005,0.499 Z M15.6197559,8.44 L4.39575589,19.664 L3.77775589,24.22 L8.33175589,23.6 L19.5557559,12.378 L15.6197559,8.44 Z M20.5397559,3.526 L17.7637559,6.304 L21.6957559,10.24 L24.4757559,7.46 L20.5397559,3.526 Z"></path>
            </g>
        </g>
    </g>
</svg>