<svg viewBox="0 0 29 29" version="1.1" xmlns="http://www.w3.org/2000/svg" xmlns:xlink="http://www.w3.org/1999/xlink">
        <g stroke="none" stroke-width="1" fill="none" fill-rule="evenodd">
        <g transform="translate(-761.000000, -822.000000)" fill="currentColor" fill-rule="nonzero">
            <g transform="translate(761.400000, 822.770046)">
                <path d="M22.2841156,-1.42108547e-14 C23.7802131,-1.42108547e-14 24.9930399,1.21282673 24.9930399,2.70892432 L24.9930399,2.70892432 L24.9930399,25.2910757 C24.9930399,26.7871733 23.7802131,28 22.2841156,28 L22.2841156,28 L5.71588445,28 C4.21978686,28 3.00696013,26.7871733 3.00696013,25.2910757 L3.00696013,25.2910757 L3.00696013,2.70892432 C3.00696013,1.21282673 4.21978686,-1.42108547e-14 5.71588445,-1.42108547e-14 L5.71588445,-1.42108547e-14 Z M21.9819601,21.748 L6.01496013,21.748 L6.0156964,24.9888585 L21.982297,24.9888585 L21.9819601,21.748 Z M14,22.2634531 C14.552284,22.2634531 15,22.7111691 15,23.2634531 L15,23.2634531 L14.9932723,23.3800741 C14.9355071,23.8774123 14.5128351,24.2634531 14,24.2634531 C13.447716,24.2634531 13,23.8157371 13,23.2634531 L13,23.2634531 L13.0067277,23.1468321 C13.0644929,22.6494939 13.4871649,22.2634531 14,22.2634531 Z M21.982297,3.00844593 L6.0156964,3.00844593 L6.01496013,19.364 L21.9819601,19.364 L21.982297,3.00844593 Z M18.17517,4.63030328 C18.5033422,4.63030328 18.7693783,4.89633938 18.7693783,5.22451153 L18.7693783,6.42078418 C18.7693783,6.74895633 18.5033422,7.01499242 18.17517,7.01499242 L9.82482997,7.01499242 C9.49665781,7.01499242 9.23062172,6.74895633 9.23062172,6.42078418 L9.23062172,5.22451153 C9.23062172,4.89633938 9.49665781,4.63030328 9.82482997,4.63030328 L18.17517,4.63030328 Z"></path>
            </g>
        </g>
    </g>
</svg>