<svg viewBox="0 0 29 29" version="1.1" xmlns="http://www.w3.org/2000/svg" xmlns:xlink="http://www.w3.org/1999/xlink">
        <g stroke="none" stroke-width="1" fill="none" fill-rule="evenodd">
        <g transform="translate(-218.000000, -925.000000)" fill="currentColor" fill-rule="nonzero">
            <g transform="translate(218.800000, 925.667373)">
                <path d="M25.2623333,2 C26.7735815,2.00174504 27.998255,3.22641853 28,4.73766667 L28,23.2623333 C27.998255,24.7735815 26.7735815,25.998255 25.2623333,26 L2.73766667,26 C1.22641853,25.998255 0.00174503895,24.7735815 0,23.2623333 L0,4.73766667 C0.00174503895,3.22641853 1.22641853,2.00174504 2.73766667,2 L25.2623333,2 Z M19.3939796,14.3231631 L14.4832897,18.398044 C14.2573336,18.586785 13.9719902,18.7077966 13.6664281,18.7502863 L13.6664281,18.7502863 L13.4340775,18.767262 C13.0504769,18.7679671 12.677431,18.647854 12.3844197,18.4219019 L12.3844197,18.4219019 L9.52797958,16.1691631 L2.997,21.929 L2.998,23 L25,23 L24.999,19.792 L19.3939796,14.3231631 Z M3,4.998 L2.998,18.404 L8.38384725,13.6554319 C8.62420842,13.4448509 8.93640207,13.3126581 9.27188975,13.2732252 L9.44135005,13.2613053 C9.83279105,13.2554996 10.2151173,13.3759702 10.5132594,13.6065039 L10.5132594,13.6065039 L13.3959796,15.8791631 L18.4094111,11.7228815 C18.6509457,11.5226139 18.9588417,11.3992208 19.2840822,11.364784 L19.2840822,11.364784 L19.5304988,11.3558244 C19.9462049,11.3693899 20.3413485,11.5272228 20.6209387,11.8003018 L20.6209387,11.8003018 L24.999,16.073 L25,5 L3,4.998 Z M7.93209578,7.1323786 C9.09824905,7.13247479 10.0435723,8.07781744 10.0436446,9.24397072 C10.0422035,10.409973 9.09714001,11.3547441 7.93113734,11.3558244 C6.76498415,11.3553913 5.81993403,10.4097756 5.82019861,9.24362235 C5.82046331,8.07746911 6.76594251,7.13228241 7.93209578,7.1323786 Z"></path>
            </g>
        </g>
    </g>
</svg>