<svg viewBox="0 0 29 29" version="1.1" xmlns="http://www.w3.org/2000/svg" xmlns:xlink="http://www.w3.org/1999/xlink">
        <g stroke="none" stroke-width="1" fill="none" fill-rule="evenodd">
        <g transform="translate(-218.000000, -1233.000000)" fill="currentColor">
            <g transform="translate(218.516667, 1233.482073)">
                <path d="M10.6103776,1.97717143 C10.9287469,2.74314901 10.5685816,3.62020009 9.80188633,3.94202026 C5.74150613,5.63241764 3.09888403,9.60146902 3.1065,13.9982646 C3.1065,20.0062131 7.99396182,24.8942646 14.001452,24.8942654 C18.4002991,24.9018792 22.3698591,22.2581996 24.0668779,18.178313 C24.4134845,17.4252314 25.3028487,17.0940333 26.0559268,17.4374882 C26.7769445,17.7649372 27.1171484,18.5938847 26.8324154,19.3532668 C24.6791784,24.5364457 19.612537,27.9106765 14.0005,27.9003354 C6.33474749,27.9003354 0.0985,21.6640253 0.0985,13.9982646 C0.0985,8.37507479 3.45517703,3.33653579 8.64540683,1.16838697 C9.41193693,0.849788044 10.2918075,1.21071054 10.6103776,1.97717143 Z M13.9995,0.0996645921 C21.6649342,0.0996645921 27.9015,6.33558556 27.9015,13.9996646 C27.9015,14.7602981 27.3366094,15.3902146 26.6033549,15.4899185 L26.3995,15.5036646 L13.9995,15.5036646 C13.2402756,15.5036646 12.6108654,14.9367025 12.5112361,14.2034611 L12.4975,13.9996646 L12.4975,1.60166459 C12.4975,0.772419125 13.171231,0.0996645921 13.9995,0.0996645921 Z M15.504,3.20997613 L15.504,12.4939761 L24.79,12.4939761 L24.743019,12.1704953 C23.970072,7.62680813 20.3729315,4.02924095 15.8305854,3.25782851 L15.504,3.20997613 Z"></path>
            </g>
        </g>
    </g>
</svg>