<svg viewBox="0 0 28 29" version="1.1" xmlns="http://www.w3.org/2000/svg" xmlns:xlink="http://www.w3.org/1999/xlink">
        <g stroke="none" stroke-width="1" fill="none" fill-rule="evenodd">
        <g transform="translate(-110.000000, -925.000000)" fill="currentColor" fill-rule="nonzero">
            <g transform="translate(110.000000, 925.667373)">
                <path d="M14,3.58181326 L18.3518765,0.520169141 C18.9461474,0.0447514704 19.725504,0.0675607202 20.2382813,0.537536637 L20.3836655,0.691893352 L20.569449,0.956290995 C20.889777,1.48218993 20.8645659,2.12278336 20.4517504,2.6279285 L20.2786935,2.81052022 L18.656,3.96781326 L22.8947446,3.96899032 C25.2404148,3.96899032 27.2308469,5.63629296 27.7049377,7.89006203 L27.7622243,8.2159019 L27.7981282,8.54902065 L27.81,8.88424574 L27.81,22.9105743 C27.81,25.3679431 25.9801259,27.4354361 23.5630884,27.778054 L23.2299697,27.8139579 L22.8947446,27.8258297 L5.10525542,27.8258297 C2.64788657,27.8258297 0.580393631,25.9959556 0.237775689,23.5789181 L0.201871811,23.2457994 L0.19,22.9105743 L0.19,8.88424574 C0.19,6.42687689 2.01987411,4.35938395 4.43691158,4.01676601 L4.77003033,3.98086213 L5.10525542,3.96899032 L9.342,3.96781326 L7.83505333,2.89540987 C7.3318526,2.51801026 7.14959736,1.87437263 7.33830857,1.24540693 L7.42656202,1.01078119 L7.53620988,0.803514835 C7.88943942,0.332541439 8.48521019,0.136970753 9.10650778,0.280192813 L9.34026709,0.349905804 L9.60848698,0.490412615 L14,3.58181326 Z M22.8947299,6.95740193 L5.10524072,6.95740193 C4.19238442,6.95740193 3.4108528,7.60789293 3.22408899,8.44699731 L3.19005723,8.66043556 L3.17839691,8.88424574 L3.17839691,22.9105743 C3.17839691,23.8234306 3.82888791,24.6049622 4.6679923,24.791726 L4.88143055,24.8257578 L5.10524072,24.8374181 L22.8947299,24.8374181 C23.8075862,24.8374181 24.5891178,24.1869271 24.7758816,23.3478227 L24.8099134,23.1343845 L24.8215737,22.9105743 L24.8215737,8.88424574 C24.8215737,7.82633214 23.9526435,6.95740193 22.8947299,6.95740193 Z M11.0578934,9.4426597 C11.2645723,9.4426597 11.4872417,9.47963272 11.7239794,9.56082479 L11.9653355,9.65702493 L12.1453768,9.75544831 L19.5560873,14.0101862 C20.7670442,14.7553882 20.9492938,16.409885 19.9792862,17.4374332 L19.7838766,17.6223763 L19.5348427,17.7972417 L12.1914119,22.0108381 C11.8620568,22.230409 11.4359935,22.3521415 11.0578934,22.3521415 C10.0928553,22.3521415 9.21653469,21.7004455 8.95146838,20.7071561 L8.89823867,20.4518966 L8.87947005,20.1737181 L8.87947005,11.6210831 C8.87947005,10.385327 9.88947144,9.4426597 11.0578934,9.4426597 Z M11.866,13.0178133 L11.866,18.7638133 L16.83,15.8678133 L11.866,13.0178133 Z"></path>
            </g>
        </g>
    </g>
</svg>