<svg viewBox="0 0 51 51" version="1.1" xmlns="http://www.w3.org/2000/svg" xmlns:xlink="http://www.w3.org/1999/xlink">
        <g stroke="none" stroke-width="1" fill="none" fill-rule="evenodd">
        <g transform="translate(-1067.000000, -1909.000000)">
            <g transform="translate(1067.950000, 1909.764423)">
                <path d="M5,0 L45,0 C47.7614237,0 50,2.23857625 50,5 L50,45 C50,47.7614237 47.7614237,50 45,50 L5,50 C2.23857625,50 0,47.7614237 0,45 L0,5 C0,2.23857625 2.23857625,0 5,0 Z" fill="#F27561"></path>
                <path d="M22.08,31.18 L22.08,26.16 L22.08,26.16 L26.26,26.16 C29.54,26.16 31.2,24.74 31.2,21.92 C31.2,19.12 29.56,17.72 26.28,17.72 L21.44,17.72 C20.8877153,17.72 20.44,18.1677153 20.44,18.72 L20.44,31.18 C20.44,31.6328735 20.8071265,32 21.26,32 C21.7128735,32 22.08,31.6328735 22.08,31.18 Z M26.18,24.74 L22.08,24.74 L22.08,19.14 L26.18,19.14 C27.32,19.14 28.16,19.36 28.72,19.84 C29.28,20.26 29.56,20.96 29.56,21.92 C29.56,22.88 29.28,23.58 28.74,24.04 C28.18,24.5 27.34,24.74 26.18,24.74 Z" fill="#FFFFFF" fill-rule="nonzero"></path>
            </g>
        </g>
    </g>
</svg>