<svg viewBox="0 0 29 29" version="1.1" xmlns="http://www.w3.org/2000/svg" xmlns:xlink="http://www.w3.org/1999/xlink">
        <g stroke="none" stroke-width="1" fill="none" fill-rule="evenodd">
        <g transform="translate(-327.000000, -925.000000)" fill="currentColor" fill-rule="nonzero">
            <g transform="translate(327.333333, 925.667373)">
                <path d="M20.0122184,0.198148 C21.4406016,0.198148 22.6089369,1.31154549 22.6966958,2.71781203 L22.7019876,2.88791728 L22.7014201,5.100148 L25.3106742,5.10090948 C26.5978759,5.10090948 27.6373478,6.09051599 27.7702232,7.33943309 L27.7845799,7.61076108 L27.7845799,12.8295925 L24.743777,12.8295925 L24.743777,8.14115362 L3.25602885,8.14115362 L3.25602885,18.8651468 L4.4294201,18.864148 L4.4302074,15.1776291 C4.4302074,13.7492459 5.54360489,12.5809106 6.94987143,12.4931516 L7.11997668,12.4878599 L13.8717109,12.4878599 L13.8714201,15.527148 L7.47078036,15.5274939 L7.47078036,24.7592499 L13.8714201,24.759148 L13.8717109,27.801852 L7.11997668,27.801852 C5.69159345,27.801852 4.52325815,26.6884545 4.43549919,25.282188 L4.4302074,25.1120827 L4.4294201,21.906148 L2.68932585,21.9064193 C1.40212412,21.9064193 0.362652166,20.9168128 0.229776802,19.6678957 L0.2154201,19.3965677 L0.2154201,7.61076108 C0.2154201,6.32852561 1.16907861,5.25343673 2.4175288,5.11579037 L2.68932585,5.10090948 L5.2974201,5.100148 L5.29801236,2.88791728 C5.29801236,1.45953405 6.41140985,0.291198748 7.81767639,0.203439794 L7.98778163,0.198148 L20.0122184,0.198148 Z M18.310825,12.3015536 L18.4178478,12.4015792 L18.4852519,12.4988377 L18.5443358,12.5995118 C18.8652684,13.1003866 19.3985108,13.3996098 19.9740745,13.3996098 C20.4446094,13.3996098 20.888786,13.1995712 21.2058536,12.859067 L21.3533286,12.6773852 L21.4580826,12.5095898 C21.5537696,12.331806 21.7270699,12.2147215 21.9301786,12.1887517 L22.0873521,12.1868336 L22.2223932,12.218163 C23.1777474,12.5147035 24.0676662,12.9991361 24.8480311,13.6448567 L25.2288799,13.9810346 L25.5172942,14.2666594 C25.6037682,14.3573409 25.6579278,14.4684412 25.6762654,14.600468 L25.6825324,14.739489 L25.6578717,14.8890859 L25.6160091,14.9920721 C25.3175189,15.5528462 25.3230573,16.2266655 25.630415,16.7816223 C25.8520394,17.1797649 26.2051623,17.4683724 26.610042,17.5982688 L26.8164257,17.6497634 L26.9717214,17.6707591 L27.0149341,17.6739288 C27.2466595,17.6868909 27.4486286,17.8266662 27.5445291,18.0294248 L27.5887307,18.1581272 L27.6076546,18.244401 C27.6664166,18.5249995 27.710642,18.8088383 27.7402438,19.0965876 L27.773668,19.5312281 L27.7845799,19.9651845 L27.7771839,20.3202176 C27.7670511,20.5598516 27.7465715,20.7989421 27.7155234,21.0385455 L27.6609971,21.3984674 L27.5909864,21.755623 L27.4862537,22.1809211 C27.4542083,22.2961722 27.3910301,22.3957494 27.2937671,22.4782278 L27.1850331,22.554954 L27.0514832,22.6136303 L26.9438075,22.6352509 C26.5702137,22.6791686 26.2322637,22.8373662 25.9719115,23.0798298 L25.8253475,23.2351798 L25.7250168,23.3677467 L25.6307528,23.5201819 C25.4613966,23.8256309 25.3813563,24.1713178 25.3954238,24.5086168 L25.4236945,24.7592586 L25.4657069,24.9383881 L25.5262473,25.1159795 C25.583065,25.2595048 25.5839604,25.4166038 25.5279069,25.5646239 L25.4528323,25.7087785 L25.3860208,25.7885141 L25.3319732,25.8421696 C24.6451656,26.516189 23.8400212,27.0548549 22.9543525,27.4337616 L22.5049829,27.6097887 L22.0824173,27.7461162 L21.9589543,27.780479 C21.8464967,27.8109605 21.731695,27.8084477 21.61352,27.7697376 L21.4941825,27.718843 L21.3769368,27.6389549 L21.3059246,27.5651887 L21.2508629,27.4977189 C20.9235536,27.1185409 20.4632148,26.9036142 19.9740014,26.9036142 C19.6803318,26.9036142 19.3953315,26.9808231 19.148505,27.1219899 L18.9710038,27.2396502 L18.8512156,27.3392399 L18.7373988,27.4518178 L18.6438743,27.564266 C18.519569,27.7218646 18.3294338,27.8077157 18.1337965,27.8015404 L17.9869795,27.7793372 L17.7864484,27.7226221 C16.9753864,27.47643 16.2122241,27.0992411 15.5222821,26.6040438 L15.117306,26.2928682 L14.8276961,26.0425318 L14.5606575,25.787928 C14.4944338,25.7218023 14.4465607,25.6443021 14.4168511,25.5504661 L14.385886,25.3968402 L14.3873924,25.2514618 L14.4212132,25.1164132 C14.6267657,24.5956807 14.5885397,24.0102481 14.3171819,23.5210838 C14.1514904,23.2231589 13.9117174,22.9849066 13.6332917,22.8313975 L13.4177787,22.7325468 L13.2755234,22.6864186 L13.1279415,22.6522459 L12.9997173,22.6355744 C12.8816289,22.6233525 12.773618,22.5783092 12.6763819,22.4972306 L12.5827632,22.4040212 L12.5023987,22.2836363 L12.4621201,22.1807089 C12.3771979,21.8718992 12.3102663,21.5589595 12.2613282,21.2410673 L12.2014168,20.7604117 L12.1746706,20.3971645 L12.1634794,19.9608164 C12.1634794,19.7187036 12.1736949,19.4770397 12.1947374,19.2344932 L12.2343445,18.8698451 L12.2895966,18.5081744 L12.3575692,18.1628302 C12.385235,18.0362461 12.4502793,17.9261617 12.5544992,17.8363111 L12.6718441,17.7533434 L12.8173196,17.6921176 L12.9587068,17.6712641 C13.3366607,17.6411702 13.6929495,17.4827913 13.9675292,17.2301333 L14.1219916,17.067497 L14.2277712,16.9271202 L14.3173907,16.7814984 C14.4987649,16.454309 14.5773799,16.0817939 14.5485408,15.7210472 L14.5066906,15.453586 L14.4596298,15.2869229 L14.4031686,15.137001 L14.3313529,14.9916766 C14.2726095,14.8816077 14.2501557,14.7606142 14.2674706,14.6290006 L14.2981706,14.4938582 L14.3615087,14.3563173 L14.4305224,14.2665656 C15.1954242,13.4642957 16.1219141,12.8367182 17.1495193,12.4229344 L17.595936,12.2588019 L17.7591538,12.2073486 C17.9508669,12.1490033 18.1548629,12.1869445 18.310825,12.3015536 Z M22.4380428,14.5485273 L22.1757313,14.7645621 C21.6289299,15.1702497 20.9866047,15.4176869 20.3131039,15.4801039 L19.9740533,15.4957702 C19.1883658,15.4957702 18.4297213,15.2443337 17.7920554,14.7786553 L17.5080428,14.5485273 L17.4395143,14.5843032 C17.2567647,14.6777731 17.0792858,14.7809553 16.9092343,14.8923459 L16.6599973,15.0653999 L16.5400428,15.1565273 L16.5557517,15.2288585 C16.6570808,15.8510097 16.6098117,16.4865039 16.4182057,17.0890148 L16.2859558,17.4461927 L16.1665254,17.7016603 L16.1050654,17.8169149 C15.7996259,18.3654492 15.3736429,18.8243423 14.8569076,19.1635788 L14.5362145,19.3525218 L14.2829228,19.4733054 L14.2360428,19.4905273 L14.2218043,19.7724563 L14.2189254,19.9610533 L14.2272722,20.2880169 L14.2519154,20.6079657 L14.2800428,20.8325273 L14.5107521,20.9371359 C14.9511023,21.1636609 15.3423202,21.4733589 15.6651476,21.8515231 L15.894144,22.1477539 L16.0428929,22.3785633 L16.1053414,22.4862474 C16.3686723,22.9604547 16.5315531,23.4809954 16.5865717,24.0227666 C16.6132085,24.1930279 16.6201831,24.3296669 16.6074957,24.4326834 C16.5948083,24.5356999 16.5587136,24.6355037 16.4992116,24.7320949 L16.6941023,24.8813725 C16.8524742,24.9958898 17.0165183,25.1021064 17.1837833,25.1987087 L17.4395143,25.3815356 L17.7228655,25.5741222 L17.9058462,25.4424187 C18.3069903,25.1708567 18.7566464,24.98161 19.2335445,24.8835333 L19.5959936,24.8272084 L19.8537851,24.8091809 L19.9740608,24.8072853 C20.6298491,24.8072853 21.2685089,24.9817938 21.8354839,25.3131504 L22.0297719,25.5522076 L22.222718,25.4739643 C22.4056423,25.3930525 22.5840463,25.3026221 22.7554738,25.2041894 L23.0070754,25.0507279 L23.3716386,24.9114173 L23.3512105,24.7224642 C23.3133369,24.211122 23.3743163,23.6985123 23.531256,23.2078953 L23.6669081,22.8444196 L23.7834463,22.5966641 L23.8430128,22.4858244 C24.1821794,21.8765284 24.6701574,21.3780579 25.2618163,21.0331843 L25.6518986,20.9372911 L25.6880325,20.6824211 L25.712549,20.4248648 L25.7259471,20.1662655 L25.7292195,19.9645519 L25.7254325,19.7406295 L25.7100428,19.4885273 L25.6651115,19.4724521 C25.1281776,19.2416778 24.6522112,18.8869909 24.2690342,18.4322919 L24.0505174,18.1476622 L23.9056038,17.923838 L23.8424783,17.8147724 C23.460772,17.1263241 23.2895082,16.3386763 23.3498641,15.5790761 L23.3899735,15.2556213 L23.4080428,15.1585273 L23.2936458,15.0685264 C23.1281988,14.946744 22.9563596,14.8340256 22.7801863,14.7314858 L22.512933,14.5854496 L22.4380428,14.5485273 Z M19.9740533,16.8214957 C21.6577312,16.8214957 23.0182883,18.2291635 23.0182883,19.961063 C23.0182883,21.6929593 21.6577274,23.1006302 19.9740533,23.1006302 C18.2903754,23.1006302 16.9298183,21.6929624 16.9298183,19.961063 C16.9298183,18.2291667 18.2903793,16.8214957 19.9740533,16.8214957 Z M19.9740533,18.9179961 C19.4304656,18.9179961 18.9852504,19.3823585 18.9852504,19.961063 C18.9852504,20.539876 19.4305765,21.0044959 19.9740533,21.0044959 C20.5175311,21.0044959 20.9628563,20.5398768 20.9628563,19.961063 C20.9628563,19.3823593 20.5176401,18.9179961 19.9740533,18.9179961 Z M19.6612825,3.23875675 L8.33852331,3.23875675 L8.33852331,5.10054487 L19.6612825,5.10054487 L19.6612825,3.23875675 Z"></path>
            </g>
        </g>
    </g>
</svg>