<svg viewBox="0 0 29 29" version="1.1" xmlns="http://www.w3.org/2000/svg" xmlns:xlink="http://www.w3.org/1999/xlink">
        <g stroke="none" stroke-width="1" fill="none" fill-rule="evenodd">
        <g transform="translate(-1195.000000, -1695.000000)" fill="currentColor" fill-rule="nonzero">
            <g transform="translate(1195.683350, 1695.334746)">
                <path d="M21.0011441,0.355225222 C22.353828,0.355225222 23.3989821,1.43717745 23.5243425,2.75535689 L23.5369692,3.02189189 L23.5369692,8.57777526 L27,8.57777526 C27.5522847,8.57777526 28,9.02549051 28,9.57777526 L28,18.6287741 C28,19.1810588 27.5522847,19.6287741 27,19.6287741 L23.536,19.6272252 L23.5369692,24.9781081 C23.5369692,26.3240257 22.5763578,27.4900978 21.2673991,27.6305993 L21.0011441,27.6447748 L6.7343947,27.6447748 C5.3817108,27.6447748 4.33655669,26.5628226 4.21119635,25.2446431 L4.19856961,24.9781081 L4.198,19.6272252 L1,19.6287741 C0.44771525,19.6287741 3.38176876e-17,19.1810588 0,18.6287741 L0,9.57777526 C-6.76353751e-17,9.02549051 0.44771525,8.57777526 1,8.57777526 L4.19856961,8.57777526 L4.19856961,3.02189189 C4.19856961,1.67597426 5.15918097,0.509902185 6.46813973,0.369400666 L6.7343947,0.355225222 L21.0011441,0.355225222 Z M20.5369692,14.6120457 L7.19856961,14.6120457 L7.198,24.6432252 L20.536,24.6432252 L20.5369692,14.6120457 Z M14.6003042,20.3784103 C15.2446364,20.3784103 15.7669708,20.9007447 15.7669708,21.5450769 C15.7669708,22.1894091 15.2446364,22.7117436 14.6003042,22.7117436 L10.3677694,22.7117436 C9.72343719,22.7117436 9.20110273,22.1894091 9.20110273,21.5450769 C9.20110273,20.9007447 9.72343719,20.3784103 10.3677694,20.3784103 L14.6003042,20.3784103 Z M17.5,16.4484905 C18.1443322,16.4484905 18.6666667,16.970825 18.6666667,17.6151572 C18.6666667,18.2594894 18.1443322,18.7818239 17.5,18.7818239 L10.5,18.7818239 C9.85566779,18.7818239 9.33333333,18.2594894 9.33333333,17.6151572 C9.33333333,16.970825 9.85566779,16.4484905 10.5,16.4484905 L17.5,16.4484905 Z M23.5225488,10.6575541 C22.5898408,10.6575541 21.8337317,11.4136633 21.8337317,12.3463712 C21.8337317,13.2790791 22.5898408,14.0351883 23.5225488,14.0351883 C24.4552567,14.0351883 25.2113659,13.2790791 25.2113659,12.3463712 C25.2113659,11.4136633 24.4552567,10.6575541 23.5225488,10.6575541 Z M20.536,3.35522522 L7.198,3.35522522 L7.19856961,8.57777526 L20.5369692,8.57777526 L20.536,3.35522522 Z"></path>
            </g>
        </g>
    </g>
</svg>