<svg viewBox="0 0 29 29" version="1.1" xmlns="http://www.w3.org/2000/svg" xmlns:xlink="http://www.w3.org/1999/xlink">
        <g stroke="none" stroke-width="1" fill="none" fill-rule="evenodd">
        <g transform="translate(-435.000000, -925.000000)" fill="currentColor" fill-rule="nonzero">
            <g transform="translate(435.850000, 925.667373)">
                <path d="M20.2575448,0.0887200598 C21.6382566,0.0887200598 22.7575448,1.20800819 22.7575448,2.58872006 L22.7575448,2.58872006 L22.7571746,5.04272006 L25.4301509,5.04327034 C26.7176409,5.04327034 27.7564261,6.03771102 27.8812449,7.28966449 L27.8938254,7.54327034 L27.8938254,17.0899363 C27.8938254,18.3729495 26.9355083,19.4475786 25.6841358,19.5768954 L25.4301509,19.5899363 L23.6341746,19.5897201 L23.6345165,25.4112799 C23.6345165,26.7367633 22.6029806,27.8213186 21.2988922,27.9059623 L21.1345165,27.9112799 L6.8654835,27.9112799 C5.48477163,27.9112799 4.3654835,26.7919918 4.3654835,25.4112799 L4.3654835,25.4112799 L4.36517461,19.5897201 L2.56984905,19.5899363 C1.28235914,19.5899363 0.243573947,18.5954956 0.118755055,17.3435421 L0.106174608,17.0899363 L0.106174608,7.54327034 C0.106174608,6.26025707 1.06449168,5.18562805 2.31586425,5.0563112 L2.56984905,5.04327034 L5.24217461,5.04272006 L5.24245525,2.58872006 C5.24245525,1.26323666 6.27399119,0.178681388 7.57807956,0.0940377395 L7.74245525,0.0887200598 Z M20.634,15.5082505 L7.364,15.5082505 L7.364,24.9102505 L20.634,24.9102505 L20.634,15.5082505 Z M17.6539847,21.097817 C18.2062694,21.097817 18.6539847,21.5455323 18.6539847,22.097817 C18.6539847,22.6501018 18.2062694,23.097817 17.6539847,23.097817 L10.3460153,23.097817 C9.79373059,23.097817 9.34601534,22.6501018 9.34601534,22.097817 C9.34601534,21.5455323 9.79373059,21.097817 10.3460153,21.097817 L17.6539847,21.097817 Z M17.6539847,17.3217134 C18.2062694,17.3217134 18.6539847,17.7694286 18.6539847,18.3217134 C18.6539847,18.8739981 18.2062694,19.3217134 17.6539847,19.3217134 L10.3460153,19.3217134 C9.79373059,19.3217134 9.34601534,18.8739981 9.34601534,18.3217134 C9.34601534,17.7694286 9.79373059,17.3217134 10.3460153,17.3217134 L17.6539847,17.3217134 Z M5.24217461,8.04172006 L3.106,8.04225047 L3.106,16.5882505 L4.36517461,16.5887201 L4.3654835,15.0082505 C4.3654835,13.6827671 5.39701944,12.5982118 6.70110782,12.5135681 L6.8654835,12.5082505 L21.1345165,12.5082505 C22.5152284,12.5082505 23.6345165,13.6275386 23.6345165,15.0082505 L23.6345165,15.0082505 L23.6341746,16.5887201 L24.892,16.5882505 L24.892,8.04225047 L22.7571746,8.04172006 L22.7575448,8.04327034 L5.24245525,8.04327034 L5.24217461,8.04172006 Z M22.4117212,8.91870266 C23.0491552,8.91870266 23.5658976,9.43544505 23.5658976,10.0728791 C23.5658976,10.7103131 23.0491552,11.2270555 22.4117212,11.2270555 C21.7742871,11.2270555 21.2575448,10.7103131 21.2575448,10.0728791 C21.2575448,9.43544505 21.7742871,8.91870266 22.4117212,8.91870266 Z M19.756,3.08825047 L8.242,3.08825047 L8.242,5.04225047 L19.756,5.04225047 L19.756,3.08825047 Z"></path>
            </g>
        </g>
    </g>
</svg>