<svg viewBox="0 0 29 29" version="1.1" xmlns="http://www.w3.org/2000/svg" xmlns:xlink="http://www.w3.org/1999/xlink">
        <g stroke="none" stroke-width="1" fill="none" fill-rule="evenodd">
        <g transform="translate(-435.000000, -822.000000)" fill="currentColor" fill-rule="nonzero">
            <g transform="translate(435.850000, 822.770046)">
                <path d="M7.763,0.885 C8.59142712,0.885 9.263,1.55657288 9.263,2.385 C9.263,3.14439153 8.69869224,3.77198192 7.96654111,3.87130677 L7.763,3.885 L3.659,3.885 C3.47346816,3.885 3.31798939,4.00964732 3.27131679,4.17996255 L3.257,4.287 L3.257,23.713 C3.257,23.8984232 3.3815568,24.0539744 3.55191729,24.1006742 L3.659,24.115 L24.339,24.115 C24.525256,24.115 24.6816409,23.9897487 24.7285954,23.8197355 L24.743,23.713 L24.743,4.287 C24.743,4.10230154 24.6176578,3.94626718 24.4465326,3.89938624 L24.339,3.885 L20.221,3.885 C19.3925729,3.885 18.721,3.21342712 18.721,2.385 C18.721,1.62560847 19.2853078,0.998018078 20.0174589,0.898693232 L20.221,0.885 L24.339,0.885 C26.1199333,0.885 27.5815802,2.25192088 27.7305045,3.9934472 L27.743,4.287 L27.743,23.713 C27.743,25.4930864 26.3750864,26.9536961 24.6326955,27.1025135 L24.339,27.115 L3.659,27.115 C1.87796581,27.115 0.418204157,25.7479842 0.269478649,24.0065378 L0.257,23.713 L0.257,4.287 C0.257,2.50701371 1.62302301,1.04631446 3.36530543,0.897487357 L3.659,0.885 L7.763,0.885 Z M19.396,18.825693 C20.2244271,18.825693 20.896,19.4972659 20.896,20.325693 C20.896,21.0537638 20.3739128,21.6728805 19.620388,21.8075853 L19.620388,21.8075853 L19.396,21.825693 L8.604,21.825693 C7.77557288,21.825693 7.104,21.1541201 7.104,20.325693 C7.104,19.5976222 7.62608723,18.9785056 8.37961203,18.8438008 L8.37961203,18.8438008 L8.604,18.825693 Z M13.9988515,4.51413389 C14.6403151,4.51413389 15.1857511,4.9740879 15.3051653,5.64336959 L15.3051653,5.64336959 L15.3203979,5.83573816 L15.318,13.19 L17.3123262,11.2978157 C17.7884669,10.8452837 18.5136352,10.8172553 19.0204583,11.2018489 L19.0204583,11.2018489 L19.1806714,11.3453128 C19.6225809,11.8102768 19.6649391,12.5225014 19.2620766,13.0701323 L19.2620766,13.0701323 L19.1331743,13.213658 L14.9909373,17.1505084 C14.5557442,17.5641231 13.8991632,17.6306306 13.3520627,17.2936207 L13.3520627,17.2936207 L13.1884732,17.1676511 L8.88521309,13.2308007 C8.34670021,12.7381406 8.30952921,11.9022097 8.80218933,11.3636968 C9.23517539,10.890412 9.94270656,10.7984458 10.5171205,11.1621028 L10.5171205,11.1621028 L10.6692602,11.2806429 L12.676,13.118 L12.6773051,5.8356803 C12.6773051,5.17216218 13.166294,4.62285353 13.8035631,4.52846285 L13.8035631,4.52846285 Z"></path>
            </g>
        </g>
    </g>
</svg>