<svg viewBox="0 0 29 29" version="1.1" xmlns="http://www.w3.org/2000/svg" xmlns:xlink="http://www.w3.org/1999/xlink">
        <g stroke="none" stroke-width="1" fill="none" fill-rule="evenodd">
        <g transform="translate(-761.000000, -1130.000000)" fill="currentColor" fill-rule="nonzero">
            <g transform="translate(761.400000, 1130.578064)">
                <path d="M13.9370717,0 C20.0730679,0 25.0472756,4.9742077 25.0472756,11.1102039 C25.0472756,13.4058293 24.3488693,15.5957774 23.0719162,17.435867 L22.8352149,17.756492 L26.449275,23.680083 L26.5329968,23.8476994 C26.7121214,24.2882374 26.6267538,24.7884084 26.3163854,25.1516863 L26.16971,25.2984226 L26.0008019,25.4172929 L25.8296893,25.5022101 C25.7001462,25.5542278 25.5633158,25.5843382 25.419124,25.5908987 L25.1973059,25.5828717 L25.0098842,25.5452499 L21.5626697,24.5617538 L20.8159852,27.105598 L20.7482769,27.2802984 C20.4812762,27.8375897 19.8463543,28.1241505 19.2473085,27.9485753 C19.0383307,27.8873257 18.8501727,27.7738303 18.6950088,27.6135465 L18.5512939,27.4378687 L18.4539616,27.2667723 L16.0095598,22.0227814 L15.6381913,22.0909601 L15.0760997,22.1627179 L14.5088071,22.2059459 L13.9370717,22.2204077 C13.3929775,22.2204077 12.8538282,22.181279 12.3225238,22.1039145 L11.9757547,22.0431747 L9.54359616,27.2667568 C9.45112362,27.465218 9.31007598,27.6340317 9.13639426,27.7594981 L8.95242493,27.870008 L8.750242,27.9485753 C8.21775692,28.1046421 7.65692516,27.8955645 7.34606535,27.4434941 L7.24175395,27.2628161 L7.17556337,27.0878211 L6.43284149,24.5617538 L2.98752136,25.5452911 C2.85205294,25.5837765 2.71224311,25.599149 2.57152879,25.5908289 L2.36020855,25.5605068 L2.15010925,25.4942109 L1.97973389,25.4078563 C1.50606472,25.1188325 1.28351182,24.5632104 1.40890836,24.029097 L1.47243132,23.8303754 L1.55744843,23.6635913 L5.10523424,17.8462228 L4.8633769,17.5231216 C3.76728184,15.97549 3.0837695,14.1737094 2.88637913,12.2662056 L2.84181922,11.6909311 L2.82686787,11.1102039 C2.82686787,4.9742077 7.80107557,0 13.9370717,0 Z M6.66328637,19.5042024 L4.65658048,22.7875321 L6.71859815,22.2053376 C7.24928651,22.0545738 7.80548278,22.264957 8.11389548,22.715152 L8.21740161,22.8949793 L8.2831843,23.0691436 L8.59045818,24.119218 L9.84057069,21.4354528 L9.50842019,21.3026009 C8.5742748,20.8961521 7.7010807,20.3625534 6.91279274,19.7185531 L6.66328637,19.5042024 Z M21.2893988,19.4328256 L21.0458638,19.6488162 C20.2650857,20.2995596 19.3985855,20.8410952 18.4701849,21.2565069 L18.1365865,21.3926268 L19.4070924,24.119218 L19.7203692,23.0513341 L19.787615,22.8775897 C19.9915807,22.450891 20.4153944,22.1776466 20.8903465,22.1598877 L21.0965365,22.1682162 L21.2787726,22.2052866 L23.3389307,22.7875321 L21.2893988,19.4328256 Z M13.9370717,3.05527777 C9.48845889,3.05527777 5.88214564,6.66159102 5.88214564,11.1102039 C5.88214564,15.5588167 9.48845889,19.1651299 13.9370717,19.1651299 C18.3856846,19.1651299 21.9919978,15.5588167 21.9919978,11.1102039 C21.9919978,6.66159102 18.3856846,3.05527777 13.9370717,3.05527777 Z M13.9370717,5.63562191 C16.9605998,5.63562191 19.4116537,8.08667573 19.4116537,11.1102039 C19.4116537,14.133732 16.9605998,16.5847858 13.9370717,16.5847858 C10.9135436,16.5847858 8.46248977,14.133732 8.46248977,11.1102039 C8.46248977,8.08667573 10.9135436,5.63562191 13.9370717,5.63562191 Z M13.9370717,8.69089968 C12.6009269,8.69089968 11.5177675,9.77405905 11.5177675,11.1102039 C11.5177675,12.4463487 12.6009269,13.529508 13.9370717,13.529508 C15.2732165,13.529508 16.3563759,12.4463487 16.3563759,11.1102039 C16.3563759,9.77405905 15.2732165,8.69089968 13.9370717,8.69089968 Z"></path>
            </g>
        </g>
    </g>
</svg>