<svg viewBox="0 0 30 29" version="1.1" xmlns="http://www.w3.org/2000/svg" xmlns:xlink="http://www.w3.org/1999/xlink">
        <g stroke="none" stroke-width="1" fill="none" fill-rule="evenodd">
        <g transform="translate(-326.000000, -410.000000)" fill="currentColor" fill-rule="nonzero">
            <g transform="translate(326.050000, 410.000000)">
                <path d="M25.2407648,18.7726034 C26.8872294,19.4931151 28.1098923,20.2759678 28.5100742,21.0385968 L28.592754,21.228785 L28.6768571,21.4738856 L28.6768571,28.8545857 L12.3643571,28.8545857 L12.063035,28.8250842 L11.6060738,28.7238434 C11.2504058,28.6382976 10.7966199,28.5160271 10.2683365,28.3533058 C8.9525699,27.9480247 7.63545626,27.426096 6.39446771,26.7700609 C2.66154197,24.7966902 0.323142857,22.0128267 0.323142857,18.2861571 C0.323142857,15.7039838 2.09447277,14.7349485 4.27030066,15.7178068 C4.77690099,15.9466468 5.3204928,16.2615186 6.06444765,16.7431992 L8.79186296,18.5560192 L9.49688585,19.0041727 C11.3457942,20.1519972 12.8991692,20.8952089 14.320654,21.2412245 L14.7898218,21.3418623 L15.196,21.4040714 L14.9810541,21.1167228 L14.8238809,20.8731993 L14.6880159,20.6243743 L14.570883,20.3643983 C14.3451214,19.8084376 14.2867342,19.2224751 14.4553598,18.6360142 C15.1396306,16.2667524 17.7739357,16.3197214 21.68272,17.4908958 L22.2660817,17.6708636 C23.6313115,18.1155197 23.8099648,18.1855498 25.2407648,18.7726034 Z M3.45928571,18.7899286 L3.4888365,19.0519321 C3.79976459,21.0499819 5.33829168,22.6971365 7.84660372,24.0231284 C8.89978704,24.5798824 10.0407147,25.0319944 11.1829893,25.3838366 L11.8088992,25.5669577 L11.8088992,25.5669577 L12.0759805,25.6386006 L12.5238571,25.7457857 L25.5697143,25.7457857 L25.5697143,22.4252857 L25.3628757,22.3039682 L25.1478585,22.1867698 L25.1478585,22.1867698 L24.6479599,21.9350343 C23.6664989,21.4630971 22.4100366,20.9712815 21.1944387,20.590949 C20.0379699,20.2291167 18.9880929,19.9891554 18.1823089,19.9052239 L18.0069286,19.8902714 L18.4842651,20.3757223 L18.7652325,20.6724796 L18.8810647,20.8027408 C19.3058477,21.2931809 19.5567682,21.7127461 19.6065249,22.300375 C19.7587724,24.0984289 18.4677831,24.5441977 16.1995304,24.5728192 C15.934892,24.5763272 15.6674111,24.5681877 15.3980818,24.5487088 C13.000309,24.375293 10.6821929,23.3993304 7.85863305,21.6445546 L7.2456349,21.2566192 L4.40510373,19.3704984 L3.83193124,19.00883 L3.83193124,19.00883 L3.45928571,18.7899286 Z"></path>
                <path d="M21.3296055,0.517857143 C23.105422,0.517857143 24.4432792,2.02756166 24.5791871,3.83845927 L24.5905783,4.14285714 L24.5905783,19.404462 C24.5905783,20.2624759 23.8950206,20.9580335 23.0370068,20.9580335 C22.2504942,20.9580335 21.6004898,20.3735719 21.4976177,19.6152725 L21.4834354,19.404462 L21.4834354,4.14285714 C21.4834354,3.93576962 21.432186,3.79075856 21.3887088,3.7078837 L21.3296055,3.625 L7.67039454,3.625 L7.61129116,3.7078837 C7.58230639,3.76313361 7.54986729,3.8459996 7.53146175,3.95646399 L7.5165646,4.14285714 L7.5165646,17.5881806 C7.5165646,18.4461944 6.82100698,19.141752 5.96299317,19.141752 C5.17648051,19.141752 4.52647618,18.5572904 4.42360402,17.798991 L4.40942174,17.5881806 L4.40942174,4.14285714 C4.40942174,2.30222361 5.65381491,0.695643641 7.37861129,0.531628668 L7.67039454,0.517857143 L21.3296055,0.517857143 Z"></path>
                <path d="M18.6428571,7.16291863 C19.2148663,7.16291863 19.6785714,7.62662371 19.6785714,8.19863291 C19.6785714,8.70708554 19.3121872,9.12996454 18.8290281,9.21766045 L18.6428571,9.2343472 L10.3571429,9.2343472 C9.78513365,9.2343472 9.32142857,8.77064212 9.32142857,8.19863291 C9.32142857,7.69018028 9.68781283,7.26730129 10.1709719,7.17960537 L10.3571429,7.16291863 L18.6428571,7.16291863 Z"></path>
                <path d="M16.5714286,12.2415434 C17.1434378,12.2415434 17.6071429,12.7052485 17.6071429,13.2772577 C17.6071429,13.7857103 17.2407586,14.2085893 16.7575995,14.2962853 L16.5714286,14.312972 L10.3571429,14.312972 C9.78513365,14.312972 9.32142857,13.8492669 9.32142857,13.2772577 C9.32142857,12.7688051 9.68781283,12.3459261 10.1709719,12.2582302 L10.3571429,12.2415434 L16.5714286,12.2415434 Z"></path>
            </g>
        </g>
    </g>
</svg>