<svg viewBox="0 0 29 29" version="1.1" xmlns="http://www.w3.org/2000/svg" xmlns:xlink="http://www.w3.org/1999/xlink">
        <g stroke="none" stroke-width="1" fill="none" fill-rule="evenodd">
        <g transform="translate(-1301.000000, -822.000000)" fill="currentColor" fill-rule="nonzero">
            <g transform="translate(1301.783333, 822.770046)">
                <path d="M23.4177501,11.564 L23.6105517,11.5762773 C24.2563819,11.6543585 24.7759459,12.1521513 24.883514,12.7972835 L24.903719,13.017411 L24.903719,13.3379327 C24.903719,19.3231529 21.2287381,23.5845416 15.5923011,24.2377927 L15.4857501,24.246 L15.4857501,25.032 L19.9062252,25.0327656 C20.5746408,25.024338 21.1449522,25.4629501 21.3318829,26.0754634 L21.3796025,26.2857006 L21.3963649,26.4861118 C21.3963649,27.2235269 20.8341662,27.8316588 20.1119125,27.9278932 L19.9112681,27.9411598 L8.0937498,27.9411598 C7.27626192,27.9411598 6.60531362,27.2908005 6.60537149,26.4793077 C6.61803404,25.73501 7.18112997,25.1290479 7.89547759,25.0430186 L8.09374979,25.0327336 L12.5097501,25.032 L12.5097501,24.216 L12.3897926,24.2039446 C7.14269074,23.4773104 3.53446192,19.6194842 3.13350141,14.3308593 L3.10535552,13.8309108 L3.09628103,13.3379442 L3.09628103,13.021676 C3.11140416,12.2118585 3.7775019,11.5655303 4.57569374,11.5757721 C5.31923067,11.565238 5.94236342,12.1074602 6.05270574,12.8283547 L6.06979048,13.0291111 L6.06979048,13.1442981 C6.06979048,17.9427094 9.19626423,21.2207332 13.8855225,21.3467372 C16.2057447,21.4090157 18.167382,20.7308795 19.5915612,19.3874028 C20.9957111,18.0615123 21.8174377,16.1017541 21.9207606,13.8295094 L21.9318557,13.337934 L21.931925,13.0099662 C21.9457364,12.2681579 22.5062546,11.664184 23.2229616,11.5765498 L23.4177501,11.564 Z M14.0016785,0.0588402227 C17.5299052,0.0588402227 20.4262655,2.74961027 20.6218192,6.13637261 L20.6323425,6.50181237 L20.6323425,13.2644969 C20.6323425,16.8197738 17.6556508,19.705915 14.0016785,19.705915 C10.4727139,19.705915 7.57704061,17.0158335 7.38153516,13.6298281 L7.37101457,13.2644697 L7.37101457,6.50025827 C7.37101457,2.9455093 10.3472105,0.0588402227 14.0016785,0.0588402227 Z M14.0016703,2.76048736 C11.9663497,2.76048736 10.2961283,4.2852838 10.1416749,6.21023616 L10.1300189,6.5018396 L10.1300189,13.2645241 C10.1300189,15.323791 11.8651615,17.0058764 14.0016703,17.0058764 C16.0361203,17.0058764 17.7057272,15.4804652 17.8601241,13.5560186 L17.8717758,13.2644996 L17.8717758,6.50028826 C17.8717758,5.61468343 17.5497362,4.76328748 16.9794242,4.10827249 L16.7540635,3.87216396 L16.4888726,3.63553216 C15.7921779,3.06743292 14.9217225,2.76048736 14.0016703,2.76048736 Z"></path>
            </g>
        </g>
    </g>
</svg>