<svg viewBox="0 0 29 31" version="1.1" xmlns="http://www.w3.org/2000/svg" xmlns:xlink="http://www.w3.org/1999/xlink">
        <g stroke="none" stroke-width="1" fill="none" fill-rule="evenodd">
        <g transform="translate(-435.000000, -513.000000)" fill="currentColor" fill-rule="nonzero">
            <g transform="translate(435.100000, 513.013364)">
                <path d="M23.856,0 C25.9980876,0 27.8101688,1.54997892 27.9860217,3.59340684 L28,3.92 L28,16.913584 C28,17.8414224 27.2478384,18.593584 26.32,18.593584 C25.4694815,18.593584 24.7665802,17.9615593 24.6553364,17.1415501 L24.64,16.913584 L24.64,3.92 C24.64,3.68714528 24.4069773,3.44204151 24.0464188,3.376764 L23.856,3.36 L4.144,3.36 C3.74385981,3.36 3.45367423,3.57183881 3.37893019,3.80344112 L3.36,3.92 L3.36,26.32 C3.36,26.5528547 3.59302269,26.7979585 3.95358115,26.863236 L4.144,26.88 L12.152,26.88 C13.0798384,26.88 13.832,27.6321616 13.832,28.56 C13.832,29.4105185 13.1999753,30.1134198 12.379966,30.2246636 L12.152,30.24 L4.144,30.24 C2.00191243,30.24 0.189831243,28.6900211 0.0139783432,26.6465932 L0,26.32 L0,3.92 C0,1.82755675 1.70497681,0.172955675 3.80870852,0.0127266756 L4.144,0 L23.856,0 Z"></path>
                <path d="M20.6765306,18.045309 C24.1404606,18.045309 26.9485306,20.8533791 26.9485306,24.317309 C26.9485306,27.781239 24.1404606,30.589309 20.6765306,30.589309 C17.2126007,30.589309 14.4045306,27.781239 14.4045306,24.317309 C14.4045306,20.8533791 17.2126007,18.045309 20.6765306,18.045309 Z M20.6765306,20.2482307 C18.4292408,20.2482307 16.6074524,22.0700191 16.6074524,24.317309 C16.6074524,26.5645989 18.4292408,28.3863873 20.6765306,28.3863873 C22.9238205,28.3863873 24.7456089,26.5645989 24.7456089,24.317309 C24.7456089,22.0700191 22.9238205,20.2482307 20.6765306,20.2482307 Z M20.3932513,20.6299404 C20.8410593,20.6299404 21.2040794,20.9929605 21.2040794,21.4408412 L21.2040794,21.4408412 L21.2031226,23.5165709 L23.282236,23.5189251 C23.6802875,23.5189251 24.0113461,23.8057558 24.0800005,24.1840058 L24.0800005,24.1840058 L24.093064,24.3297531 C24.093064,24.7775611 23.7300439,25.1405812 23.282236,25.1405812 L23.282236,25.1405812 L20.3932513,25.1405812 C19.9454433,25.1405812 19.5824232,24.7775611 19.5824232,24.3297531 L19.5824232,24.3297531 L19.5824232,21.4407685 C19.5824232,20.9929605 19.9454433,20.6299404 20.3932513,20.6299404 Z"></path>
                <path d="M19.04,7.21560985 C19.9678384,7.21560985 20.72,7.96777147 20.72,8.89560985 C20.72,9.74612836 20.0879753,10.4490296 19.267966,10.5602734 L19.04,10.5756098 L8.96,10.5756098 C8.03216162,10.5756098 7.28,9.82344823 7.28,8.89560985 C7.28,8.04509133 7.91202469,7.34219009 8.73203395,7.23094627 L8.96,7.21560985 L19.04,7.21560985 Z"></path>
                <path d="M15.4391297,14.9475296 C16.3669681,14.9475296 17.1191297,15.6996912 17.1191297,16.6275296 C17.1191297,17.4780481 16.487105,18.1809494 15.6670958,18.2921932 L15.4391297,18.3075296 L8.96,18.3075296 C8.03216162,18.3075296 7.28,17.555368 7.28,16.6275296 C7.28,15.7770111 7.91202469,15.0741099 8.73203395,14.962866 L8.96,14.9475296 L15.4391297,14.9475296 Z"></path>
            </g>
        </g>
    </g>
</svg>