<svg viewBox="0 0 29 29" version="1.1" xmlns="http://www.w3.org/2000/svg" xmlns:xlink="http://www.w3.org/1999/xlink">
        <g stroke="none" stroke-width="1" fill="none" fill-rule="evenodd">
        <g transform="translate(-760.000000, -410.000000)" fill="currentColor">
            <g transform="translate(760.650000, 410.500000)">
                <path d="M23.607176,4.53872357 L5.89282404,4.53872357 C3.95982742,4.53872357 2.39282404,6.10572695 2.39282404,8.03872357 L2.39282404,25.4140533 C2.39282404,26.7947652 3.51211217,27.9140533 4.89282404,27.9140533 L23.107176,27.9140533 C24.4878878,27.9140533 25.607176,26.7947652 25.607176,25.4140533 L25.607176,6.53872357 C25.607176,5.43415407 24.7117455,4.53872357 23.607176,4.53872357 Z M22.606,7.538 L22.606,24.914 L5.392,24.914 L5.39282404,8.03872357 C5.39282404,7.7625812 5.61668167,7.53872357 5.89282404,7.53872357 L22.606,7.538 Z" fill-rule="nonzero"></path>
                <polygon points="14 18.6263884 11.0610737 20.2714734 11.7174644 16.9680292 9.24471742 14.6813035 12.5893154 14.2847477 14 11.2263884 15.4106846 14.2847477 18.7552826 14.6813035 16.2825356 16.9680292 16.9389263 20.2714734"></polygon>
                <path d="M20.2912259,0.07591982 C21.5856433,0.07591982 22.6502937,1.05966915 22.7783187,2.32030934 L22.7904455,2.63602264 L22.6026776,5.55752556 L19.6089964,5.36291547 L19.758,3.074 L5.392,3.074 L5.39282404,9.46022051 L2.39282404,9.46022051 L2.39282404,2.57591982 C2.39282404,1.28150244 3.37657337,0.216852022 4.63721357,0.0888270382 L4.89282404,0.07591982 L20.2912259,0.07591982 Z" fill-rule="nonzero"></path>
            </g>
        </g>
    </g>
</svg>