<svg viewBox="0 0 29 29" version="1.1" xmlns="http://www.w3.org/2000/svg" xmlns:xlink="http://www.w3.org/1999/xlink">
        <g stroke="none" stroke-width="1" fill="none" fill-rule="evenodd">
        <g transform="translate(-435.000000, -616.000000)" fill="currentColor" fill-rule="nonzero">
            <g transform="translate(435.850000, 616.859355)">
                <path d="M10.2396227,0.212600657 L10.4302664,0.326846779 L16.086286,4.30627711 C16.7184576,4.75105685 16.9007989,5.59323781 16.5397914,6.25212427 L16.4277931,6.4268398 L12.3806834,11.881564 C11.8870632,12.546869 10.9475688,12.6860469 10.2822639,12.1924268 C9.67744124,11.7436811 9.50743425,10.9264444 9.85238656,10.2817111 L9.97140118,10.0940073 L12.0137128,7.33935123 C8.04640066,8.2421233 5.08538027,11.7912074 5.08538027,16.0318749 C5.08538027,20.9552834 9.07659147,24.9464946 14,24.9464946 C18.9234085,24.9464946 22.9146197,20.9552834 22.9146197,16.0318749 C22.9146197,15.2034477 23.5861926,14.5318749 24.4146197,14.5318749 C25.2430469,14.5318749 25.9146197,15.2034477 25.9146197,16.0318749 C25.9146197,22.6121376 20.5802628,27.9464946 14,27.9464946 C7.41973722,27.9464946 2.08538027,22.6121376 2.08538027,16.0318749 C2.08538027,10.4483831 5.92605353,5.76192859 11.1096629,4.47024862 L8.70399847,2.78041538 C8.08805824,2.34705562 7.89750847,1.53436318 8.22610203,0.881140879 L8.34034816,0.690497097 C8.77370792,0.0745568594 9.58640036,-0.115992909 10.2396227,0.212600657 Z"></path>
            </g>
        </g>
    </g>
</svg>