<svg viewBox="0 0 29 29" version="1.1" xmlns="http://www.w3.org/2000/svg" xmlns:xlink="http://www.w3.org/1999/xlink">
        <g stroke="none" stroke-width="1" fill="none" fill-rule="evenodd">
        <g transform="translate(-759.000000, -514.000000)" fill="currentColor">
            <g transform="translate(759.633333, 514.308018)">
                <path d="M16.425,0.058 C17.2039458,0.058 17.9473391,0.396861245 18.4608445,0.986534731 C18.9092559,1.50393242 19.1447675,2.16513674 19.1257815,2.83030746 L19.09741,3.15255688 L18.786,5.204 L25.089,5.204 C26.4676925,5.204 27.6182425,6.19293612 27.8698779,7.49986103 L27.9080207,7.76528706 L27.921,8.038 L27.921,25.11 C27.921,26.5802516 26.7961434,27.7915936 25.3614391,27.9290171 L25.089,27.942 L2.911,27.942 C1.4420433,27.942 0.229558727,26.816591 0.0919963786,25.3823416 L0.079,25.11 L0.079,8.038 C0.079,6.56680718 1.20474239,5.35452403 2.63871721,5.21699311 L2.911,5.204 L9.416,5.204 L9.01586984,3.27576121 C8.90069857,2.67248313 8.98839438,2.06489589 9.25723332,1.53641927 L9.40664747,1.27915971 L9.58564871,1.03740248 C10.0357874,0.492948961 10.6731534,0.151434077 11.3653656,0.0745624416 L11.665,0.058 L16.425,0.058 Z M25,8.124 L2.996,8.124 L2.996,25.022 L25,25.022 L25,8.124 Z M16.172,2.982 L11.932,2.982 L12.398,5.208 L15.834,5.208 L16.172,2.982 Z"></path>
                <path d="M13.7593512,10.4873789 C17.0993048,10.4873789 19.8068721,13.1949462 19.8068721,16.5348997 C19.8068721,17.1976414 19.2696138,17.7348997 18.6068721,17.7348997 C17.9441304,17.7348997 17.4068721,17.1976414 17.4068721,16.5348997 C17.4068721,14.5204296 15.7738214,12.8873789 13.7593512,12.8873789 C11.7448811,12.8873789 10.1118304,14.5204296 10.1118304,16.5348997 C10.1118304,18.5493699 11.7448811,20.1824206 13.7593512,20.1824206 C14.4220929,20.1824206 14.9593512,20.7196789 14.9593512,21.3824206 C14.9593512,22.0451623 14.4220929,22.5824206 13.7593512,22.5824206 C10.4193977,22.5824206 7.71183035,19.8748533 7.71183035,16.5348997 C7.71183035,13.1949462 10.4193977,10.4873789 13.7593512,10.4873789 Z" fill-rule="nonzero"></path>
                <path d="M19.5817393,12.9507868 C19.7782544,12.434647 20.3559754,12.17554 20.8721151,12.3720552 C21.330906,12.5467353 21.5866093,13.022615 21.4997493,13.488711 L21.4508467,13.662431 L19.9184672,17.6871695 C19.7356242,18.1674001 19.2257487,18.4213019 18.7455509,18.3027524 L18.5675645,18.2405523 L14.7465124,16.4907912 C14.2443724,16.2608479 14.0237133,15.6673773 14.2536565,15.1652373 C14.4580505,14.7188906 14.9496761,14.4949486 15.4090718,14.6121907 L15.5792104,14.6723814 L18.428,15.976 L19.5817393,12.9507868 Z" fill-rule="nonzero" transform="translate(17.839591, 15.319005) rotate(-1.000000) translate(-17.839591, -15.319005) "></path>
            </g>
        </g>
    </g>
</svg>