<svg viewBox="0 0 29 29" version="1.1" xmlns="http://www.w3.org/2000/svg" xmlns:xlink="http://www.w3.org/1999/xlink">
        <g stroke="none" stroke-width="1" fill="none" fill-rule="evenodd">
        <g transform="translate(-1087.000000, -1028.000000)" fill="currentColor">
            <g transform="translate(1087.300000, 1028.026727)">
                <path d="M25.1333333,2.08263608 C26.5140452,2.08263608 27.6333333,3.20192421 27.6333333,4.58263608 L27.6333333,4.58263608 L27.6333333,20.2129165 C27.6333333,21.5937953 26.5141719,22.7132547 25.1230604,22.7132195 L25.1230604,22.7132195 L24.2753445,22.7046626 C20.7656661,22.6819341 18.0349458,22.8343817 16.1010076,23.1556446 C13.9579464,23.5116467 11.9693551,24.3372253 10.120696,25.641325 C9.1898524,26.2979701 7.895585,25.7182292 7.76580729,24.5865004 C7.7164637,24.1561987 7.66787117,23.7769858 7.62043626,23.4502631 L7.62043626,23.4502631 L7.51799999,22.8231241 L6.320969,22.7768365 C5.94083471,22.7662006 5.51144271,22.7574049 5.03301293,22.750466 L5.03301293,22.750466 L2.85828027,22.7326519 C1.48088561,22.7279898 0.36666666,21.6101092 0.36666666,20.2326657 L0.36666666,20.2326657 L0.36666666,4.58263608 C0.36666666,3.20192421 1.48595478,2.08263608 2.86666666,2.08263608 L2.86666666,2.08263608 Z M24.632,5.0811241 L3.36599999,5.0811241 L3.36599999,19.7331241 L4.81134851,19.7426786 C8.10107517,19.77021 9.00869228,19.8606897 9.55715074,20.2722561 L9.55715074,20.2722561 L9.62681825,20.3277808 C9.99680921,20.6402006 10.214133,21.0501483 10.3844524,21.7936226 L10.3844524,21.7936226 L10.416,21.9491241 L10.8843372,21.7088415 C12.1690749,21.0800619 13.510682,20.619229 14.906799,20.3277943 L14.906799,20.3277943 L15.6093891,20.1962002 C17.5719525,19.8701821 20.1809381,19.7072928 23.4438963,19.7024629 L23.4438963,19.7024629 L24.632,19.7071241 L24.632,5.0811241 Z M19.25,13.3701172 C20.2164983,13.3701172 21,14.1536189 21,15.1201172 C21,16.0866156 20.2164983,16.8701172 19.25,16.8701172 L8.74999999,16.8701172 C7.78350168,16.8701172 6.99999999,16.0866156 6.99999999,15.1201172 C6.99999999,14.1536189 7.78350168,13.3701172 8.74999999,13.3701172 L19.25,13.3701172 Z M19.25,7.80537769 C20.2164983,7.80537769 21,8.58887938 21,9.55537769 C21,10.521876 20.2164983,11.3053777 19.25,11.3053777 L8.74999999,11.3053777 C7.78350168,11.3053777 6.99999999,10.521876 6.99999999,9.55537769 C6.99999999,8.58887938 7.78350168,7.80537769 8.74999999,7.80537769 L19.25,7.80537769 Z"></path>
            </g>
        </g>
    </g>
</svg>