<svg viewBox="0 0 29 29" version="1.1" xmlns="http://www.w3.org/2000/svg" xmlns:xlink="http://www.w3.org/1999/xlink">
        <g stroke="none" stroke-width="1" fill="none" fill-rule="evenodd">
        <g transform="translate(-1302.000000, -719.000000)" fill="currentColor" fill-rule="nonzero">
            <g transform="translate(1302.466667, 719.756682)">
                <path d="M19.6893229,0.0129791613 C20.51775,0.0129791613 21.1893229,0.684552037 21.1893229,1.51297916 L21.188,2.77697916 L26,2.77792905 C27.1045695,2.77792905 28,3.67335955 28,4.77792905 L28,25.9870208 C28,27.0915903 27.1045695,27.9870208 26,27.9870208 L2,27.9870208 C0.8954305,27.9870208 0,27.0915903 0,25.9870208 L0,4.77792905 C0,3.67335955 0.8954305,2.77792905 2,2.77792905 L6.81,2.77697916 L6.81067711,1.51297916 C6.81067711,0.684552037 7.48224999,0.0129791613 8.31067711,0.0129791613 C9.13910423,0.0129791613 9.81067711,0.684552037 9.81067711,1.51297916 L9.81,2.77697916 L18.188,2.77697916 L18.1893229,1.51297916 C18.1893229,0.684552037 18.8608958,0.0129791613 19.6893229,0.0129791613 Z M25,12.6589792 L3,12.6589792 L3,24.9870208 L25,24.9870208 L25,12.6589792 Z M21.7261187,14.9309957 C22.2009075,15.5155969 22.1631424,16.3494746 21.6692106,16.8886448 L21.5074025,17.0410106 L16.6184127,21.0116451 C16.1086482,21.4256546 15.3983927,21.4549267 14.861336,21.1090257 L14.6687883,20.9617453 L12.266,18.7970208 L8.42213636,22.1408916 C7.85366595,22.6348799 7.01899321,22.6248973 6.46367784,22.1491895 L6.30600951,21.9925436 C5.8120212,21.4240732 5.82200379,20.5894005 6.29771162,20.0340851 L6.45435748,19.8764168 L11.3019835,15.6639362 C11.8167722,15.2165962 12.5590738,15.1780382 13.1128202,15.5445425 L13.289848,15.6817078 L15.722,17.8730208 L19.6161037,14.7122794 C20.2591651,14.1900117 21.2038509,14.2879343 21.7261187,14.9309957 Z M6.81,5.77697916 L3,5.77702084 L3,9.65897916 L25,9.65897916 L25,5.77702084 L21.188,5.77697916 L21.1893229,6.90225689 C21.1893229,7.73068402 20.51775,8.40225689 19.6893229,8.40225689 C18.8608958,8.40225689 18.1893229,7.73068402 18.1893229,6.90225689 L18.188,5.77697916 L9.81,5.77697916 L9.81067711,6.90225689 C9.81067711,7.73068402 9.13910423,8.40225689 8.31067711,8.40225689 C7.48224999,8.40225689 6.81067711,7.73068402 6.81067711,6.90225689 L6.81,5.77697916 Z"></path>
            </g>
        </g>
    </g>
</svg>