<svg viewBox="0 0 29 29" version="1.1" xmlns="http://www.w3.org/2000/svg" xmlns:xlink="http://www.w3.org/1999/xlink">
        <g stroke="none" stroke-width="1" fill="none" fill-rule="evenodd">
        <g transform="translate(-435.000000, -1697.000000)" fill="currentColor">
            <g transform="translate(435.850000, 1697.334746)">
                <path d="M18.5223981,12.6314036 C19.0746828,12.6314036 19.5223981,13.0791188 19.5223981,13.6314036 L19.5223981,26.8684629 C19.5223981,27.4207476 19.0746828,27.8684629 18.5223981,27.8684629 L1.25107888,27.8684629 C0.698794131,27.8684629 0.251078881,27.4207476 0.251078881,26.8684629 L0.251078881,13.6314036 C0.251078881,13.0791188 0.698794131,12.6314036 1.25107888,12.6314036 L18.5223981,12.6314036 Z M14.4286946,0.337585938 C14.4616241,0.39695221 14.4789024,0.463722761 14.4789024,0.531610237 L14.4786056,3.06438037 C21.9345773,3.83549313 27.7489211,10.1373345 27.7489211,17.7971887 C27.7489211,18.6256158 27.0773482,19.2971887 26.2489211,19.2971887 C25.420494,19.2971887 24.7489211,18.6256158 24.7489211,17.7971887 C24.7489211,11.7961392 20.2738104,6.84030784 14.4787263,6.08483184 L14.4789024,8.23699051 C14.4789024,8.45790441 14.2998163,8.63699051 14.0789024,8.63699051 C14.0110149,8.63699051 13.9442444,8.61971224 13.8848781,8.58678269 L6.9391455,4.73409256 C6.74596061,4.6269359 6.67622095,4.38346096 6.78337762,4.19027608 C6.81969752,4.12479758 6.873667,4.0708281 6.9391455,4.03450819 L13.8848781,0.181818054 C14.078063,0.0746613926 14.3215379,0.14440105 14.4286946,0.337585938 Z"></path>
            </g>
        </g>
    </g>
</svg>