<svg viewBox="0 0 29 29" version="1.1" xmlns="http://www.w3.org/2000/svg" xmlns:xlink="http://www.w3.org/1999/xlink">
        <g stroke="none" stroke-width="1" fill="none" fill-rule="evenodd">
        <g transform="translate(-218.000000, -1130.000000)" fill="currentColor">
            <g transform="translate(218.816667, 1130.578064)">
                <path d="M14.2964517,0.0613279476 C17.8591991,0.209606489 20.854126,3.26569296 20.9066986,6.81438194 C20.9524567,8.55916107 20.28884,10.2894763 19.0766443,11.6549231 C18.6415544,12.1152356 18.3103393,12.6448464 18.0804292,13.2430043 L17.9546192,13.6101187 L17.8913815,13.8458865 L23.1910573,13.8472069 C24.7814147,13.8472069 26.1125175,15.00871 26.375128,16.5256646 L26.4102147,16.7968882 L26.4221298,17.074507 L26.4221298,21.8577965 C26.4221298,22.3504142 26.0115715,23.0613279 25.5016608,23.0613279 L2.96916553,23.0613279 C2.26597062,23.0587106 1.68692513,22.5358259 1.59530085,21.8577965 L1.58267016,21.6693072 L1.58267016,17.074507 C1.58267016,15.391089 2.88437731,14.0007809 4.53227845,13.8590959 L4.8099703,13.8472069 L10.0956881,13.8458865 L10.0436499,13.6618978 C9.88254396,13.1743895 9.64374847,12.6926872 9.33588935,12.2297557 L9.09218035,11.8862792 L8.82338117,11.5510571 C7.70504684,10.2871168 7.09011424,8.65385157 7.09416695,6.96443761 C7.09416695,5.08059858 7.84639147,3.30556136 9.21580588,1.98240023 C10.4767836,0.771197974 12.0779587,0.115461982 13.8443079,0.0619008677 L14.2964517,0.0613279476 Z M25.1401784,24.9386721 C25.9354911,24.9386721 26.5676747,25.6217336 26.5676747,26.4386721 C26.5676747,27.2556105 25.9354911,27.9386721 25.1401784,27.9386721 L25.1401784,27.9386721 L2.85786525,27.9386721 C2.06357082,27.9355603 1.43508902,27.2593044 1.43232533,26.4406721 C1.43232533,25.6227359 2.0654401,24.9386721 2.85982162,24.9386721 L2.85982162,24.9386721 Z M13.9374052,2.83643764 L14.1604752,2.84067299 L14.4537409,2.86273123 C16.4621636,3.08938768 18.0841696,4.83799022 18.1229037,6.88283039 C18.1228191,7.97647881 17.7340978,9.00302238 17.0125554,9.76584286 L17.0125554,9.76584286 L16.7091685,10.1108926 C15.5400536,11.5244788 14.9068362,13.3306017 14.9068362,15.2373414 C14.9096871,16.0051022 15.5283231,16.6246182 16.2933251,16.6274727 L16.2933251,16.6274727 L23.1929435,16.627476 L23.3108634,16.6438023 C23.4987249,16.6963002 23.6373227,16.8694373 23.6380916,17.07626 L23.6380916,17.07626 L23.636768,20.2778523 L4.3597327,20.2778523 L4.36105304,17.074507 L4.37741743,16.9554714 C4.43002546,16.7659002 4.60344741,16.6263537 4.80983706,16.6255865 L4.80983706,16.6255865 L11.7021706,16.6255897 L11.8900382,16.6128648 C12.5662679,16.5205765 13.0923051,15.9376669 13.0923051,15.2373414 C13.0923051,13.2442061 12.3208475,11.2973918 10.9078028,9.6882021 L10.9078028,9.6882021 L10.6989705,9.43175078 C10.1707397,8.72516516 9.87443603,7.84417519 9.87443603,6.96443761 C9.87443603,5.84352235 10.3365289,4.77263334 11.1533018,3.99822421 C11.9546569,3.20552628 13.0427714,2.78833338 14.1604752,2.84067299 Z"></path>
            </g>
        </g>
    </g>
</svg>