<svg viewBox="0 0 28 29" version="1.1" xmlns="http://www.w3.org/2000/svg" xmlns:xlink="http://www.w3.org/1999/xlink">
        <g stroke="none" stroke-width="1" fill="none" fill-rule="evenodd">
        <g transform="translate(-112.000000, -822.000000)" fill="currentColor">
            <g transform="translate(112.000000, 822.770046)">
                <path d="M13.0007,-5.00000001e-05 C20.1807,-5.00000001e-05 26.0007,5.81995 26.0007,12.99995 C26.0007,16.0491546 24.9510434,18.8530786 23.1933329,21.0701194 L27.5613,25.43855 C28.0922091,25.9712773 28.1404736,26.804831 27.7060934,27.392254 L27.5613,27.56055 C26.9753,28.14655 26.0233,28.14655 25.4373,27.56055 L21.0708694,23.1925829 C18.8538286,24.9502934 16.0499046,25.99995 13.0007,25.99995 C5.8207,25.99995 0.0007,20.17995 0.0007,12.99995 C0.0007,5.81995 5.8207,-5.00000001e-05 13.0007,-5.00000001e-05 Z M13.0007,2.99995 C7.4847,2.99995 3.0007,7.48595 3.0007,12.99995 C3.0007,18.51395 7.4847,22.99995 13.0007,22.99995 C18.5147,22.99995 23.0007,18.51395 23.0007,12.99995 C23.0007,7.48595 18.5147,2.99995 13.0007,2.99995 Z"></path>
            </g>
        </g>
    </g>
</svg>