<svg viewBox="0 0 29 29" version="1.1" xmlns="http://www.w3.org/2000/svg" xmlns:xlink="http://www.w3.org/1999/xlink">
        <g stroke="none" stroke-width="1" fill="none" fill-rule="evenodd">
        <g transform="translate(-542.000000, -925.000000)" fill="currentColor" fill-rule="nonzero">
            <g transform="translate(542.658325, 925.667373)">
                <path d="M2.39260029,2.75052731 L14.0015792,0 L25.6077791,2.75041555 L25.6291768,3.89868082 L25.6759338,6.82313615 L25.7120595,9.80239512 L25.7314067,12.3969855 C25.7462932,15.5969716 25.7143929,17.4515877 25.6225525,18.1676879 L25.6071319,18.2738653 L25.5810053,18.411691 C24.8052607,22.1098646 17.7932698,28 14.0015453,28 C10.1967243,28 3.18215993,22.0912941 2.41784093,18.4010848 L2.39183979,18.2620332 C2.30088093,17.7170509 2.26257722,16.1882799 2.26521969,13.5393221 L2.26731266,12.7386737 L2.28848427,9.78443225 L2.3089866,7.98909803 L2.33437791,6.16527027 L2.39260029,2.75052731 Z M14.000673,3.03850248 L5.3087714,5.09789886 L5.25523435,8.92540207 L5.22972537,11.7728688 C5.21231792,14.6598495 5.23060594,16.6825856 5.28126458,17.4810519 L5.29575226,17.6668869 L5.30896091,17.775859 C5.68437781,20.031668 11.5974948,25.0426428 14.0015453,25.0426428 C16.4044537,25.0426428 22.3148397,20.0328727 22.6918919,17.7771853 L22.7024574,17.6963745 C22.7502516,17.2495971 22.7767698,15.8337169 22.7767698,13.7065985 L22.7731052,12.2509265 L22.7548503,9.83185192 L22.7246618,7.28274064 L22.690663,5.09789886 L14.000673,3.03850248 Z M13.6272466,7.34949164 C16.4273058,7.34949164 18.6972023,9.61938813 18.6972023,12.4194473 C18.6972023,13.4146287 18.4104703,14.3428402 17.9151131,15.1259753 L19.4702263,16.6562279 C19.9206408,17.0994241 19.9264924,17.8238388 19.4832962,18.2742534 C19.0706116,18.6936594 18.4083815,18.7306312 17.9439539,18.3576754 L17.9439539,18.3576754 L17.8652707,18.2873233 L16.2886269,16.7355405 C15.5150664,17.2135472 14.6033713,17.489403 13.6272466,17.489403 C10.8271874,17.489403 8.55729089,15.2195066 8.55729089,12.4194473 C8.55729089,9.61938813 10.8271874,7.34949164 13.6272466,7.34949164 Z M13.6272466,9.63779987 C12.0909851,9.63779987 10.8455991,10.8831859 10.8455991,12.4194473 C10.8455991,13.9557088 12.0909851,15.2010948 13.6272466,15.2010948 C15.1635081,15.2010948 16.4088941,13.9557088 16.4088941,12.4194473 C16.4088941,10.8831859 15.1635081,9.63779987 13.6272466,9.63779987 Z"></path>
            </g>
        </g>
    </g>
</svg>