<svg viewBox="0 0 29 29" version="1.1" xmlns="http://www.w3.org/2000/svg" xmlns:xlink="http://www.w3.org/1999/xlink">
        <g stroke="none" stroke-width="1" fill="none" fill-rule="evenodd">
        <g transform="translate(-869.000000, -1130.000000)" fill="currentColor" fill-rule="nonzero">
            <g transform="translate(869.916667, 1130.578064)">
                <path d="M27.6111779,1.86773656 L27.6005139,2.07046438 L25.1795014,22.7838795 C25.0816576,23.6210003 24.3202097,24.1988648 23.5093857,24.099143 L23.3060064,24.0598541 L13.6719658,21.5111011 C13.4123217,21.4424104 13.1866686,21.3096974 13.0074767,21.1344038 L13.0078382,24.122402 L15.8223214,23.3267079 C16.553022,23.1199417 17.31055,23.4920495 17.6054714,24.1694948 L17.6740672,24.3616174 C17.8808334,25.0923179 17.5087256,25.849846 16.8312803,26.1447673 L16.6391577,26.2133631 L11.9176203,27.5494157 C11.0240545,27.8022678 10.136034,27.1925722 10.0216026,26.3011968 L10.0092022,26.106088 L10.0092022,19.5042774 C10.0092022,19.1547863 10.1311295,18.8185956 10.3503443,18.5518739 L10.4933506,18.4006265 L18.9421544,10.6239552 C19.551684,10.0629158 20.5006177,10.1022249 21.061657,10.7117546 C21.5716928,11.2658724 21.5855728,12.1004894 21.1259326,12.6691756 L20.9738576,12.8312572 L14.6348221,18.6610128 L22.3978382,20.716402 L24.2638382,4.760402 L5.53583822,16.052402 L7.78789598,16.7447527 C8.51374555,16.9679519 8.94775505,17.6917949 8.82749998,18.4208007 L8.78076388,18.6193762 C8.55756463,19.3452258 7.83372162,19.7792353 7.10471585,19.6589802 L6.90614036,19.6122441 L1.44828271,17.933949 C0.281867129,17.5752754 0.0319367208,16.0768606 0.932296341,15.3436686 L1.11465081,15.2156276 L25.3361464,0.611752051 C26.3445272,0.00376859117 27.5970502,0.740781764 27.6111779,1.86773656 Z"></path>
            </g>
        </g>
    </g>
</svg>