<svg viewBox="0 0 29 29" version="1.1" xmlns="http://www.w3.org/2000/svg" xmlns:xlink="http://www.w3.org/1999/xlink">
        <g stroke="none" stroke-width="1" fill="none" fill-rule="evenodd">
        <g transform="translate(-110.000000, -1233.000000)" fill="currentColor" fill-rule="nonzero">
            <g transform="translate(110.300000, 1233.482073)">
                <path d="M10.1177156,0.332398965 C10.4140574,0.242211324 10.7298193,0.340571843 10.9236094,0.569954617 L11.0096855,0.695298202 L11.1231847,0.888147971 C11.7621954,1.88544228 12.8324015,2.49421919 14.0000341,2.49421919 C15.1186565,2.49421919 16.1466248,1.93591892 16.7857519,1.02872422 L16.9501945,0.772814538 L16.9884627,0.70267248 C17.1363934,0.427821191 17.4329739,0.275206092 17.7340237,0.304160292 L17.8893469,0.33503 L17.9405675,0.351280398 C19.9016998,0.960012922 21.6983637,2.01822255 23.2060722,3.43669488 L23.7179897,3.94345386 C23.8534575,4.08551307 23.9271413,4.27186777 23.9186152,4.50253032 L23.8964871,4.68383515 L23.8384303,4.83166568 C23.243759,5.94887564 23.2549322,7.29114438 23.8675977,8.39735476 C24.3913128,9.33819576 25.2767095,9.96349161 26.2697131,10.1419017 L26.5705883,10.1818868 L26.6543749,10.1879783 C26.9955773,10.2070644 27.2826065,10.4504151 27.3557328,10.7773074 L27.3890737,10.9292324 C27.5436323,11.6672753 27.6412462,12.4195425 27.6803933,13.1811192 L27.699995,13.945617 L27.6869256,14.5769633 C27.6602476,15.207877 27.5927199,15.8372937 27.4841326,16.4641322 L27.3618509,17.0900712 L27.1760513,17.8452318 C27.1258873,18.0256464 27.0121129,18.1788876 26.822342,18.2916478 L26.6655709,18.3684199 L26.5105885,18.4012939 L26.471934,18.405163 C25.6045269,18.5078261 24.8059277,18.9452332 24.244936,19.6236202 L24.0460317,19.8891282 L23.8679124,20.1779407 C23.4432589,20.943841 23.3036848,21.8300935 23.4599363,22.6669227 L23.5450444,23.0220429 L23.659906,23.3576764 C23.7533244,23.5936575 23.7225098,23.8570914 23.5842708,24.0637835 L23.4885709,24.1803163 L23.3927644,24.275436 C21.9865786,25.6554388 20.2986745,26.7107706 18.445323,27.3717402 L17.6987737,27.6129024 L17.478886,27.6741112 C17.3029135,27.7218082 17.11805,27.7045459 16.9271103,27.6052659 L16.7828103,27.5151612 L16.6762765,27.4061855 L16.5709501,27.2773411 C15.9184417,26.5214298 14.9927997,26.0831039 13.9999026,26.0831039 C13.2511462,26.0831039 12.5396764,26.3317681 11.962879,26.7723086 L11.7242093,26.9726936 L11.4969574,27.1998715 L11.3228257,27.4094264 C11.1326817,27.6504976 10.8166966,27.7543214 10.5209281,27.6730893 L10.166599,27.5729443 C8.45931994,27.0547121 6.87368333,26.2056679 5.49249439,25.0711857 L4.98429376,24.6324636 L4.50957883,24.1799868 C4.39594743,24.0665235 4.32221046,23.9215775 4.30032755,23.7166029 L4.29382487,23.5511705 L4.3390528,23.3581286 C4.74862381,22.3205496 4.67240021,21.1541333 4.13154285,20.1791547 C3.71178554,19.4244018 3.05876128,18.8698366 2.30719114,18.5916501 L2.02099613,18.5004342 L1.72235622,18.4330784 L1.48236262,18.401999 C1.29752774,18.382869 1.1285209,18.2974917 0.985712518,18.1312809 L0.883680482,17.9912385 L0.824693707,17.8458331 C0.601166974,17.0330043 0.448311552,16.202909 0.367292106,15.3579111 L0.320014966,14.7214055 L0.299991457,13.9450003 C0.299628933,13.3077323 0.34062293,12.6713957 0.423453714,12.0355062 L0.520247325,11.3997478 L0.641073088,10.7854713 C0.684438909,10.5870522 0.803973652,10.4173246 1.00954304,10.2966806 L1.18000573,10.2157193 L1.34969986,10.1855367 L1.40005039,10.1826076 C2.31433466,10.1098096 3.16404261,9.665018 3.75407434,8.95218303 L3.96278286,8.67250841 L4.1321607,8.39657711 C4.58678373,7.5764614 4.71403011,6.62035178 4.50409848,5.7322942 L4.40954975,5.40286108 L4.29436307,5.10203011 L4.16003492,4.83060396 C4.06801577,4.65818542 4.04675188,4.45983708 4.11578472,4.24058317 L4.18479533,4.07230144 L4.28150358,3.9432607 C5.81430504,2.33557665 7.71739715,1.12761702 9.8273451,0.423954981 L10.1177156,0.332398965 Z M18.368,3.772 L18.2009504,3.93393576 C17.0419174,4.96766688 15.5575611,5.54752481 13.9999961,5.54752481 C12.4623579,5.54752481 10.9957192,4.9822855 9.83913845,3.97029647 L9.628,3.774 L9.27356028,3.94625985 C8.76248726,4.20765514 8.27387464,4.50965025 7.81386631,4.84815328 L7.424,5.15 L7.49127216,5.48494976 C7.69910924,6.76104992 7.5415155,8.07084711 7.03464967,9.26641763 L6.82823441,9.70911328 L6.72077367,9.91075824 C6.09274226,11.0386309 5.16973279,11.9394233 4.0553217,12.5256612 L3.62864789,12.7305848 L3.332,12.842 L3.30600857,13.1596231 L3.2852274,13.6006813 L3.28000365,13.9456315 C3.28000365,14.3532285 3.30100046,14.7582481 3.34248248,15.1572445 L3.422,15.76 C4.61100948,16.2318454 5.62626367,17.0370142 6.35317332,18.0772519 L6.61201237,18.4781619 L6.72106739,18.6660882 C7.28413809,19.6800684 7.57841259,20.8174949 7.57995137,21.9826844 L7.56261846,22.4834722 L7.526,22.82 L7.88470631,23.0945808 C8.32793348,23.4150742 8.79445153,23.7002768 9.27746256,23.9465374 L9.76571949,24.1796821 L10.158,24.342 L10.4787861,24.110925 C11.3318789,23.5334078 12.3145955,23.1740576 13.3449764,23.0644524 L13.7892474,23.0328612 L14.0000095,23.0294949 C15.3094556,23.0294949 16.5709689,23.4378813 17.6314846,24.1879084 L17.836,24.344 L18.1935173,24.198831 C18.7054718,23.9723812 19.197784,23.7062024 19.6635158,23.404561 L20.1201306,23.0912566 L20.474,22.818 L20.4383533,22.4901873 C20.357454,21.3979423 20.5402616,20.3014122 20.973557,19.2889494 L21.1745525,18.8604413 L21.2791905,18.6656502 C21.9574185,17.4472474 22.979958,16.4945225 24.2080766,15.9195518 L24.576,15.762 C24.6296348,15.4392255 24.6663964,15.1186353 24.6895751,14.7990038 L24.7141224,14.3206836 L24.7200024,13.9456429 L24.712742,13.5299062 L24.6913241,13.1232195 L24.666,12.844 L24.3867934,12.7353183 C23.292191,12.2648581 22.3420078,11.490034 21.6401789,10.4853392 L21.3888376,10.097949 L21.2785235,9.90747469 C20.5260791,8.55036065 20.2587624,6.98235264 20.5018612,5.54715842 L20.582,5.154 L20.1891112,4.84851104 C19.7267135,4.50814871 19.2375255,4.20579152 18.7263917,3.94442643 L18.368,3.772 Z M13.9999961,8.65405171 C16.8319434,8.65405171 19.1199831,11.0269914 19.1199831,13.9456489 C19.1199831,16.8643022 16.8319351,19.2372461 13.9999961,19.2372461 C11.1680487,19.2372461 8.88000907,16.8643064 8.88000907,13.9456489 C8.88000907,11.0269957 11.168057,8.65405171 13.9999961,8.65405171 Z M13.9999961,11.7079695 C12.8218693,11.7079695 11.8599986,12.7055583 11.8599986,13.9456489 C11.8599986,15.1858997 12.8220311,16.1839873 13.9999961,16.1839873 C15.177963,16.1839873 16.1399935,15.1859009 16.1399935,13.9456489 C16.1399935,12.7055595 15.1781209,11.7079695 13.9999961,11.7079695 Z"></path>
            </g>
        </g>
    </g>
</svg>