<svg viewBox="0 0 29 29" version="1.1" xmlns="http://www.w3.org/2000/svg" xmlns:xlink="http://www.w3.org/1999/xlink">
        <g stroke="none" stroke-width="1" fill="none" fill-rule="evenodd">
        <g transform="translate(-327.000000, -822.000000)" fill="currentColor" fill-rule="nonzero">
            <g transform="translate(327.333333, 822.770046)">
                <path d="M13.1487141,0.2 C20.2919979,0.2 26.0822446,5.99024671 26.0822446,13.1335305 C26.0822446,15.964315 25.16982,18.6553787 23.5158211,20.8681473 L23.2678167,21.184 L27.3496952,25.2639276 C27.8185127,25.7327451 27.9084878,26.4369451 27.6196204,26.9961114 L27.4935369,27.1982573 L27.3496952,27.3648788 C26.8222755,27.8922984 25.9969498,27.9402457 25.4153654,27.5087205 L25.248744,27.3648788 L21.1638167,23.278 L20.8514351,23.5243941 C18.9597078,24.9294002 16.7214003,25.7939062 14.3465471,26.0122344 L13.7501106,26.0532932 L13.1487141,26.067061 C6.00543028,26.067061 0.215183571,20.2768143 0.215183571,13.1335305 C0.215183571,5.99024671 6.00543028,0.2 13.1487141,0.2 Z M13.1487141,3.1687449 C7.65298317,3.1687449 3.18392848,7.6384167 3.18392848,13.1335305 C3.18392848,18.6286443 7.65298317,23.0983161 13.1487141,23.0983161 C18.6431199,23.0983161 23.1134997,18.6279363 23.1134997,13.1335305 C23.1134997,7.63912468 18.6431199,3.1687449 13.1487141,3.1687449 Z M17.7666948,11.6001246 C18.5871673,11.6001246 19.2522917,12.2652489 19.2522917,13.0857214 C19.2522917,13.8378212 18.6934025,14.4593854 17.9682815,14.5577565 L17.7666948,14.5713182 L8.33898476,14.5713182 C7.51851229,14.5713182 6.85338793,13.9061939 6.85338793,13.0857214 C6.85338793,12.3336216 7.41227715,11.7120574 8.13739807,11.6136863 L8.33898476,11.6001246 L17.7666948,11.6001246 Z"></path>
            </g>
        </g>
    </g>
</svg>