<svg viewBox="0 0 29 29" version="1.1" xmlns="http://www.w3.org/2000/svg" xmlns:xlink="http://www.w3.org/1999/xlink">
        <g stroke="none" stroke-width="1" fill="none" fill-rule="evenodd">
        <g transform="translate(-1086.000000, -1697.000000)" fill="currentColor">
            <g transform="translate(1086.950000, 1697.334746)">
                <path d="M14.364469,0.388085135 L24.6622395,11.3531112 C24.851281,11.5544019 24.8413511,11.8708286 24.6400604,12.0598701 C24.5473532,12.1469358 24.4249517,12.1954011 24.2977705,12.1954011 L3.7022295,12.1954011 C3.42608712,12.1954011 3.2022295,11.9715435 3.2022295,11.6954011 C3.2022295,11.5682199 3.25069485,11.4458184 3.33776054,11.3531112 L13.635531,0.388085135 C13.8245725,0.186794487 14.1409993,0.176864584 14.3422899,0.365906077 C14.349913,0.373065331 14.3573097,0.380461989 14.364469,0.388085135 Z"></path>
                <path d="M14.364469,16.192684 L24.6622395,27.1577101 C24.851281,27.3590007 24.8413511,27.6754275 24.6400604,27.864469 C24.5473532,27.9515347 24.4249517,28 24.2977705,28 L3.7022295,28 C3.42608712,28 3.2022295,27.7761424 3.2022295,27.5 C3.2022295,27.3728188 3.25069485,27.2504173 3.33776054,27.1577101 L13.635531,16.192684 C13.8245725,15.9913934 14.1409993,15.9814635 14.3422899,16.170505 C14.349913,16.1776642 14.3573097,16.1850609 14.364469,16.192684 Z" transform="translate(14.000000, 21.902299) scale(1, -1) translate(-14.000000, -21.902299) "></path>
            </g>
        </g>
    </g>
</svg>