<svg viewBox="0 0 29 29" version="1.1" xmlns="http://www.w3.org/2000/svg" xmlns:xlink="http://www.w3.org/1999/xlink">
        <g stroke="none" stroke-width="1" fill="none" fill-rule="evenodd">
        <g transform="translate(-652.000000, -822.000000)" fill="currentColor" fill-rule="nonzero">
            <g transform="translate(652.883333, 822.770046)">
                <path d="M1.626,1.534 C2.38539153,1.534 3.01298192,2.09830776 3.11230677,2.83045889 L3.126,3.034 L3.124,23.466 L26.374,23.466 C27.1333915,23.466 27.7609819,24.0303078 27.8603068,24.7624589 L27.874,24.966 C27.874,25.7253915 27.3096922,26.3529819 26.5775411,26.4523068 L26.374,26.466 L1.626,26.466 C0.866608469,26.466 0.239018078,25.9016922 0.139693232,25.1695411 L0.126,24.966 L0.126,3.034 C0.126,2.20557288 0.797572875,1.534 1.626,1.534 Z M26.1495098,7.9727136 C26.7029529,8.48348151 26.7847159,9.3141999 26.3728857,9.91840932 L26.234507,10.0923304 L20.106507,16.7323304 C19.5599214,17.3245838 18.6559657,17.3714818 18.0526741,16.8749076 L17.8960889,16.7260051 L12.92,11.2704206 L7.70341444,16.7166364 C7.18245138,17.2604935 6.35035719,17.3268071 5.75390414,16.9038215 L5.58258423,16.762235 C5.03872713,16.241272 4.97241349,15.4091778 5.39539913,14.8127247 L5.53698556,14.6414048 L11.8629856,8.03740483 C12.4134658,7.46273342 13.3043987,7.42511417 13.8997492,7.91681732 L14.0543111,8.06403607 L19.01,13.4944206 L24.029893,8.05771076 C24.5917377,7.44892342 25.5407225,7.41086889 26.1495098,7.9727136 Z"></path>
            </g>
        </g>
    </g>
</svg>