<svg viewBox="0 0 28 29" version="1.1" xmlns="http://www.w3.org/2000/svg" xmlns:xlink="http://www.w3.org/1999/xlink">
        <g stroke="none" stroke-width="1" fill="none" fill-rule="evenodd">
        <g transform="translate(-110.000000, -514.000000)" fill="currentColor" fill-rule="nonzero">
            <g transform="translate(110.000000, 514.308018)">
                <path d="M22.8,0.5 C24.7125782,0.5 26.3305078,1.88390975 26.4875193,3.70839896 L26.5,4 L26.5,16.7353427 C26.5,17.5637698 25.8284271,18.2353427 25,18.2353427 C24.2406085,18.2353427 23.6130181,17.6710349 23.5136932,16.9388838 L23.5,16.7353427 L23.5,4 C23.5,3.792094 23.291944,3.57325135 22.9700168,3.51496785 L22.8,3.5 L5.2,3.5 C4.84273197,3.5 4.58363771,3.6891418 4.51690196,3.89592957 L4.5,4 L4.5,24 C4.5,24.207906 4.70805598,24.4267487 5.02998317,24.4850321 L5.2,24.5 L12.35,24.5 C13.1784271,24.5 13.85,25.1715729 13.85,26 C13.85,26.7593915 13.2856922,27.3869819 12.5535411,27.4863068 L12.35,27.5 L5.2,27.5 C3.28742181,27.5 1.66949218,26.1160903 1.51248066,24.291601 L1.5,24 L1.5,4 C1.5,2.1317471 3.02230072,0.65442471 4.90063261,0.511363103 L5.2,0.5 L22.8,0.5 Z"></path>
                <path d="M18.5,6.94250879 C19.3284271,6.94250879 20,7.61408167 20,8.44250879 C20,9.20190032 19.4356922,9.82949071 18.7035411,9.92881556 L18.5,9.94250879 L9.5,9.94250879 C8.67157288,9.94250879 8,9.27093592 8,8.44250879 C8,7.68311726 8.56430776,7.05552687 9.29645889,6.95620202 L9.5,6.94250879 L18.5,6.94250879 Z"></path>
                <path d="M15.2849372,13.8460086 C16.1133644,13.8460086 16.7849372,14.5175815 16.7849372,15.3460086 C16.7849372,16.1054001 16.2206295,16.7329905 15.4884784,16.8323154 L15.2849372,16.8460086 L9.5,16.8460086 C8.67157288,16.8460086 8,16.1744357 8,15.3460086 C8,14.5866171 8.56430776,13.9590267 9.29645889,13.8597018 L9.5,13.8460086 L15.2849372,13.8460086 Z"></path>
                <path d="M18.789856,24.0147483 L16.9424135,22.1688387 L16.8444544,22.0802897 C16.1968447,21.5835429 15.3532769,21.6338287 14.8182311,22.1688745 C14.2316444,22.7554612 14.2316444,23.7065061 14.8182311,24.2930927 L17.7291052,27.2039669 L17.8270995,27.2925511 C18.4747099,27.7892985 19.3182777,27.7390127 19.8533235,27.2039669 L25.1899262,21.8673642 L25.2785103,21.76937 C25.7752577,21.1217596 25.724972,20.2781918 25.1899262,19.743146 L25.0820653,19.64635 C24.4404803,19.1554033 23.5976806,19.2111733 23.0657079,19.743146 L18.789856,24.0147483 Z" transform="translate(20.000591, 23.472977) rotate(-360.000000) translate(-20.000591, -23.472977) "></path>
            </g>
        </g>
    </g>
</svg>