<svg viewBox="0 0 29 29" version="1.1" xmlns="http://www.w3.org/2000/svg" xmlns:xlink="http://www.w3.org/1999/xlink">
        <g stroke="none" stroke-width="1" fill="none" fill-rule="evenodd">
        <g transform="translate(-542.000000, -719.000000)" fill="currentColor" fill-rule="nonzero">
            <g transform="translate(542.658325, 719.756682)">
                <path d="M14,0 C21.7319865,0 28,6.2680135 28,14 C28,21.7319865 21.7319865,28 14,28 C6.2680135,28 0,21.7319865 0,14 C0,6.2680135 6.2680135,0 14,0 Z M14,3 C7.92486775,3 3,7.92486775 3,14 C3,20.0751322 7.92486775,25 14,25 C20.0751322,25 25,20.0751322 25,14 C25,7.92486775 20.0751322,3 14,3 Z M20.7567538,10.3623646 L20.9103617,10.4966073 C21.4473326,11.0335782 21.4920802,11.8763775 21.0446045,12.4643198 L20.9103617,12.6179277 L13.8392939,19.6889955 C13.302323,20.2259664 12.4595237,20.2707139 11.8715814,19.8232382 L11.7179736,19.6889955 L7.08963827,15.0606602 C6.50385184,14.4748737 6.50385184,13.5251263 7.08963827,12.9393398 C7.62660918,12.4023689 8.46940844,12.3576214 9.05735074,12.8050971 L9.21095862,12.9393398 L12.7776714,16.5060526 L18.7890414,10.4966073 C19.3260123,9.95963641 20.1688116,9.91488884 20.7567538,10.3623646 Z"></path>
            </g>
        </g>
    </g>
</svg>