<svg viewBox="0 0 29 29" version="1.1" xmlns="http://www.w3.org/2000/svg" xmlns:xlink="http://www.w3.org/1999/xlink">
        <g stroke="none" stroke-width="1" fill="none" fill-rule="evenodd">
        <g transform="translate(-1086.000000, -719.000000)" fill="currentColor">
            <g transform="translate(1086.266667, 719.756682)">
                <path d="M26.5,25 C27.3284271,25 28,25.6715729 28,26.5 C28,27.3284271 27.3284271,28 26.5,28 L1.5,28 C0.671572875,28 0,27.3284271 0,26.5 C0,25.6715729 0.671572875,25 1.5,25 L26.5,25 Z M26.5,0 C27.3284271,-1.52179594e-16 28,0.671572875 28,1.5 L28,20.5 C28,21.3284271 27.3284271,22 26.5,22 L1.5,22 C0.671572875,22 5.07265313e-17,21.3284271 0,20.5 L0,1.5 C-1.01453063e-16,0.671572875 0.671572875,1.01453063e-16 1.5,0 L26.5,0 Z M24.5,3 L3.5,3 C3.25454011,3 3.05039163,3.17687516 3.00805567,3.41012437 L3,3.5 L3,18.5 C3,18.7454599 3.17687516,18.9496084 3.41012437,18.9919443 L3.5,19 L24.5,19 C24.7454599,19 24.9496084,18.8231248 24.9919443,18.5898756 L25,18.5 L25,3.5 C25,3.22385763 24.7761424,3 24.5,3 Z M14,4.48524733 C17.9486859,4.48524733 21.2444817,7.28060206 22.0164505,11.0003745 C21.2435126,14.7202198 17.9481054,17.5147527 14,17.5147527 C10.0518946,17.5147527 6.75648738,14.7202198 5.98389017,11.0012661 C6.75551825,7.28060206 10.0513141,4.48524733 14,4.48524733 Z M14,6.48524733 C11.2995701,6.48524733 8.9557701,8.22930397 8.12916771,10.7125752 L8.04,11 L8.12920588,11.2890123 C8.91879508,13.6584718 11.0901718,15.3547307 13.634149,15.5040405 L14,15.5147527 C16.6999864,15.5147527 19.0436691,13.7712159 19.8710831,11.2882433 L19.958,11 L19.8711574,10.7120767 C19.0818868,8.34209593 16.9102773,6.64531863 14.3659081,6.4959628 L14,6.48524733 Z M14,7.612499 C15.8708651,7.612499 17.387501,9.12913486 17.387501,11 C17.387501,12.8708651 15.8708651,14.387501 14,14.387501 C12.1291349,14.387501 10.612499,12.8708651 10.612499,11 C10.612499,9.12913486 12.1291349,7.612499 14,7.612499 Z M14,9.612499 C13.2337044,9.612499 12.612499,10.2337044 12.612499,11 C12.612499,11.7662956 13.2337044,12.387501 14,12.387501 C14.7662956,12.387501 15.387501,11.7662956 15.387501,11 C15.387501,10.2337044 14.7662956,9.612499 14,9.612499 Z"></path>
            </g>
        </g>
    </g>
</svg>