<svg viewBox="0 0 29 29" version="1.1" xmlns="http://www.w3.org/2000/svg" xmlns:xlink="http://www.w3.org/1999/xlink">
        <g stroke="none" stroke-width="1" fill="none" fill-rule="evenodd">
        <g transform="translate(-542.000000, -1233.000000)" fill="currentColor">
            <g transform="translate(542.658325, 1233.482073)">
                <path d="M13.7532117,0.940154379 L14.0003467,1.16520422 L26.8367532,13.9996111 C28.1016103,15.266739 28.1760136,17.273226 27.0596951,18.6276057 L26.8364316,18.8735703 L18.8771582,26.8348422 C18.2315409,27.4828776 17.3502903,27.8488401 16.4407353,27.8464609 C15.6402512,27.8485392 14.8651779,27.5684852 14.2536791,27.0649617 L14.0020257,26.8356552 L1.16469968,14.000328 C0.530612549,13.3683831 0.172741628,12.5200013 0.155354024,11.6332304 L0.164919349,11.2992396 L0.73290877,3.90537755 C0.851576768,2.35584736 2.097537,1.0263712 3.61553436,0.76792852 L3.90399608,0.732162904 L11.2965299,0.164277376 C12.1890172,0.093479099 13.0688099,0.375093161 13.7532117,0.940154379 Z M11.5553963,3.25199024 L11.3416916,3.25199024 L4.77043711,3.72069187 C4.31227143,3.75593539 3.93483884,4.08667953 3.82719928,4.5194272 L3.79985025,4.68611107 L3.33933059,11.517186 C3.31988368,11.7618076 3.38735128,12.003352 3.52658472,12.2003499 L3.64422919,12.3390978 L15.5770794,24.1499545 C15.771922,24.3473441 16.0377471,24.4577149 16.3218695,24.4564741 C16.5438668,24.4574625 16.7600278,24.3866563 16.938062,24.2571892 L17.0639343,24.1492956 L24.1499932,17.0612367 C24.515755,16.6954749 24.5563953,16.127087 24.2711812,15.7164623 L24.1489501,15.570577 L12.1935319,3.55514687 C12.0222925,3.38186893 11.7951077,3.27543816 11.5553963,3.25199024 Z M6.26868429,6.26651896 C7.53915804,4.99893265 9.59770266,4.99893265 10.866093,6.26732295 C12.1344832,7.53571324 12.1344832,9.59425786 10.866093,10.8655365 C9.59770266,12.1339268 7.53915804,12.1339268 6.2670754,10.8647316 C4.9994891,9.59425786 4.9994891,7.53571324 6.26868429,6.26651896 Z M9.45187939,7.68153651 C8.96426969,7.1939268 8.1708143,7.1939268 7.68209295,7.68153651 C7.19448325,8.16914621 7.19448325,8.9626016 7.68128805,9.45051896 C8.1708143,9.93893265 8.96426969,9.93893265 9.4510754,9.45212785 C9.9394891,8.9626016 9.9394891,8.16914621 9.45187939,7.68153651 Z"></path>
            </g>
        </g>
    </g>
</svg>