<svg viewBox="0 0 29 29" version="1.1" xmlns="http://www.w3.org/2000/svg" xmlns:xlink="http://www.w3.org/1999/xlink">
        <g stroke="none" stroke-width="1" fill="none" fill-rule="evenodd">
        <g transform="translate(-1085.000000, -616.000000)" fill="currentColor" stroke="currentColor" stroke-width="0.12">
            <g transform="translate(1085.433333, 616.859355)">
                <path d="M18.1029105,2.74865235 C22.0442562,2.75060351 25.2359394,5.94651088 25.2339875,9.88726204 C25.2339875,11.8617117 24.4202042,13.7076342 23.0005905,15.0485826 L22.6871904,15.3280624 L22.625511,15.3754793 L22.8123483,15.4754121 C23.8041151,16.0355333 24.6891905,16.7680106 25.424969,17.6374697 L25.7310379,18.0183786 L26.0180801,18.4154419 C27.1156005,20.0175913 27.7019028,21.9108038 27.7,23.8484684 C27.7,24.6231811 27.0734952,25.2513477 26.2989336,25.2513477 C25.5243722,25.2513477 24.897881,24.6231813 24.897881,23.8484684 C24.897881,21.0145304 23.0754022,18.4584476 20.3584097,17.4892985 C19.3356945,17.1140577 18.8195664,16.534767 18.7516601,15.8590977 C18.676818,15.1220159 19.1517218,14.3968985 20.0188936,13.7999399 L20.2650023,13.6403979 C21.6281995,12.8512655 22.4355355,11.4552282 22.4355355,9.89091537 C22.4355355,7.49760104 20.4876682,5.55075755 18.0953777,5.55075755 C17.3207414,5.55075755 16.6943251,4.92434123 16.6943251,4.14970492 C16.6943251,3.44084251 17.2211037,2.8542878 17.905187,2.76145133 L18.1029105,2.74865235 Z M10.7156481,2.75230562 C14.6589379,2.75230562 17.8542578,5.94822898 17.8542578,9.89091537 C17.8542578,11.7945366 17.0937071,13.5939755 15.7633541,14.9275272 L15.4613279,15.2110794 L15.6971222,15.3156668 C16.8040923,15.8345805 17.7857409,16.5302361 18.6023298,17.375253 L18.9420749,17.7464679 L19.2609135,18.135493 C20.4926112,19.7347755 21.1424348,21.7074761 21.1386523,23.8265484 C21.1386523,24.5998521 20.5116934,25.227601 19.7375502,25.227601 C18.9634077,25.227601 18.3364976,24.5998528 18.3364976,23.8265484 C18.3364976,19.8856815 15.1558391,17.0276985 10.7193014,17.0276985 C6.28393333,17.0276985 3.10210526,19.8862771 3.10210526,23.8265484 C3.10210526,24.5994335 2.47561515,25.227601 1.7028793,25.227601 C0.927329649,25.227601 0.3,24.6002713 0.3,23.8265484 C0.3,21.7055854 0.950588799,19.7335499 2.18139377,18.1354266 C2.99675286,17.0771352 4.04800665,16.2005392 5.27113301,15.5496173 L5.73773688,15.3161859 L5.97362605,15.2110794 C4.66195969,14.0368693 3.83156542,12.4488095 3.62672569,10.7290928 L3.58863164,10.296584 L3.57703835,9.89091537 C3.57703835,5.94884065 6.77357338,2.75230562 10.7156481,2.75230562 Z M10.7229548,5.54893088 C8.32752303,5.54893088 6.37731695,7.49708897 6.37731695,9.89091537 C6.37731695,12.2849985 8.32595094,14.2310732 10.7193014,14.2310732 C13.1097245,14.2310732 15.0561533,12.2841326 15.0594593,9.89091537 C15.0594593,7.49442147 13.1175478,5.54893088 10.7229548,5.54893088 Z"></path>
            </g>
        </g>
    </g>
</svg>