<svg viewBox="0 0 29 29" version="1.1" xmlns="http://www.w3.org/2000/svg" xmlns:xlink="http://www.w3.org/1999/xlink">
        <g stroke="none" stroke-width="1" fill="none" fill-rule="evenodd">
        <g transform="translate(-978.000000, -1130.000000)" fill="currentColor" fill-rule="nonzero">
            <g transform="translate(978.200000, 1130.578064)">
                <path d="M18.1128017,2.50823634 C17.7902691,3.50988026 16.6421051,4.15899593 14.3492245,4.36772052 L13.998,4.39265282 L13.6265928,4.36512566 C11.3523038,4.15256405 10.2170975,3.51453776 9.89087647,2.51996619 L9.83632093,2.31631836 C9.60054197,1.19889596 8.25227452,0.744332725 7.38805974,1.49089644 L0.588770101,7.45919571 C0.205426781,7.79681172 0.0202485,8.30630499 0.0973500185,8.81127235 L0.148442003,9.06634174 C0.525062668,10.5786243 2.16316215,11.7709085 5.092,12.9966528 L4.91410689,15.4673114 L4.46906545,21.1870711 L4.37978501,22.6330672 C4.34903963,23.3679183 4.39984728,23.5063936 4.56622264,23.8393421 C5.71091764,25.6605401 8.3958579,26.7859328 13.4061699,26.870371 L13.9875522,26.8752507 C19.386876,26.8752507 22.2432259,25.7329216 23.3590884,23.9716041 L23.4632349,23.7608722 C23.6130432,23.435424 23.6469235,23.1970687 23.6086665,22.4193395 L23.4606955,20.2059133 L22.9657648,13.8690478 L22.906,12.9966528 C25.9986489,11.7032165 27.6530147,10.4462291 27.90265,8.81127235 C27.9797515,8.30630499 27.7945732,7.79681172 27.4112299,7.45919571 L20.6119403,1.49089644 C19.8017389,0.790992957 18.5661006,1.14676745 18.2205348,2.11470096 L18.1128017,2.50823634 Z M7.894,5.02865282 L8.09551212,5.25709278 C9.21494237,6.44242232 11.0125356,7.13387605 13.3707537,7.3541068 L13.8836369,7.39419409 L14.0941832,7.39575461 L14.5784217,7.35856736 C16.961574,7.14135686 18.7716625,6.45435369 19.8977685,5.26701545 L20.106,5.03065282 L24.416,8.81865282 L24.1981004,8.97564546 C23.4650034,9.47076837 22.3371501,10.0172678 20.8297316,10.596724 C20.2503076,10.8194563 19.8679411,11.376083 19.8679411,11.996842 L19.8893858,12.7417986 C19.901245,12.9877057 19.9183544,13.2773919 19.9415244,13.6252035 L20.5583301,21.7004611 L20.606,22.6126528 L20.578435,22.6360919 C20.4118277,22.7498473 20.121584,22.9167377 19.6828133,23.0922215 C18.4636135,23.5798335 16.606082,23.8753023 14,23.8753023 L13.4438935,23.8706356 C11.0618734,23.8304369 9.353268,23.527349 8.22947717,23.056312 L7.97359168,22.9420537 C7.73807102,22.8296502 7.56223453,22.7231879 7.43338923,22.6260606 L7.392,22.5926528 L7.4416699,21.7004611 L8.05847563,13.6252035 C8.11060805,12.8426273 8.13205886,12.3543112 8.13205886,11.996842 C8.13205886,11.376083 7.74969237,10.8194563 7.17026842,10.596724 C5.66284992,10.0172678 4.53499656,9.47076837 3.80189965,8.97564546 L3.582,8.81865282 L7.894,5.02865282 Z"></path>
            </g>
        </g>
    </g>
</svg>