<svg viewBox="0 0 51 51" version="1.1" xmlns="http://www.w3.org/2000/svg" xmlns:xlink="http://www.w3.org/1999/xlink">
    <g stroke="none" stroke-width="1" fill="none" fill-rule="evenodd">
        <g transform="translate(-744.000000, -1909.000000)">
            <g transform="translate(744.633333, 1909.764423)">
                <path d="M5,0 L45,0 C47.7614237,0 50,2.23857625 50,5 L50,45 C50,47.7614237 47.7614237,50 45,50 L5,50 C2.23857625,50 0,47.7614237 0,45 L0,5 C0,2.23857625 2.23857625,0 5,0 Z" fill="#FAAD14"></path>
                <path d="M17.4285714,27.7619048 C16.6395932,27.7619048 16,27.1223115 16,26.3333333 L16,26.3333333 L16,14.4285714 C16,13.6395932 16.6395932,13 17.4285714,13 L17.4285714,13 L33.1428571,13 C33.9318354,13 34.5714286,13.6395932 34.5714286,14.4285714 L34.5714286,14.4285714 L34.5714286,26.3333333 C34.5714286,27.1223115 33.9318354,27.7619048 33.1428571,27.7619048 L33.1428571,27.7619048 Z M30.1421429,18.5885714 L26.9132613,23.3432547 C26.7128457,23.6383385 26.3293499,23.7369017 26.0152643,23.5869036 L25.9383351,23.5441957 L22.8364286,21.5664286 L19.127,26.333 L33.1428571,26.3333333 L33.142,21.183 L30.1421429,18.5885714 Z M33.1428571,14.4285714 L17.4285714,14.4285714 L17.428,26.189 L22.1086577,20.1758236 C22.3176197,19.9072742 22.6835395,19.8262228 22.9830609,19.9712273 L23.0564286,20.0122103 L26.1207143,21.9664286 L29.4113811,17.1224901 C29.6354797,16.7925364 30.0813805,16.7139317 30.4026583,16.9321799 L30.4694698,16.9835076 L33.142,19.294 L33.1428571,14.4285714 Z" fill="#FFFFFF" fill-rule="nonzero"></path>
                <path d="M17.8150809,38.8500513 L17.8150809,32.0224857 L20.4317647,32.0224857 L20.4317647,31 L14,31 L14,32.0224857 L16.6276782,32.0224857 L16.6276782,38.8500513 L17.8150809,38.8500513 Z M22.5866807,38.8500513 L22.5866807,31 L21.399278,31 L21.399278,38.8500513 L22.5866807,38.8500513 Z M25.3462926,38.8500513 L25.3462926,35.331821 L29.2493293,35.331821 L29.2493293,34.3093353 L25.3462926,34.3093353 L25.3462926,32.0224857 L29.4802132,32.0224857 L29.4802132,31 L24.1478954,31 L24.1478954,38.8500513 L25.3462926,38.8500513 Z M31.7340794,38.8500513 L31.7340794,35.331821 L35.6371161,35.331821 L35.6371161,34.3093353 L31.7340794,34.3093353 L31.7340794,32.0224857 L35.868,32.0224857 L35.868,31 L30.5356823,31 L30.5356823,38.8500513 L31.7340794,38.8500513 Z" fill="#FFFFFF" fill-rule="nonzero"></path>
            </g>
        </g>
    </g>
</svg>