<svg viewBox="0 0 29 29" version="1.1" xmlns="http://www.w3.org/2000/svg" xmlns:xlink="http://www.w3.org/1999/xlink">
        <g stroke="none" stroke-width="1" fill="none" fill-rule="evenodd">
        <g transform="translate(-542.000000, -822.000000)" fill="currentColor" fill-rule="nonzero">
            <g transform="translate(542.658325, 822.770046)">
                <path d="M7.64636542,0.63974387 C8.49028449,0.63974387 9.17441607,1.32387545 9.17441607,2.16779451 C9.17441607,2.94138699 8.59955551,3.58071359 7.85371284,3.68189586 L7.64636542,3.69584516 L3.46561886,3.69584516 C3.2766175,3.69584516 3.1182312,3.82282344 3.07068581,3.99632363 L3.05610129,4.10536273 L3.05610129,23.8946373 C3.05610129,24.083528 3.18298736,24.241988 3.35653366,24.2895611 L3.46561886,24.3041548 L24.5323437,24.3041548 C24.7220828,24.3041548 24.8813922,24.1765613 24.9292247,24.0033687 L24.9438987,23.8946373 L24.9438987,4.10536273 C24.9438987,3.91721033 24.8162125,3.75825806 24.6418872,3.71050043 L24.5323437,3.69584516 L20.3373354,3.69584516 C19.4934163,3.69584516 18.8092847,3.01171358 18.8092847,2.16779451 C18.8092847,1.39420203 19.3841453,0.754875434 20.1299879,0.653693171 L20.3373354,0.63974387 L24.5323437,0.63974387 C26.3465813,0.63974387 27.8355616,2.03222676 27.9872708,3.80632036 L28,4.10536273 L28,23.8946373 C28,25.7080121 26.6065059,27.1959358 24.8315315,27.3475361 L24.5323437,27.3602561 L3.46561886,27.3602561 C1.65127857,27.3602561 0.164218744,25.9676766 0.0127120048,24.1936644 L0,23.8946373 L0,4.10536273 C0,2.29208994 1.39156823,0.804074982 3.16643207,0.652464746 L3.46561886,0.63974387 L7.64636542,0.63974387 Z M13.9988301,0.63974387 C14.6522892,0.63974387 15.2079251,1.10829922 15.3295725,1.79009676 L15.3295725,1.79009676 L15.3450899,1.98606271 L15.3426472,9.4778524 L17.3742681,7.55028348 C17.8593129,7.08928894 18.5980421,7.06073638 19.114343,7.45252207 L19.114343,7.45252207 L19.2775522,7.59866877 C19.7277255,8.07232779 19.7708759,8.79787132 19.3604797,9.35574309 L19.3604797,9.35574309 L19.2291669,9.50195285 L15.0094683,13.512424 C14.5661369,13.9337735 13.8972775,14.0015247 13.339946,13.6582125 L13.339946,13.6582125 L13.1732973,13.5298873 L8.78956438,9.51941609 C8.24098108,9.01754302 8.20311496,8.16597987 8.70498804,7.61739657 C9.14607112,7.1352611 9.86683343,7.04157515 10.4519891,7.41203268 L10.4519891,7.41203268 L10.6069739,7.53278946 L12.6512406,9.40450597 L12.6525702,1.98600377 C12.6525702,1.31007757 13.1507033,0.75049661 13.7998896,0.654340784 L13.7998896,0.654340784 Z M13.4516667,23.252646 L13.4516667,21.502646 L11.8533333,21.502646 C11.4683333,21.502646 10.8733333,21.5609794 10.4416667,21.6193127 C11.7716667,20.277646 13.055,18.632646 13.055,17.1393127 C13.055,15.482646 11.8883333,14.4093127 10.2083333,14.4093127 C8.97166667,14.4093127 8.17833333,14.852646 7.32666667,15.7509794 L8.45833333,16.8709794 C8.86666667,16.427646 9.33333333,16.0309794 9.92833333,16.0309794 C10.6166667,16.0309794 11.06,16.462646 11.06,17.2559794 C11.06,18.5159794 9.60166667,20.0909794 7.43166667,22.062646 L7.43166667,23.252646 L13.4516667,23.252646 Z M17.5933333,14.4093127 C19.425,14.4093127 20.6733333,15.902646 20.6733333,18.8659794 C20.6733333,21.852646 19.425,23.4159794 17.5933333,23.4159794 C15.7616667,23.4159794 14.525,21.852646 14.525,18.8659794 C14.525,15.8793127 15.7616667,14.4093127 17.5933333,14.4093127 Z M17.5933333,16.007646 C16.975,16.007646 16.485,16.497646 16.485,18.8659794 C16.485,21.2459794 16.975,21.8059794 17.5933333,21.8059794 C18.2116667,21.8059794 18.7133333,21.2459794 18.7133333,18.8659794 C18.7133333,16.497646 18.2116667,16.007646 17.5933333,16.007646 Z"></path>
            </g>
        </g>
    </g>
</svg>