<svg viewBox="0 0 51 51" version="1.1" xmlns="http://www.w3.org/2000/svg" xmlns:xlink="http://www.w3.org/1999/xlink">
        <g stroke="none" stroke-width="1" fill="none" fill-rule="evenodd">
        <g transform="translate(-502.000000, -1909.000000)">
            <g transform="translate(502.145833, 1909.764423)">
                <path d="M5,0 L45,0 C47.7614237,0 50,2.23857625 50,5 L50,45 C50,47.7614237 47.7614237,50 45,50 L5,50 C2.23857625,50 0,47.7614237 0,45 L0,5 C0,2.23857625 2.23857625,0 5,0 Z" fill="#659CC9"></path>
                <path d="M15.792,31 L15.792,21.064 L19.6,21.064 L19.6,19.576 L10.24,19.576 L10.24,21.064 L14.064,21.064 L14.064,31 L15.792,31 Z M22.064,31 L25.12,26.472 L28.176,31 L30.304,31 L26.16,25.096 L30.032,19.576 L27.904,19.576 L25.12,23.704 L22.336,19.576 L20.208,19.576 L24.048,25.096 L19.936,31 L22.064,31 Z M36.176,31 L36.176,21.064 L39.984,21.064 L39.984,19.576 L30.624,19.576 L30.624,21.064 L34.448,21.064 L34.448,31 L36.176,31 Z" fill="#FFFFFF" fill-rule="nonzero"></path>
            </g>
        </g>
    </g>
</svg>