<svg viewBox="0 0 28 29" version="1.1" xmlns="http://www.w3.org/2000/svg" xmlns:xlink="http://www.w3.org/1999/xlink">
        <g stroke="none" stroke-width="1" fill="none" fill-rule="evenodd">
        <g transform="translate(-110.000000, -616.000000)" fill="currentColor" fill-rule="nonzero">
            <g transform="translate(110.000000, 616.859355)">
                <path d="M26.0488494,13.4124674 L26.1615138,13.4140607 C26.9875121,13.4748884 27.6089635,14.1919487 27.5515151,15.0218171 C27.0171321,22.1110002 21.1092604,27.5903876 14.0008362,27.5903876 C11.3265232,27.5941644 8.71101652,26.8058693 6.48386927,25.3246482 C5.5423235,24.6973265 4.68506438,23.9577607 3.92983838,23.1245842 L3.48908872,22.6135942 L3.418,22.522 L3.41866645,23.3286275 C3.41866645,24.020978 2.95094937,24.6040868 2.3142447,24.7792245 L2.1184624,24.8192279 L1.91433323,24.8329607 C1.15274766,24.8329607 0.523344517,24.267023 0.423732783,23.5327567 L0.41,23.3286275 L0.41,18.1646445 C0.41,17.4046845 0.976500902,16.7739268 1.71034486,16.674078 L1.91433323,16.6603113 L6.585674,16.6603113 C7.41649461,16.6603113 8.09000722,17.3338239 8.09000722,18.1646445 C8.09000725,18.9262301 7.52406956,19.5556333 6.78980317,19.655245 L6.58567399,19.6689778 L5.06,19.668 L5.26843505,19.9841247 C8.0546571,24.0580177 13.3435428,25.6786078 17.9533132,23.8150597 L18.3971932,23.6238051 L18.8105154,23.4237435 C22.0953485,21.746523 24.2700991,18.4801981 24.5506016,14.8020135 C24.6056491,14.0896351 25.1498726,13.5241049 25.8383301,13.4271687 L26.0488494,13.4124674 Z M0.446312909,12.9810557 C1.00920654,5.49664434 7.53283687,-0.114352907 15.0172543,0.448538522 C18.5329684,0.712952699 21.7705008,2.32792677 24.0874565,4.89547022 L24.4649818,5.33214598 L24.58,5.478 L24.5813335,4.50660238 C24.5813334,3.81425191 25.0490506,3.23114307 25.6857552,3.05600541 L25.8815375,3.01600198 L26.0856667,3.0022692 C26.8472523,3.00226908 27.4766555,3.56820682 27.5762672,4.30247324 L27.59,4.50660243 L27.59,9.83594009 C27.59,10.5975257 27.0240623,11.2269288 26.289796,11.3265406 L26.0856668,11.3402733 L21.4121676,11.3402733 C20.581347,11.3402733 19.9078344,10.6667607 19.9078344,9.83594009 C19.9078344,9.07435452 20.4737721,8.4449514 21.2080384,8.34533967 L21.4121676,8.33160689 L22.932,8.33 L22.7286136,8.01709482 C19.9388961,3.94436165 14.6477835,2.32724321 10.0384016,4.19448692 L9.59456743,4.38609975 L9.18130348,4.58649952 C5.90115407,6.26429343 3.72933334,9.52691839 3.44698969,13.2038768 C3.38840451,13.9129944 2.84631128,14.4747056 2.15752539,14.5745293 L1.94682566,14.5903053 L1.83276245,14.5886079 C1.00818987,14.5259251 0.388816738,13.8094263 0.446312909,12.9810557 Z"></path>
            </g>
        </g>
    </g>
</svg>