<svg viewBox="0 0 29 29" version="1.1" xmlns="http://www.w3.org/2000/svg" xmlns:xlink="http://www.w3.org/1999/xlink">
        <g stroke="none" stroke-width="1" fill="none" fill-rule="evenodd">
        <g transform="translate(-867.000000, -616.000000)" fill="currentColor">
            <g transform="translate(867.900000, 616.859355)">
                <path d="M14,0.093 C16.2909673,0.093 18.4461714,0.98594187 20.0630897,2.60498354 C21.6842225,4.22187255 22.578,6.37886294 22.578,8.671 C22.578,10.9614153 21.6840254,13.118324 20.0650611,14.7330393 L19.7804313,15.0039165 L19.4764459,15.2622686 L19.228,15.45 L19.3276486,15.4951202 C20.1852238,15.9011676 20.9860964,16.4001017 21.7221463,16.9868556 L22.2619025,17.443308 L22.6925811,17.8484991 C23.8227115,18.9598635 24.7097037,20.2538534 25.3293067,21.6954212 C25.9718567,23.1891413 26.298,24.778301 26.298,26.413 C26.298,27.2407218 25.6206017,27.907 24.788,27.907 C23.9553983,27.907 23.278,27.2407218 23.278,26.413 C23.278,23.9779985 22.314503,21.6901276 20.5633516,19.9674347 C18.8092067,18.2417662 16.4812754,17.293 14,17.293 C11.5187246,17.293 9.19079327,18.2417662 7.43645222,19.9676276 C5.68473861,21.6890085 4.722,23.9762571 4.722,26.413 C4.722,27.2411813 4.0441429,27.907 3.21,27.907 C2.37893904,27.907 1.702,27.2402614 1.702,26.413 C1.702,24.7796815 2.02759905,23.1906109 2.66887544,21.6949984 C3.29093263,20.2525772 4.17816783,18.9589988 5.30675626,17.8491519 C6.29109919,16.8775454 7.42096245,16.0876945 8.6714125,15.4949787 L8.77,15.45 L8.48760849,15.2326702 L8.29589148,15.0714434 L7.93467852,14.7347852 C6.31545149,13.1176803 5.422,10.9606889 5.422,8.671 C5.422,6.37958953 6.31525451,4.22251642 7.93444661,2.60544661 C9.55419645,0.985696765 11.7093658,0.093 14,0.093 Z M14,3.083 C10.9181424,3.083 8.412,5.58914237 8.412,8.671 C8.412,11.7528576 10.9181424,14.259 14,14.259 C17.0818576,14.259 19.588,11.7528576 19.588,8.671 C19.588,5.58914237 17.0818576,3.083 14,3.083 Z"></path>
            </g>
        </g>
    </g>
</svg>