<svg viewBox="0 0 51 51" version="1.1" xmlns="http://www.w3.org/2000/svg" xmlns:xlink="http://www.w3.org/1999/xlink">
    <g stroke="none" stroke-width="1" fill="none" fill-rule="evenodd">
        <g transform="translate(-340.000000, -1909.000000)">
            <g transform="translate(340.487500, 1909.764423)">
                <path d="M5,0 L45,0 C47.7614237,0 50,2.23857625 50,5 L50,45 C50,47.7614237 47.7614237,50 45,50 L5,50 C2.23857625,50 0,47.7614237 0,45 L0,5 C0,2.23857625 2.23857625,0 5,0 Z" fill="#659CC9"></path>
                <path d="M30,17.1428571 C30.7889782,17.1428571 31.4285714,17.7824504 31.4285714,18.5714286 L31.4285714,18.5714286 L31.4282857,23.0238571 L33.377326,21.854897 C33.84849,21.5721986 34.449619,21.6938744 34.7768459,22.1189578 L34.8473138,22.222394 C34.9472237,22.3889105 35,22.5794495 35,22.7736394 L35,22.7736394 L35,27.9406463 C35,28.53238 34.5203051,29.0120749 33.9285714,29.0120749 C33.7343815,29.0120749 33.5438425,28.9592986 33.377326,28.8593887 L33.377326,28.8593887 L31.4282857,27.6898571 L31.4285714,31.4285714 C31.4285714,32.1711392 30.8620113,32.7813797 30.137581,32.8506033 L30,32.8571429 L17.1428571,32.8571429 C16.3538789,32.8571429 15.7142857,32.2175496 15.7142857,31.4285714 L15.7142857,31.4285714 L15.7142857,18.5714286 C15.7142857,17.7824504 16.3538789,17.1428571 17.1428571,17.1428571 L17.1428571,17.1428571 Z M30,18.5714286 L17.1428571,18.5714286 L17.1428571,31.4285714 L30,31.4285714 L30,18.5714286 Z M33.5714286,23.4035714 L31.4285714,24.690136 L31.4285714,26.0241497 L33.5714286,27.31 L33.5714286,23.4035714 Z M20.3571429,21.4285714 C21.3433656,21.4285714 22.1428571,22.2280629 22.1428571,23.2142857 C22.1428571,24.2005085 21.3433656,25 20.3571429,25 C19.3709201,25 18.5714286,24.2005085 18.5714286,23.2142857 C18.5714286,22.2280629 19.3709201,21.4285714 20.3571429,21.4285714 Z" fill="#FFFFFF" fill-rule="nonzero"></path>
            </g>
        </g>
    </g>
</svg>