<svg viewBox="0 0 29 29" version="1.1" xmlns="http://www.w3.org/2000/svg" xmlns:xlink="http://www.w3.org/1999/xlink">
        <g stroke="none" stroke-width="1" fill="none" fill-rule="evenodd">
        <g transform="translate(-869.000000, -925.000000)" fill="currentColor">
            <g transform="translate(869.916667, 925.667373)">
                <path d="M14.0009738,4.125 C19.945438,4.125 25.2297439,7.7645823 27.6087083,13.2647664 L27.8232757,13.7858054 L27.8232757,14.2078882 C25.5620087,20.0013222 20.1322582,23.875 14.0009738,23.875 C8.0545442,23.875 2.77011781,20.233553 0.39118345,14.7294706 L0.176724308,14.2080602 L0.176724308,13.7859774 C2.43824967,7.99613246 7.8683263,4.125 14.0009738,4.125 Z M14.0009738,7.141 C9.51551113,7.141 5.48342868,9.73762287 3.4263178,13.7837823 L3.32197377,13.996 L3.42620353,14.2104015 C5.40547399,18.1066506 9.21939705,20.6605332 13.5045226,20.8443651 L14.0009738,20.855 C18.4847955,20.855 22.5184758,18.2562746 24.5737565,14.2103767 L24.6759738,13.996 L24.5737775,13.7838749 C22.5944367,9.88917846 18.7805067,7.33545646 14.4972061,7.15163439 L14.0009738,7.141 Z M14.0017738,9.4474 C16.5140585,9.4474 18.5517738,11.4851153 18.5517738,13.9974 C18.5517738,16.5112883 16.5144548,18.5494 14.0017738,18.5494 C11.4858853,18.5494 9.44777377,16.5120809 9.44777377,13.9974 C9.44777377,11.4843228 11.4862818,9.4474 14.0017738,9.4474 Z M14.0017738,11.4474 C12.5905031,11.4474 11.4477738,12.5892408 11.4477738,13.9974 C11.4477738,15.4073373 12.5902807,16.5494 14.0017738,16.5494 C15.4097111,16.5494 16.5517738,15.406893 16.5517738,13.9974 C16.5517738,12.5896847 15.409489,11.4474 14.0017738,11.4474 Z"></path>
            </g>
        </g>
    </g>
</svg>