<svg viewBox="0 0 51 51" version="1.1" xmlns="http://www.w3.org/2000/svg" xmlns:xlink="http://www.w3.org/1999/xlink">
        <g stroke="none" stroke-width="1" fill="none" fill-rule="evenodd">
        <g transform="translate(-421.000000, -1909.000000)">
            <g transform="translate(421.316667, 1909.764423)">
                <path d="M5,0 L45,0 C47.7614237,0 50,2.23857625 50,5 L50,45 C50,47.7614237 47.7614237,50 45,50 L5,50 C2.23857625,50 0,47.7614237 0,45 L0,5 C0,2.23857625 2.23857625,0 5,0 Z" fill="#2688E8"></path>
                <path d="M28.869,28.019 L25.9096976,18.6777947 L25.8745229,18.5842743 L25.81764,18.4755179 C25.4234232,17.8256518 24.4084509,17.9142429 24.1665291,18.6777964 L21.206,28.018 L18.2472536,18.6778054 L18.213714,18.5889572 C18.0199548,18.1571085 17.5430801,17.9418245 17.0995162,18.0823619 C16.6181534,18.2348753 16.3515683,18.7487335 16.5040817,19.2300964 L20.3353054,31.3222036 L20.3704807,31.4157257 L20.4273636,31.5244821 C20.8215803,32.1743482 21.8365526,32.0857571 22.0784744,31.3222036 L25.038,21.979 L27.9977525,31.3222027 L28.0329281,31.4157257 C28.3750471,32.1818038 29.4862673,32.1259441 29.7409218,31.3222036 L33.5721455,19.2300964 L33.5958871,19.1381537 C33.6861668,18.6735189 33.4202749,18.2228992 32.976711,18.0823619 C32.4953482,17.9298484 31.9814899,18.1964336 31.8289765,18.6777964 L28.869,28.019 Z" fill="#FFFFFF" fill-rule="nonzero"></path>
            </g>
        </g>
    </g>
</svg>