<svg viewBox="0 0 29 29" version="1.1" xmlns="http://www.w3.org/2000/svg" xmlns:xlink="http://www.w3.org/1999/xlink">
        <g stroke="none" stroke-width="1" fill="none" fill-rule="evenodd">
        <g transform="translate(-978.000000, -822.000000)" fill="currentColor" fill-rule="nonzero">
            <g transform="translate(978.433333, 822.770036)">
                <path d="M6.50005643,0 C9.96616831,0 12.7983471,2.71293201 12.9896808,6.13118875 L12.9999841,6.50003804 L12.9999841,13 L6.50005643,13 C2.91015484,13 1.83939047e-05,10.0899396 1.83939047e-05,6.50003804 C1.83939047e-05,2.91017324 2.91015484,0 6.50005643,0 Z M6.78710404,3.01160212 L6.50005643,3 C4.56702442,3 3.00001839,4.56701215 3.00001839,6.50003804 C3.00001839,8.33640891 4.4142046,9.8423908 6.21299144,9.98839806 L6.50005643,10 L9.998,10 L9.9999841,6.50016101 C9.99991301,4.7656514 8.73854389,3.3259663 7.08314669,3.04835313 L6.78710404,3.01160212 Z M21.4998332,1.47151238e-05 C25.0897348,1.47151238e-05 27.9998712,2.91018795 27.9998712,6.50005275 C27.9998712,9.96616463 25.2870764,12.7985125 21.8686967,12.9897254 L21.4998332,13.0000147 L14.9997584,13.0000147 L14.9997584,6.50005275 C14.9997584,2.91018795 17.9099316,1.47151238e-05 21.4998332,1.47151238e-05 Z M21.4998332,3.00001472 C19.6634411,3.00001472 18.1573765,4.41425426 18.011361,6.21299576 L17.9997584,6.50005275 L17.998,10.0000147 L21.4998332,10.0000147 C23.3363134,10.0000147 24.8422656,8.58589288 24.9882696,6.78711655 L24.9998712,6.50005275 C24.9998712,4.56702687 23.4328652,3.00001472 21.4998332,3.00001472 Z M12.9998186,14.9999202 L12.9998186,21.4999583 C12.9998186,25.0898599 10.0899396,27.9999963 6.50003804,27.9999963 C2.91013645,27.9999963 -1.77635684e-15,25.0898599 -1.77635684e-15,21.4999583 C-1.77635684e-15,18.0338464 2.71289771,15.2014276 6.1311852,15.0102098 L6.50003804,14.9999202 L12.9998186,14.9999202 Z M9.998,17.998 L6.50003804,17.9999202 C4.5669907,17.9999202 3,19.5669109 3,21.4999583 C3,23.4330056 4.5669907,24.9999963 6.50003804,24.9999963 C8.33635142,24.9999963 9.8422213,23.5858647 9.9882175,21.7870315 L9.99981856,21.4999583 L9.998,17.998 Z M21.499962,14.9999055 C25.0898636,14.9999055 28,17.910042 28,21.4999436 C28,25.0898452 25.0898636,28.0000184 21.499962,28.0000184 C18.0338501,28.0000184 15.2014313,25.2870864 15.0102135,21.8687965 L14.9999239,21.4999436 L14.9999239,14.9999055 L21.499962,14.9999055 Z M17.9999239,21.4999436 C17.9999239,23.4330032 19.5669269,25.0000184 21.499962,25.0000184 C23.432997,25.0000184 25,23.4330032 25,21.4999436 C25,19.6635486 23.5857909,18.1575197 21.7870235,18.0115078 L21.499962,17.9999055 L17.998,17.998 L17.9999239,21.4999436 Z"></path>
            </g>
        </g>
    </g>
</svg>