<svg viewBox="0 0 29 29" version="1.1" xmlns="http://www.w3.org/2000/svg" xmlns:xlink="http://www.w3.org/1999/xlink">
        <g stroke="none" stroke-width="1" fill="none" fill-rule="evenodd">
        <g transform="translate(-542.000000, -410.000000)" fill="currentColor" fill-rule="nonzero">
            <g transform="translate(542.658325, 410.500000)">
                <path d="M12.4223,3.263 C13.2507271,3.263 13.9223,3.93457288 13.9223,4.763 C13.9223,5.52239153 13.3579922,6.14998192 12.6258411,6.24930677 L12.4223,6.263 L3.1077,6.263 L3.1077,24.893 L21.7357,24.893 L21.7363,15.441 C21.7363,14.6816085 22.3006078,14.0540181 23.0327589,13.9546932 L23.2363,13.941 C23.9956915,13.941 24.6232819,14.5053078 24.7226068,15.2374589 L24.7363,15.441 L24.7363,25.409 C24.7363,26.6949182 23.7600183,27.7529429 22.5081422,27.8801729 L22.2543,27.893 L2.5903,27.893 C1.30312083,27.893 0.247957291,26.9155395 0.121089893,25.6629732 L0.1083,25.409 L0.1083,5.745 C0.1083,4.46001897 1.08370179,3.40293206 2.33629282,3.27581565 L2.5903,3.263 L12.4223,3.263 Z M22.4297,0.107 C22.6187,0.107 22.8077,0.162125 22.9713875,0.2706875 L23.1257,0.397 L27.6037,4.875 C27.9450333,5.21455556 27.9829593,5.74532099 27.7174778,6.12877229 L27.6037,6.265 L15.0257,18.841 C14.9777,18.8903333 14.9172556,18.9254444 14.8508852,18.9433704 L14.7377,18.957 L10.1237,18.833 C9.65792222,18.8187778 9.27589753,18.4869259 9.18551619,18.0467394 L9.1657,17.877 L9.04356189,13.261 C9.04234283,13.189 9.05969205,13.1187778 9.09391957,13.0574444 L9.1577,12.973 L21.7337,0.397 C21.9277,0.205 22.1777,0.107 22.4297,0.107 Z M22.4297,3.943 L12.0717,14.303 L12.1157,15.885 L13.6977,15.927 L24.0557,5.569 L22.4297,3.943 Z"></path>
            </g>
        </g>
    </g>
</svg>